<svg xmlns="http://www.w3.org/2000/svg" version="1.1" xmlns:xlink="http://www.w3.org/1999/xlink" width="1000" height="1000"><style>
    #light-icon {
      display: inline;
    }
    #dark-icon {
      display: none;
    }

    @media (prefers-color-scheme: dark) {
      #light-icon {
        display: none;
      }
      #dark-icon {
        display: inline;
      }
    }
  </style><g id="light-icon"><svg xmlns="http://www.w3.org/2000/svg" version="1.1" xmlns:xlink="http://www.w3.org/1999/xlink" width="1000" height="1000"><g><g transform="matrix(5.58659217877095,0,0,5.58659217877095,8.379888268156435,0)"><svg xmlns="http://www.w3.org/2000/svg" version="1.1" xmlns:xlink="http://www.w3.org/1999/xlink" width="176" height="179"><svg width="176" height="179" viewBox="0 0 176 179" fill="none" xmlns="http://www.w3.org/2000/svg">
<path d="M59.2231 161.568L59.5162 161.696L56.236 169.305L55.3206 168.911L56.8543 165.358L57.8902 163.222L50.4425 166.823L50.1253 166.687L53.4055 159.079L54.3089 159.468L52.735 163.122L51.7594 165.169L59.2191 161.576L59.2231 161.568Z" fill="#7C6C55"></path>
<path d="M43.2759 163.041C41.8948 162.23 40.9553 160.684 41.3969 158.946L42.228 159.432C42.1035 160.656 42.7017 161.652 43.7376 162.258C45.3677 163.254 47.1985 162.672 48.1701 161.014C49.1136 159.404 48.7522 157.509 47.1021 156.545C46.006 155.903 44.7534 155.907 43.7697 156.714L42.9386 156.228C44.2836 154.871 46.1144 154.915 47.5518 155.758C49.5512 156.931 50.3542 159.287 49.0413 161.528C47.7324 163.756 45.2793 164.262 43.2799 163.049L43.2759 163.041Z" fill="#7C6C55"></path>
<path d="M38.6547 158.954L38.1368 159.673L33.2024 156.103L33.7204 155.385L35.8001 156.886L40.1242 150.908L40.9031 151.47L36.579 157.448L38.6587 158.95L38.6547 158.954Z" fill="#7C6C55"></path>
<path d="M33.7525 145.424C35.4669 147.014 35.7278 149.475 33.9372 151.406C32.1385 153.345 29.6492 153.257 27.9389 151.675C26.2326 150.093 25.9716 147.596 27.7502 145.677C29.4525 143.842 31.9096 143.721 33.7485 145.428L33.7525 145.424ZM33.1342 146.09C31.7932 144.846 29.85 144.882 28.4849 146.351C27.1198 147.821 27.2001 149.764 28.5492 151.013C29.8741 152.241 31.8253 152.213 33.2024 150.723C34.5675 149.254 34.4631 147.323 33.1302 146.086L33.1342 146.09Z" fill="#7C6C55"></path>
<path d="M28.8623 140.754L22.5629 146.102C21.8563 145.271 21.1095 144.408 20.4109 143.569C19.2586 142.212 19.4835 140.542 20.688 139.518C21.8844 138.502 23.5747 138.578 24.7109 139.919L26.2245 141.702L28.224 140.008L28.8623 140.758V140.754ZM24.0364 140.489C23.3217 139.646 22.1654 139.526 21.2902 140.265C20.435 140.991 20.3387 142.132 21.0734 143.003C21.5552 143.589 22.0811 144.187 22.595 144.793L25.554 142.28L24.0324 140.489H24.0364Z" fill="#7C6C55"></path>
<path d="M23.2695 133.853L23.4462 134.118L16.5526 138.719L15.9985 137.888L19.2185 135.74L21.25 134.511L13.0395 133.483L12.8468 133.198L19.7364 128.597L20.2824 129.416L16.9742 131.625L15.043 132.813L23.2575 133.853H23.2695Z" fill="#7C6C55"></path>
<path d="M13.7783 127.104C13.4169 126.397 13.0757 125.755 12.7103 125.53C12.2004 125.205 11.2489 125.341 10.4579 125.506C9.33377 125.719 8.43844 125.55 7.98476 124.036L8.57495 123.735C8.90819 124.618 9.43013 124.763 10.3134 124.594C11.1846 124.43 12.08 124.293 12.7986 124.578L15.1072 120.146L15.2317 120.082L15.7456 121.085L13.5494 125.165C13.8666 125.498 14.3082 126.313 14.517 126.722L17.7771 125.06L18.2268 125.939L10.8715 129.697L10.4218 128.818L13.7863 127.1L13.7783 127.104Z" fill="#7C6C55"></path>
<path d="M13.2122 114.573C14.0192 116.769 13.1279 119.082 10.6587 119.985C8.17747 120.897 5.99737 119.68 5.1984 117.496C4.39943 115.312 5.29878 112.971 7.75992 112.068C10.1086 111.209 12.353 112.22 13.2162 114.573H13.2122ZM12.361 114.886C11.7307 113.168 9.9882 112.317 8.10119 113.007C6.21819 113.698 5.40718 115.46 6.03752 117.191C6.65983 118.885 8.40632 119.748 10.3134 119.05C12.1964 118.359 12.9833 116.593 12.357 114.886H12.361Z" fill="#7C6C55"></path>
<path d="M6.86861 109.494L5.92912 105.752L6.72006 105.556L7.65955 109.298L6.86861 109.494Z" fill="#7C6C55"></path>
<path d="M4.96554 101.657C4.84509 100.87 4.72464 100.156 4.44761 99.8264C4.0662 99.3566 3.12269 99.188 2.31971 99.0916C1.1875 98.9391 0.392548 98.4974 0.436712 96.9155L1.09114 96.8152C1.12728 97.7587 1.57695 98.0638 2.46826 98.1803C3.34753 98.3007 4.23884 98.4533 4.82903 98.9511L8.42238 95.4782L8.5629 95.4581L8.73153 96.5743L5.359 99.7501C5.55172 100.164 5.71633 101.075 5.78458 101.537L9.40202 100.987L9.55057 101.962L1.38022 103.203L1.23167 102.227L4.96554 101.661V101.657Z" fill="#7C6C55"></path>
<path d="M8.39428 93.262L0.139607 93.6032C0.0954431 92.5112 0.0352177 91.375 0.00309839 90.2829C-0.0691701 88.5043 1.13129 87.3239 2.71317 87.2597C4.283 87.1954 5.56777 88.2955 5.64004 90.05L5.7364 92.3867L8.35413 92.2783L8.39428 93.262ZM4.75275 90.0862C4.70858 88.9821 3.86946 88.1751 2.72521 88.2232C1.60505 88.2714 0.826158 89.1105 0.870322 90.2508C0.890397 91.0096 0.93456 91.8045 0.966679 92.5995L4.84509 92.4389L4.74873 90.0902L4.75275 90.0862Z" fill="#7C6C55"></path>
<path d="M6.23425 83.5419L8.20156 84.658L8.12929 85.6898L8.00081 85.6818L0.127564 81.2413L0.159681 80.7916L8.57495 77.5436L8.70342 77.5516L8.63116 78.5714L6.52734 79.3985L6.23425 83.5459V83.5419ZM5.41119 83.1484L5.66012 79.6675L1.68937 81.1369L5.41521 83.1524L5.41119 83.1484Z" fill="#7C6C55"></path>
<path d="M2.63689 69.4214L1.95837 73.1954L4.62025 73.6732L5.27469 70.0276L6.12183 70.1802L5.4674 73.8258L8.35011 74.3437L9.05272 70.4412L9.94805 70.6018L9.06878 75.4879L0.938576 74.0265L1.79375 69.2688L2.6409 69.4214H2.63689Z" fill="#7C6C55"></path>
<path d="M7.70371 62.2427C8.22967 61.4076 9.0728 61.0824 10.0163 61.3554C11.4536 61.773 11.9475 63.0417 11.5139 64.5352L10.5101 67.9921L2.57666 65.6875L3.48403 62.576C3.90158 61.1386 4.86115 60.2553 6.36674 60.693C7.10147 60.9058 7.63546 61.4438 7.70773 62.2467L7.70371 62.2427ZM3.68879 64.9729L6.33061 65.7397L6.90073 63.7804C7.19783 62.7647 7.07337 61.9255 6.11782 61.6485C5.1703 61.3594 4.56806 61.9416 4.29906 62.8771L3.68879 64.9769V64.9729ZM7.71576 64.0173L7.14564 65.9766L9.94404 66.7916L10.6145 64.4871C10.9116 63.4713 10.6948 62.6081 9.73526 62.315C8.62714 61.9416 8.02892 62.9453 7.71576 64.0173Z" fill="#7C6C55"></path>
<path d="M8.16543 52.3178L6.71203 55.867L9.21332 56.8908L10.6145 53.4621L11.4135 53.7873L10.0123 57.216L12.7224 58.3242L14.2239 54.6545L15.0671 54.9998L13.1881 59.5929L5.54369 56.4653L7.37449 51.9926L8.17346 52.3178H8.16543Z" fill="#7C6C55"></path>
<path d="M15.1674 52.6752C15.5649 51.9164 15.2036 51.547 14.517 51.0531L9.52247 47.5441C10.2411 46.2192 11.1204 44.6012 11.8511 43.2562L18.3633 46.7933L18.7929 46.0024L20.7201 47.0503L20.3105 47.8011L19.1302 47.1587C18.1385 48.9855 17.199 50.7159 16.1993 52.5547L17.3797 53.1971L16.9661 53.9599L15.039 52.9121L15.1634 52.6832L15.1674 52.6752ZM15.0309 50.21C15.4043 50.467 15.8781 50.8484 15.9142 51.3262L17.9136 47.6445L12.1482 44.5128L10.6908 47.1948L15.0269 50.214L15.0309 50.21Z" fill="#7C6C55"></path>
<path d="M23.3579 40.8231L20.8245 39.0485C19.4072 41.855 17.5724 42.7905 14.77 40.8272L13.7743 40.1286L14.3444 39.3095L15.3401 40.0081C17.5925 41.586 18.9093 40.8553 20.0697 38.5186L16.5968 36.0896L17.1629 35.2826L23.92 40.0121L23.3539 40.8191L23.3579 40.8231Z" fill="#7C6C55"></path>
<path d="M23.386 29.0956L20.8847 32.0024L22.9323 33.7649L25.3493 30.9585L26.0037 31.5206L23.5867 34.327L25.803 36.2381L28.3926 33.2349L29.0791 33.8292L25.8391 37.5911L19.5798 32.1991L22.7356 28.5375L23.39 29.0996L23.386 29.0956Z" fill="#7C6C55"></path>
<path d="M27.9108 23.2498C29.0872 22.1578 30.8377 21.7081 32.3754 22.6315L31.6688 23.286C30.5325 22.8122 29.4043 23.1013 28.5291 23.9163C27.1038 25.1931 27.1359 27.1122 28.4448 28.5214C29.7135 29.8865 31.6326 30.0873 33.0338 28.7864C33.9653 27.9232 34.3226 26.7187 33.8328 25.5464L34.5394 24.8919C35.4508 26.5742 34.8807 28.3127 33.6601 29.4449C31.9618 31.0187 29.4726 31.1111 27.706 29.208C25.9475 27.3129 26.1723 24.8157 27.9108 23.2498Z" fill="#7C6C55"></path>
<path d="M36.4385 21.1099C37.0809 20.6402 37.659 20.2065 37.8276 19.8091C38.0685 19.255 37.7835 18.3356 37.4984 17.5808C37.113 16.5048 37.1411 15.5934 38.5624 14.9068L38.9518 15.4408C38.1328 15.9066 38.0685 16.4486 38.3737 17.2917C38.6708 18.1268 38.9478 18.99 38.7752 19.7408L43.5128 21.3307L43.5971 21.4471L42.6857 22.1096L38.3134 20.5759C38.0364 20.9373 37.2977 21.5034 36.9243 21.7764L39.0763 24.7354L38.2813 25.3135L33.4233 18.6327L34.2222 18.0545L36.4425 21.1099H36.4385Z" fill="#7C6C55"></path>
<path d="M45.3315 18.0264L45.4881 20.2828L44.5888 20.7887L44.5245 20.6763L43.8821 11.6588L44.2756 11.438L51.6269 16.6654L51.6911 16.7778L50.7998 17.2797L48.949 15.9788L45.3315 18.0224V18.0264ZM45.203 17.1231L48.2423 15.4087L44.8256 12.9034L45.203 17.1231Z" fill="#7C6C55"></path>
<path d="M53.8632 12.4056C52.6708 12.6023 51.5546 12.0603 51.0608 10.8959C50.4746 9.50277 51.0688 8.00922 52.6427 7.34676L55.694 6.06199L58.9019 13.6783L57.9825 14.0637L56.8182 11.3015L54.8147 12.1446L53.8873 15.7861L52.8916 16.2037L52.8354 16.0712L53.8552 12.4015L53.8632 12.4056ZM56.505 10.5105L55.1279 7.24639L52.9839 8.14974C52.0003 8.56328 51.5305 9.53088 51.9441 10.5105C52.3616 11.5022 53.3774 11.8274 54.3611 11.4139L56.505 10.5105Z" fill="#7C6C55"></path>
<path d="M65.4543 6.38719L67.7388 5.83715C69.6218 5.38347 70.7941 6.14228 71.1354 7.55554C71.4686 8.9447 70.7781 10.2295 68.9111 10.6912C67.8472 10.9481 66.7431 11.2131 65.6791 11.4701C65.0327 8.7841 64.3903 6.12221 63.7399 3.44025L69.0958 2.14744L69.3006 2.99459L64.8922 4.05854L65.4543 6.38719ZM65.655 7.21427L66.4219 10.3941C67.1727 10.2134 67.9676 10.0207 68.6943 9.84404C69.943 9.54292 70.4127 8.76001 70.1798 7.79643C69.967 6.91315 69.1761 6.3631 67.9275 6.66422L65.655 7.21427Z" fill="#7C6C55"></path>
<path d="M74.4276 9.55496L74.1104 9.59511L73.1027 1.36855L74.0904 1.2481L74.5601 5.09038L74.7408 7.45918L79.3539 0.589655L79.6952 0.549503L80.7029 8.77607L79.7233 8.89652L79.2415 4.94985L79.0488 2.68945L74.4236 9.55898L74.4276 9.55496Z" fill="#7C6C55"></path>
<path d="M84.7138 3.60887L87.0626 3.59281C88.9978 3.58077 89.9653 4.58851 89.9774 6.04191C89.9854 7.47122 89.0218 8.56328 87.0987 8.58737C86.0066 8.5954 84.8664 8.60343 83.7743 8.60745C83.7543 5.84518 83.7382 3.10701 83.7181 0.344745L89.2266 0.308609V1.17985L84.6978 1.21197L84.7138 3.60887ZM84.7178 4.46004L84.7379 7.72818C85.5088 7.72416 86.3278 7.71613 87.0786 7.71212C88.3594 7.70409 88.9977 7.04966 88.9897 6.05797C88.9857 5.1506 88.3393 4.43193 87.0545 4.43996L84.7138 4.45602L84.7178 4.46004Z" fill="#7C6C55"></path>
<path d="M94.2412 6.87701C93.9 8.50305 93.2576 9.03704 91.5272 8.57934L91.6155 7.85264C92.7075 8.14573 93.0448 7.67197 93.2656 6.7124L94.6106 0.625788C96.1564 0.790399 98.1036 0.999177 99.6292 1.16379L98.75 9.37831L97.7703 9.27392L98.5573 1.93867L95.3815 1.5974L94.2412 6.87701Z" fill="#7C6C55"></path>
<path d="M102.074 9.96047L101.761 9.8882L103.628 1.8142L104.6 2.03904L103.728 5.80905L103.09 8.09755L109.775 3.22344L110.112 3.29972L108.245 11.3737L107.286 11.1529L108.181 7.27851L108.771 5.09038L102.078 9.96449L102.074 9.96047Z" fill="#7C6C55"></path>
<path d="M114.577 13.6261C112.385 12.8151 111.2 10.639 112.112 8.17383C113.027 5.69261 115.364 4.82138 117.548 5.62837C119.732 6.43537 120.928 8.63956 120.017 11.0967C119.15 13.4414 116.926 14.4973 114.573 13.6261H114.577ZM114.894 12.7749C116.608 13.4093 118.391 12.6344 119.086 10.7514C119.78 8.86841 118.965 7.10586 117.239 6.46749C115.544 5.84117 113.754 6.61203 113.051 8.5151C112.357 10.3981 113.192 12.1406 114.894 12.7709V12.7749Z" fill="#7C6C55"></path>
<path d="M123.418 9.10931L123.815 8.31837L129.255 11.0606L128.858 11.8515L126.565 10.6992L123.245 17.2877L122.386 16.8541L125.706 10.2656L123.418 9.11332V9.10931Z" fill="#7C6C55"></path>
<path d="M135.474 15.8664L132.226 13.8268L130.789 16.1153L133.925 18.0867L133.467 18.8174L130.331 16.8461L128.774 19.3233L132.13 21.4351L131.648 22.206L127.445 19.5642L131.841 12.5702L135.932 15.1397L135.474 15.8704V15.8664Z" fill="#7C6C55"></path>
<path d="M137.369 20.7927C137.996 21.2825 138.574 21.7162 139.004 21.7683C139.606 21.8486 140.405 21.3227 141.055 20.8369C141.983 20.1664 142.866 19.9416 143.918 21.1219L143.512 21.6439C142.838 20.9814 142.3 21.0738 141.573 21.5997C140.854 22.1176 140.1 22.6195 139.329 22.6637L139.112 27.6582L139.024 27.7706L138.132 27.0761L138.397 22.4469C137.972 22.2782 137.225 21.7282 136.86 21.4431L134.611 24.3299L133.832 23.7236L138.911 17.2074L139.69 17.8136L137.369 20.7927Z" fill="#7C6C55"></path>
<path d="M142.802 28.4813L140.678 29.2602L139.939 28.5375L140.031 28.4452L148.507 25.3095L148.828 25.6267L145.861 34.1503L145.769 34.2427L145.038 33.528L145.769 31.3881L142.798 28.4853L142.802 28.4813ZM143.633 28.1039L146.13 30.545L147.579 26.5662L143.633 28.1079V28.1039Z" fill="#7C6C55"></path>
<path d="M149.908 39.1891L149.719 38.9281L156.428 34.07L157.014 34.877L153.879 37.1455L151.895 38.4503L160.138 39.165L160.339 39.442L153.63 44.3001L153.052 43.5011L156.272 41.1684L158.155 39.9077L149.904 39.181L149.908 39.1891Z" fill="#7C6C55"></path>
<path d="M166 49.2585L166.181 49.5917L158.914 53.5464L158.436 52.6712L163.671 49.8206L159.09 49.2063L159.018 49.0698L160.989 44.8903L155.754 47.7408L155.276 46.8656L162.543 42.9109L162.732 43.2562L160.315 48.4635L166.004 49.2625L166 49.2585Z" fill="#7C6C55"></path>
<path d="M168.81 58.0672L167.377 54.51L164.872 55.5218L166.257 58.9585L165.458 59.2797L164.073 55.8429L161.359 56.939L162.84 60.6167L161.997 60.958L160.142 56.3569L167.803 53.2694L169.609 57.75L168.81 58.0712V58.0672Z" fill="#7C6C55"></path>
<path d="M164.35 68.6425L168.076 67.5866L166.879 63.3589L163.153 64.4148L162.884 63.4673L170.834 61.2149L171.103 62.1624L167.754 63.1099L168.951 67.3377L172.299 66.3861L172.572 67.3457L164.623 69.5981L164.35 68.6385V68.6425Z" fill="#7C6C55"></path>
<path d="M165.325 72.9023L165.277 72.5851L173.46 71.2964L173.616 72.28L169.794 72.8822L167.433 73.1472L174.455 77.5235L174.507 77.8648L166.325 79.1535L166.172 78.1779L170.103 77.5596L172.355 77.2906L165.333 72.9023H165.325Z" fill="#7C6C55"></path>
<path d="M166.803 86.2359L175.094 86.3724L175.078 87.3681L171.207 87.3038L168.838 87.1593L175.001 92.6758V93.0211L166.71 92.8846L166.727 91.9009L170.701 91.9692L172.966 92.0896L166.803 86.5611V86.2359Z" fill="#7C6C55"></path>
<path d="M166.871 95.7472C167.236 95.7833 167.405 96.0764 167.373 96.4057C167.337 96.7469 167.112 96.9999 166.747 96.9637C166.429 96.9316 166.225 96.6345 166.257 96.2932C166.289 95.964 166.554 95.7151 166.871 95.7472Z" fill="#7C6C55"></path>
<path d="M165.936 100.039L165.996 99.726L174.134 101.276L173.949 102.255L170.147 101.533L167.839 100.983L172.97 107.471L172.906 107.808L164.767 106.258L164.952 105.291L168.858 106.033L171.071 106.539L165.94 100.039H165.936Z" fill="#7C6C55"></path>
<path d="M164.438 109.093C164.791 109.193 164.908 109.51 164.819 109.828C164.727 110.161 164.458 110.366 164.109 110.269C163.804 110.181 163.647 109.856 163.743 109.526C163.832 109.205 164.133 109.008 164.442 109.093H164.438Z" fill="#7C6C55"></path>
<path d="M165.297 118.821C164.711 119.616 163.848 119.881 162.928 119.54C161.523 119.018 161.126 117.717 161.664 116.259L162.916 112.887L170.661 115.762L169.533 118.801C169.011 120.202 167.995 121.017 166.522 120.471C165.803 120.206 165.309 119.628 165.293 118.825L165.297 118.821ZM165.414 117.054L166.124 115.139L163.39 114.128L162.555 116.376C162.19 117.368 162.338 118.247 163.278 118.608C164.358 119.058 165.024 118.102 165.414 117.058V117.054ZM169.497 116.392L166.919 115.436L166.209 117.351C165.843 118.343 165.904 119.19 166.835 119.536C167.758 119.893 168.401 119.355 168.738 118.444L169.497 116.396V116.392Z" fill="#7C6C55"></path>
<path d="M161.033 122.884L159.656 121.089L160.126 120.17L160.242 120.23L165.767 127.385L165.562 127.786L156.545 127.501L156.428 127.441L156.89 126.53L159.15 126.59L161.033 122.888V122.884ZM161.64 123.567L160.058 126.678L164.29 126.871L161.64 123.567Z" fill="#7C6C55"></path>
<path d="M160.218 136.92C159.323 138.249 157.721 139.092 156.015 138.542L156.553 137.743C157.769 137.944 158.797 137.406 159.468 136.41C160.564 134.844 160.094 132.982 158.496 131.91C156.95 130.87 155.035 131.115 153.967 132.701C153.256 133.756 153.184 135.005 153.927 136.037L153.389 136.836C152.116 135.407 152.277 133.584 153.204 132.207C154.497 130.284 156.902 129.625 159.054 131.074C161.198 132.516 161.551 134.997 160.214 136.92H160.218Z" fill="#7C6C55"></path>
<path d="M149.454 137.522L149.663 137.282L155.922 142.71L155.268 143.464L152.345 140.927L150.623 139.293L151.799 147.479L151.574 147.74L145.315 142.312L145.961 141.569L148.965 144.175L150.623 145.721L149.454 137.522Z" fill="#7C6C55"></path>
<path d="M143.308 147.07C142.324 145.733 142.352 144.894 143.846 143.91L144.327 144.46C143.38 145.079 143.508 145.645 144.078 146.452L147.72 151.51C146.564 152.554 145.11 153.867 143.974 154.891L138.437 148.76L139.168 148.102L144.111 153.578L146.479 151.438L143.304 147.07H143.308Z" fill="#7C6C55"></path>
<path d="M136.434 159.48L139.542 157.236L137.96 155.044L134.957 157.212L134.451 156.513L137.454 154.345L135.739 151.972L132.523 154.293L131.993 153.554L136.016 150.651L140.854 157.348L136.936 160.175L136.43 159.476L136.434 159.48ZM138.987 160.315C139.18 160.584 139.104 160.901 138.835 161.094C138.574 161.283 138.241 161.263 138.044 160.994C137.859 160.737 137.944 160.411 138.205 160.223C138.474 160.03 138.799 160.054 138.987 160.311V160.315ZM141.252 158.681C141.445 158.95 141.356 159.275 141.099 159.46C140.83 159.653 140.493 159.637 140.3 159.368C140.116 159.111 140.2 158.785 140.469 158.589C140.73 158.4 141.063 158.42 141.252 158.677V158.681Z" fill="#7C6C55"></path>
<path d="M127.802 161.122C126.842 161.359 126.011 161.006 125.525 160.155C124.779 158.854 125.309 157.601 126.658 156.826L129.781 155.04L133.885 162.21L131.07 163.82C129.773 164.563 128.468 164.535 127.69 163.174C127.308 162.507 127.3 161.752 127.802 161.122ZM129.022 159.837L130.793 158.822L129.344 156.292L127.264 157.485C126.349 158.011 125.899 158.781 126.389 159.661C126.927 160.697 128.055 160.395 129.022 159.841V159.837ZM132.584 161.945L131.219 159.56L129.448 160.576C128.533 161.102 128.035 161.793 128.529 162.652C129.01 163.519 129.846 163.515 130.689 163.033L132.584 161.949V161.945Z" fill="#7C6C55"></path>
<path d="M121.924 161.512L122.016 159.251L122.964 158.846L123.016 158.966L122.675 167.996L122.261 168.172L115.52 162.178L115.468 162.058L116.408 161.656L118.106 163.15L121.924 161.512ZM121.952 162.423L118.744 163.8L121.868 166.659L121.952 162.423Z" fill="#7C6C55"></path>
<path d="M69.0757 162.054H66.9237V178.539H69.0757V162.054Z" fill="#7C6C55"></path>
<path d="M72.8538 162.054H70.7018V178.539H72.8538V162.054Z" fill="#7C6C55"></path>
<path d="M86.9301 162.054H84.7781V178.539H86.9301V162.054Z" fill="#7C6C55"></path>
<path d="M90.8848 162.054H88.7328V167.245H90.8848V162.054Z" fill="#7C6C55"></path>
<path d="M90.8848 170.561H88.7328V178.539H90.8848V170.561Z" fill="#7C6C55"></path>
<path d="M104.23 162.054H102.078V178.539H104.23V162.054Z" fill="#7C6C55"></path>
<path d="M108.185 162.054H106.033V167.245H108.185V162.054Z" fill="#7C6C55"></path>
<path d="M108.185 170.561H106.033V178.539H108.185V170.561Z" fill="#7C6C55"></path>
<path d="M72.8538 162.029H66.9237V162.335H72.8538V162.029Z" fill="#7C6C55"></path>
<path d="M108.185 162.033H102.078V162.331H108.185V162.033Z" fill="#7C6C55"></path>
<path d="M108.185 178.39H102.078V178.687H108.185V178.39Z" fill="#7C6C55"></path>
<path d="M106.696 170.83C106.587 170.818 104.01 170.505 104.01 168.891C104.01 167.462 106.579 166.948 106.687 166.928L106.716 167.076C106.692 167.08 104.162 167.586 104.162 168.891C104.162 170.368 106.687 170.678 106.712 170.678L106.696 170.83Z" fill="#7C6C55"></path>
<path d="M89.3471 170.83C89.2387 170.818 86.6611 170.505 86.6611 168.891C86.6611 167.462 89.2306 166.948 89.339 166.928L89.3671 167.076C89.343 167.08 86.8136 167.586 86.8136 168.891C86.8136 170.368 89.335 170.678 89.3631 170.678L89.3471 170.83Z" fill="#7C6C55"></path>
<path d="M79.3338 162.094C78.5831 161.961 77.8122 162.25 77.3344 162.848C76.9811 163.29 76.6238 163.904 76.5274 164.647C76.3989 165.627 76.427 167.514 76.4672 168.839C76.4953 169.754 76.692 170.658 77.0453 171.505C77.6034 172.838 78.4225 174.913 78.5389 175.861C78.7155 177.31 78.2819 177.969 78.0692 178.109C77.9086 178.218 78.0772 176.616 77.9648 176.343C77.7279 175.789 76.7282 175.648 76.2383 176.098C75.7927 176.507 75.5157 178.483 77.9286 178.543C80.3416 178.603 81.4939 176.953 81.6585 176.214C81.8231 175.475 81.9275 170.882 81.9275 170.882L80.0083 170.906L79.8759 175.624C79.8598 176.282 79.8478 176.949 79.5185 177.519C79.4061 177.712 79.3419 177.812 79.1291 178.013C78.828 178.294 78.3984 178.282 78.2819 178.294C78.2458 178.294 78.2338 178.254 78.2619 178.234C78.5389 178.045 79.0086 177.202 79.0448 176.58C79.1291 175.214 78.2659 169.61 78.2057 168.927C78.1454 168.245 78.0691 163.792 78.0772 163.306C78.0892 162.628 79.3459 162.407 79.5426 163.214C79.9481 164.872 79.8598 167.249 79.8598 167.249H81.783C81.783 167.249 81.8311 163.977 80.5825 162.696C80.2452 162.351 79.7715 162.182 79.3298 162.102L79.3338 162.094Z" fill="#7C6C55"></path>
<path d="M99.2157 169.056C98.5332 166.703 97.5455 164.467 97.4492 163.503C97.3568 162.539 97.3769 161.949 97.3769 161.949C97.3769 161.949 94.2693 162.339 93.8719 167.004C93.4704 171.669 95.7308 175.953 95.9195 176.824C96.1082 177.696 95.9436 178.659 95.9436 178.659C95.9436 178.659 98.4047 176.925 98.9909 175.74C99.8621 173.986 99.8982 171.408 99.2157 169.056ZM98.4288 174.163C98.2682 175.512 97.674 176.604 97.3006 177.13C97.2444 177.21 97.1159 177.186 97.0958 177.085C96.9754 176.487 96.5859 174.729 95.5099 170.754C94.177 165.836 95.5822 163.684 95.5822 163.684C95.5822 163.684 96.06 162.909 95.9917 163.286C95.9195 163.664 96.0078 165.137 96.321 166.145C96.6341 167.157 98.7701 171.308 98.4288 174.159V174.163Z" fill="#7C6C55"></path>
<path d="M87.5564 159.199C68.4655 159.199 50.5188 151.763 37.0166 138.265C23.5185 124.767 16.0828 106.816 16.0828 87.7254C16.0828 68.6345 23.5185 50.6878 37.0166 37.1856C50.5148 23.6875 68.4655 16.2518 87.5564 16.2518C106.647 16.2518 124.594 23.6875 138.096 37.1856C151.594 50.6838 159.03 68.6345 159.03 87.7254C159.03 106.816 151.594 124.763 138.096 138.265C124.598 151.763 106.647 159.199 87.5564 159.199ZM87.5564 19.0141C49.6676 19.0141 18.8451 49.8366 18.8451 87.7254C18.8451 125.614 49.6676 156.437 87.5564 156.437C125.445 156.437 156.268 125.614 156.268 87.7254C156.268 49.8366 125.445 19.0141 87.5564 19.0141Z" fill="#7C6C55"></path>
<path d="M124.923 84.3127C123.859 80.6029 122.097 77.2023 120.049 73.9462C119.76 73.4885 119.439 72.9264 119.455 72.4246C119.507 70.7383 119.921 69.04 119.78 67.3818C119.664 66.0167 120.298 64.997 120.611 63.8206C120.864 62.8811 121.165 61.8613 121.037 60.9298C120.832 59.4323 120.495 57.8825 119.86 56.5215C117.732 51.9565 116.155 47.2189 114.906 42.3528C114.143 39.3697 112.421 37.1294 109.663 35.6881C107.298 34.4515 105.005 33.0743 102.62 31.8779C97.7743 29.4489 92.6232 28.4652 87.2111 28.8988C82.3892 29.2843 77.5753 29.7339 72.7453 30.015C69.2323 30.2197 66.2452 31.5246 63.7479 33.9175C59.737 37.7598 55.8305 41.7064 51.8196 45.5447C48.5675 48.6603 46.544 52.3219 45.9217 56.8427C45.3636 60.9138 44.7694 65.0211 43.7014 68.9798C41.7422 76.2427 42.9788 82.8754 46.9575 89.0704C48.6478 91.7002 50.7677 94.0489 52.478 96.6666C54.0479 99.0716 55.9389 101.071 58.2957 102.685C59.1709 103.283 59.99 103.986 60.7729 104.704C61.9051 105.74 62.1379 107.033 61.4755 108.398C61.0138 109.354 60.4517 110.277 59.8294 111.132C58.392 113.104 57.2237 115.199 56.5211 117.544C55.7422 120.146 54.4253 122.402 52.4901 124.354C50.9885 125.867 49.6917 127.581 49.0613 129.697C48.1781 132.652 49.6515 134.379 52.6587 133.825C53.8431 133.604 54.9874 133.19 56.1557 132.885C58.0066 132.399 59.8414 131.625 61.7164 131.512C66.2372 131.239 70.766 131.588 75.1623 132.705C79.3619 133.768 83.4853 135.118 87.6407 136.346C90.9088 137.314 94.1489 138.402 97.4612 139.201C98.9708 139.566 100.629 139.514 102.195 139.381C103.323 139.285 103.536 138.45 102.697 137.679C101.866 136.916 100.938 136.218 99.9544 135.668C96.2888 133.62 92.567 131.669 88.8974 129.633C88.0342 129.155 87.2111 128.553 86.4924 127.879C85.7256 127.16 85.9384 126.505 86.9622 126.321C87.6849 126.188 88.4477 126.148 89.1744 126.228C92.2016 126.562 94.5664 128.152 96.5418 130.356C98.1638 132.163 100.123 132.604 102.444 132.195C103.765 131.962 105.126 131.962 106.471 131.889C107.238 131.849 107.591 132.299 107.755 133.026C108.217 135.037 108.759 137.029 109.205 139.04C109.357 139.731 109.707 140.064 110.357 140.257C112.878 141.003 115.392 141.79 117.905 142.557C119.595 143.075 121.286 143.585 123.237 144.183C123.016 143.746 122.936 143.549 122.823 143.372C120.105 139.156 117.379 134.945 114.665 130.725C113.653 129.151 112.413 127.67 112.742 125.57C113.208 122.643 112.381 120.319 109.582 118.901C108.711 118.46 108.478 117.604 108.711 116.693C108.932 115.834 109.502 115.28 110.445 115.199C112.104 115.063 113.778 115.011 115.42 114.758C119.27 114.168 121.611 110.193 120.166 106.905C119.387 105.134 120.077 103.857 121.394 102.669C122.763 101.436 123.153 99.8585 122.47 98.1281C122.129 97.2568 122.137 96.4779 122.558 95.6709C123.249 94.342 123.394 92.9769 122.839 91.5516C122.659 91.0899 122.583 90.588 122.422 90.1223C122.057 89.0664 122.394 88.3839 123.381 87.8539C124.927 87.0188 125.393 86.003 124.907 84.3127H124.923ZM106.314 37.8441C108.322 38.354 110.156 39.3015 111.232 41.3049C108.33 40.0724 105.632 38.2335 102.191 38.7354C103.403 37.4586 104.921 37.4908 106.314 37.8441ZM66.1087 85.8103C66.4821 86.0713 66.8876 86.2961 67.2208 86.6052C67.4176 86.7859 67.4697 87.1151 67.6303 87.344C68.2005 88.147 68.8428 88.0586 69.3608 87.2195C69.5816 86.8582 70.0634 86.3925 70.3765 86.4286C70.7499 86.4728 71.1193 86.9626 71.3843 87.336C71.581 87.609 71.565 88.0225 71.7215 88.3397C72.1712 89.2551 72.7935 89.9376 73.9458 89.8092C74.1586 89.7851 74.3714 89.7931 74.5842 89.7931C76.9369 89.757 78.3261 91.1541 78.302 93.539C78.2859 95.2494 76.9128 96.3414 75.3791 95.6268C74.3794 95.157 73.4038 94.3179 72.7935 93.3985C71.9223 92.0816 70.9507 91.106 69.4009 90.7165C67.5621 90.2548 66.6306 88.8135 65.92 87.2356C65.7554 86.8662 66.0364 86.2961 66.1127 85.8223L66.1087 85.8103ZM80.3737 106.142C82.1924 108.607 84.7178 110.205 87.2231 111.839C87.6608 112.124 88.0904 112.413 88.524 112.702C88.4959 112.787 88.4678 112.871 88.4397 112.951C88.0221 112.951 87.5765 113.043 87.187 112.935C84.216 112.108 81.2048 111.397 78.31 110.349C74.9375 109.133 73.8976 106.965 74.7287 103.444C74.8692 102.842 75.4554 101.922 75.8649 101.906C76.5113 101.882 77.3224 102.364 77.8082 102.874C78.7557 103.873 79.5506 105.022 80.3737 106.138V106.142ZM69.6779 93.274C68.6903 93.7117 67.8471 93.1496 67.1767 92.728C66.0324 92.0093 65.3258 90.8651 65.0206 89.3354C66.6346 90.7005 68.1041 91.9451 69.6779 93.274ZM103.58 120.218C103.251 120.973 102.809 121.684 102.375 122.39C101.797 123.326 101.175 124.233 100.569 125.152C99.9906 126.028 99.3121 126.726 98.3485 126.522C88.6364 125.602 79.5547 123.37 71.5449 117.942C69.951 116.862 68.5016 115.46 67.2971 113.959C66.5262 112.999 66.193 111.614 65.916 110.366C65.6952 109.366 66.2372 109.037 67.265 109.294C67.4015 109.33 67.534 109.382 67.6665 109.438C74.8933 112.598 82.4735 114.633 90.1219 116.408C94.2653 117.368 98.4689 118.074 102.648 118.865C103.468 119.022 103.953 119.367 103.584 120.222L103.58 120.218ZM121.077 86.5932C119.463 86.1315 118.05 86.2479 116.781 87.352C115.777 88.2233 114.725 87.7897 113.501 87.4404C114.464 88.9901 115.251 89.3193 116.717 88.9299C116.753 88.9219 116.785 88.9138 116.821 88.9018C119.796 88.0667 121.599 89.4438 121.683 92.5634C121.707 93.4346 121.378 93.9806 120.631 94.35C118.628 95.3457 116.644 96.3776 114.625 97.3291C114.179 97.5379 113.589 97.6021 113.103 97.5178C111.983 97.3291 111.509 97.6061 111.401 98.7544C111.353 99.2603 111.393 99.7782 111.393 100.36C112.834 99.8826 114.035 99.3807 115.287 99.0957C116.917 98.7263 118.56 98.9431 120.081 99.6136C120.511 99.8023 120.756 100.405 121.085 100.814C120.704 101.111 120.358 101.589 119.933 101.669C119.001 101.846 118.03 101.886 117.078 101.866C116.275 101.85 115.821 102.199 115.508 102.882C114.697 104.664 115.291 106.411 117.066 107.282C117.897 107.692 118.893 107.945 118.833 109.133C118.764 110.438 118.122 111.486 116.95 112.04C114.561 113.164 112.003 113.505 109.466 112.774C107.29 112.148 105.25 111.044 103.078 110.406C99.9504 109.49 96.7626 108.784 93.5908 108.025C89.7726 107.113 86.4161 105.335 83.5214 102.693C82.6622 101.91 81.7869 101.115 81.0763 100.204C79.8999 98.6982 79.37 97.04 79.7915 95.0285C80.201 93.0652 79.6068 91.1662 78.6834 89.3755C78.3863 88.8054 78.3542 88.0988 78.2378 87.621C79.2053 87.5809 79.9923 87.7415 80.6025 87.4845C81.9516 86.9104 82.879 85.8143 83.4692 84.4613C83.5415 84.3007 83.5535 84.112 83.6338 83.9554C84.3525 82.5381 84.3204 81.3818 83.6097 79.7357C82.6341 77.4834 81.9235 74.8656 82.6502 72.272C82.9192 71.3044 83.417 70.3729 83.955 69.5137C84.9708 67.8957 86.3519 66.4825 86.7132 64.5112C86.8217 63.925 86.9341 63.3067 86.8698 62.7245C86.6611 60.7893 87.2914 59.1151 88.1626 57.4329C89.6803 54.4979 90.684 51.3944 90.5555 48.0339C90.5234 47.1707 90.2946 46.2995 90.0577 45.4564C89.8529 44.7337 89.8409 44.2278 90.7763 44.276C93.1612 44.3924 95.4136 43.754 97.6981 43.204C104.921 41.4655 112.156 44.3683 116.303 51.5831C117.753 54.1085 118.226 56.9069 118.853 59.6732C119.073 60.6568 118.704 61.5 117.893 62.1183C115.111 64.2381 114.513 69.8952 117.564 72.4687C118.929 73.617 119.917 75.0905 120.643 76.7687C121.462 78.6597 122.518 80.4464 123.45 82.2852C123.675 82.7268 123.871 83.1926 123.992 83.6703C124.554 85.9026 123.285 87.2235 121.073 86.5932H121.077ZM118.315 67.8074C117.672 68.0804 116.97 68.2169 116.187 68.4297C116.347 67.3577 117.7 66.4423 118.287 66.8398C118.455 66.9522 118.431 67.7552 118.315 67.8074Z" fill="#7C6C55"></path>
<path d="M109.984 61.5401C108.225 61.7087 106.435 61.8412 104.68 61.6927C102.484 61.508 100.729 62.3592 99.027 63.5155C98.8303 63.652 98.7419 63.9491 98.6014 64.1699L98.766 64.4549C99.4004 64.2381 100.051 64.0615 100.665 63.8045C102.239 63.1461 103.845 62.9694 105.431 63.6399C105.844 63.8126 106.242 64.3666 106.338 64.8123C106.394 65.0773 105.905 65.547 105.563 65.7999C103.066 67.6548 100.545 69.4816 98.0353 71.3164C98.0072 71.3365 97.9711 71.3646 97.963 71.3927C97.8747 71.7741 97.7944 72.1556 97.7101 72.537C98.0875 72.6133 98.4689 72.7658 98.8423 72.7498C99.5008 72.7176 100.163 72.4727 100.814 72.5129C101.552 72.5571 101.737 72.2599 102.291 71.6738C102.889 71.0434 103.825 70.927 104.395 71.4128C105.194 72.0953 105.407 72.9344 104.443 74.1068C104.335 74.2393 104.427 74.5364 104.427 74.709C105.395 74.5645 106.246 74.3517 107.097 74.3357C107.695 74.3236 108.342 74.6047 108.683 73.894C109.012 73.2075 109.466 72.5129 108.683 71.7621C108.45 71.5413 108.293 70.9912 108.402 70.7062C108.735 69.8349 109.092 68.9235 109.658 68.2009C110.694 66.884 111.851 65.6795 112.22 63.9611C112.565 62.3632 111.594 61.3835 109.972 61.5401H109.984ZM103.849 69.1885C103.777 69.0761 103.708 68.9597 103.636 68.8473C104.022 68.5582 104.371 68.1326 104.804 68.0162C105.338 67.8757 106.061 67.3417 106.583 68.4458C105.587 68.7148 104.72 68.9517 103.849 69.1845V69.1885Z" fill="#7C6C55"></path>
</svg></svg></g></g></svg></g><g id="dark-icon"><svg xmlns="http://www.w3.org/2000/svg" version="1.1" xmlns:xlink="http://www.w3.org/1999/xlink" width="1000" height="1000"><g clip-path="url(#SvgjsClipPath1035)"><rect width="1000" height="1000" fill="#ffffff"></rect><g transform="matrix(5.027932960893855,0,0,5.027932960893855,57.541899441340775,50)"><svg xmlns="http://www.w3.org/2000/svg" version="1.1" xmlns:xlink="http://www.w3.org/1999/xlink" width="176" height="179"><svg width="176" height="179" viewBox="0 0 176 179" fill="none" xmlns="http://www.w3.org/2000/svg">
<path d="M59.2231 161.568L59.5162 161.696L56.236 169.305L55.3206 168.911L56.8543 165.358L57.8902 163.222L50.4425 166.823L50.1253 166.687L53.4055 159.079L54.3089 159.468L52.735 163.122L51.7594 165.169L59.2191 161.576L59.2231 161.568Z" fill="#7C6C55"></path>
<path d="M43.2759 163.041C41.8948 162.23 40.9553 160.684 41.3969 158.946L42.228 159.432C42.1035 160.656 42.7017 161.652 43.7376 162.258C45.3677 163.254 47.1985 162.672 48.1701 161.014C49.1136 159.404 48.7522 157.509 47.1021 156.545C46.006 155.903 44.7534 155.907 43.7697 156.714L42.9386 156.228C44.2836 154.871 46.1144 154.915 47.5518 155.758C49.5512 156.931 50.3542 159.287 49.0413 161.528C47.7324 163.756 45.2793 164.262 43.2799 163.049L43.2759 163.041Z" fill="#7C6C55"></path>
<path d="M38.6547 158.954L38.1368 159.673L33.2024 156.103L33.7204 155.385L35.8001 156.886L40.1242 150.908L40.9031 151.47L36.579 157.448L38.6587 158.95L38.6547 158.954Z" fill="#7C6C55"></path>
<path d="M33.7525 145.424C35.4669 147.014 35.7278 149.475 33.9372 151.406C32.1385 153.345 29.6492 153.257 27.9389 151.675C26.2326 150.093 25.9716 147.596 27.7502 145.677C29.4525 143.842 31.9096 143.721 33.7485 145.428L33.7525 145.424ZM33.1342 146.09C31.7932 144.846 29.85 144.882 28.4849 146.351C27.1198 147.821 27.2001 149.764 28.5492 151.013C29.8741 152.241 31.8253 152.213 33.2024 150.723C34.5675 149.254 34.4631 147.323 33.1302 146.086L33.1342 146.09Z" fill="#7C6C55"></path>
<path d="M28.8623 140.754L22.5629 146.102C21.8563 145.271 21.1095 144.408 20.4109 143.569C19.2586 142.212 19.4835 140.542 20.688 139.518C21.8844 138.502 23.5747 138.578 24.7109 139.919L26.2245 141.702L28.224 140.008L28.8623 140.758V140.754ZM24.0364 140.489C23.3217 139.646 22.1654 139.526 21.2902 140.265C20.435 140.991 20.3387 142.132 21.0734 143.003C21.5552 143.589 22.0811 144.187 22.595 144.793L25.554 142.28L24.0324 140.489H24.0364Z" fill="#7C6C55"></path>
<path d="M23.2695 133.853L23.4462 134.118L16.5526 138.719L15.9985 137.888L19.2185 135.74L21.25 134.511L13.0395 133.483L12.8468 133.198L19.7364 128.597L20.2824 129.416L16.9742 131.625L15.043 132.813L23.2575 133.853H23.2695Z" fill="#7C6C55"></path>
<path d="M13.7783 127.104C13.4169 126.397 13.0757 125.755 12.7103 125.53C12.2004 125.205 11.2489 125.341 10.4579 125.506C9.33377 125.719 8.43844 125.55 7.98476 124.036L8.57495 123.735C8.90819 124.618 9.43013 124.763 10.3134 124.594C11.1846 124.43 12.08 124.293 12.7986 124.578L15.1072 120.146L15.2317 120.082L15.7456 121.085L13.5494 125.165C13.8666 125.498 14.3082 126.313 14.517 126.722L17.7771 125.06L18.2268 125.939L10.8715 129.697L10.4218 128.818L13.7863 127.1L13.7783 127.104Z" fill="#7C6C55"></path>
<path d="M13.2122 114.573C14.0192 116.769 13.1279 119.082 10.6587 119.985C8.17747 120.897 5.99737 119.68 5.1984 117.496C4.39943 115.312 5.29878 112.971 7.75992 112.068C10.1086 111.209 12.353 112.22 13.2162 114.573H13.2122ZM12.361 114.886C11.7307 113.168 9.9882 112.317 8.10119 113.007C6.21819 113.698 5.40718 115.46 6.03752 117.191C6.65983 118.885 8.40632 119.748 10.3134 119.05C12.1964 118.359 12.9833 116.593 12.357 114.886H12.361Z" fill="#7C6C55"></path>
<path d="M6.86861 109.494L5.92912 105.752L6.72006 105.556L7.65955 109.298L6.86861 109.494Z" fill="#7C6C55"></path>
<path d="M4.96554 101.657C4.84509 100.87 4.72464 100.156 4.44761 99.8264C4.0662 99.3566 3.12269 99.188 2.31971 99.0916C1.1875 98.9391 0.392548 98.4974 0.436712 96.9155L1.09114 96.8152C1.12728 97.7587 1.57695 98.0638 2.46826 98.1803C3.34753 98.3007 4.23884 98.4533 4.82903 98.9511L8.42238 95.4782L8.5629 95.4581L8.73153 96.5743L5.359 99.7501C5.55172 100.164 5.71633 101.075 5.78458 101.537L9.40202 100.987L9.55057 101.962L1.38022 103.203L1.23167 102.227L4.96554 101.661V101.657Z" fill="#7C6C55"></path>
<path d="M8.39428 93.262L0.139607 93.6032C0.0954431 92.5112 0.0352177 91.375 0.00309839 90.2829C-0.0691701 88.5043 1.13129 87.3239 2.71317 87.2597C4.283 87.1954 5.56777 88.2955 5.64004 90.05L5.7364 92.3867L8.35413 92.2783L8.39428 93.262ZM4.75275 90.0862C4.70858 88.9821 3.86946 88.1751 2.72521 88.2232C1.60505 88.2714 0.826158 89.1105 0.870322 90.2508C0.890397 91.0096 0.93456 91.8045 0.966679 92.5995L4.84509 92.4389L4.74873 90.0902L4.75275 90.0862Z" fill="#7C6C55"></path>
<path d="M6.23425 83.5419L8.20156 84.658L8.12929 85.6898L8.00081 85.6818L0.127564 81.2413L0.159681 80.7916L8.57495 77.5436L8.70342 77.5516L8.63116 78.5714L6.52734 79.3985L6.23425 83.5459V83.5419ZM5.41119 83.1484L5.66012 79.6675L1.68937 81.1369L5.41521 83.1524L5.41119 83.1484Z" fill="#7C6C55"></path>
<path d="M2.63689 69.4214L1.95837 73.1954L4.62025 73.6732L5.27469 70.0276L6.12183 70.1802L5.4674 73.8258L8.35011 74.3437L9.05272 70.4412L9.94805 70.6018L9.06878 75.4879L0.938576 74.0265L1.79375 69.2688L2.6409 69.4214H2.63689Z" fill="#7C6C55"></path>
<path d="M7.70371 62.2427C8.22967 61.4076 9.0728 61.0824 10.0163 61.3554C11.4536 61.773 11.9475 63.0417 11.5139 64.5352L10.5101 67.9921L2.57666 65.6875L3.48403 62.576C3.90158 61.1386 4.86115 60.2553 6.36674 60.693C7.10147 60.9058 7.63546 61.4438 7.70773 62.2467L7.70371 62.2427ZM3.68879 64.9729L6.33061 65.7397L6.90073 63.7804C7.19783 62.7647 7.07337 61.9255 6.11782 61.6485C5.1703 61.3594 4.56806 61.9416 4.29906 62.8771L3.68879 64.9769V64.9729ZM7.71576 64.0173L7.14564 65.9766L9.94404 66.7916L10.6145 64.4871C10.9116 63.4713 10.6948 62.6081 9.73526 62.315C8.62714 61.9416 8.02892 62.9453 7.71576 64.0173Z" fill="#7C6C55"></path>
<path d="M8.16543 52.3178L6.71203 55.867L9.21332 56.8908L10.6145 53.4621L11.4135 53.7873L10.0123 57.216L12.7224 58.3242L14.2239 54.6545L15.0671 54.9998L13.1881 59.5929L5.54369 56.4653L7.37449 51.9926L8.17346 52.3178H8.16543Z" fill="#7C6C55"></path>
<path d="M15.1674 52.6752C15.5649 51.9164 15.2036 51.547 14.517 51.0531L9.52247 47.5441C10.2411 46.2192 11.1204 44.6012 11.8511 43.2562L18.3633 46.7933L18.7929 46.0024L20.7201 47.0503L20.3105 47.8011L19.1302 47.1587C18.1385 48.9855 17.199 50.7159 16.1993 52.5547L17.3797 53.1971L16.9661 53.9599L15.039 52.9121L15.1634 52.6832L15.1674 52.6752ZM15.0309 50.21C15.4043 50.467 15.8781 50.8484 15.9142 51.3262L17.9136 47.6445L12.1482 44.5128L10.6908 47.1948L15.0269 50.214L15.0309 50.21Z" fill="#7C6C55"></path>
<path d="M23.3579 40.8231L20.8245 39.0485C19.4072 41.855 17.5724 42.7905 14.77 40.8272L13.7743 40.1286L14.3444 39.3095L15.3401 40.0081C17.5925 41.586 18.9093 40.8553 20.0697 38.5186L16.5968 36.0896L17.1629 35.2826L23.92 40.0121L23.3539 40.8191L23.3579 40.8231Z" fill="#7C6C55"></path>
<path d="M23.386 29.0956L20.8847 32.0024L22.9323 33.7649L25.3493 30.9585L26.0037 31.5206L23.5867 34.327L25.803 36.2381L28.3926 33.2349L29.0791 33.8292L25.8391 37.5911L19.5798 32.1991L22.7356 28.5375L23.39 29.0996L23.386 29.0956Z" fill="#7C6C55"></path>
<path d="M27.9108 23.2498C29.0872 22.1578 30.8377 21.7081 32.3754 22.6315L31.6688 23.286C30.5325 22.8122 29.4043 23.1013 28.5291 23.9163C27.1038 25.1931 27.1359 27.1122 28.4448 28.5214C29.7135 29.8865 31.6326 30.0873 33.0338 28.7864C33.9653 27.9232 34.3226 26.7187 33.8328 25.5464L34.5394 24.8919C35.4508 26.5742 34.8807 28.3127 33.6601 29.4449C31.9618 31.0187 29.4726 31.1111 27.706 29.208C25.9475 27.3129 26.1723 24.8157 27.9108 23.2498Z" fill="#7C6C55"></path>
<path d="M36.4385 21.1099C37.0809 20.6402 37.659 20.2065 37.8276 19.8091C38.0685 19.255 37.7835 18.3356 37.4984 17.5808C37.113 16.5048 37.1411 15.5934 38.5624 14.9068L38.9518 15.4408C38.1328 15.9066 38.0685 16.4486 38.3737 17.2917C38.6708 18.1268 38.9478 18.99 38.7752 19.7408L43.5128 21.3307L43.5971 21.4471L42.6857 22.1096L38.3134 20.5759C38.0364 20.9373 37.2977 21.5034 36.9243 21.7764L39.0763 24.7354L38.2813 25.3135L33.4233 18.6327L34.2222 18.0545L36.4425 21.1099H36.4385Z" fill="#7C6C55"></path>
<path d="M45.3315 18.0264L45.4881 20.2828L44.5888 20.7887L44.5245 20.6763L43.8821 11.6588L44.2756 11.438L51.6269 16.6654L51.6911 16.7778L50.7998 17.2797L48.949 15.9788L45.3315 18.0224V18.0264ZM45.203 17.1231L48.2423 15.4087L44.8256 12.9034L45.203 17.1231Z" fill="#7C6C55"></path>
<path d="M53.8632 12.4056C52.6708 12.6023 51.5546 12.0603 51.0608 10.8959C50.4746 9.50277 51.0688 8.00922 52.6427 7.34676L55.694 6.06199L58.9019 13.6783L57.9825 14.0637L56.8182 11.3015L54.8147 12.1446L53.8873 15.7861L52.8916 16.2037L52.8354 16.0712L53.8552 12.4015L53.8632 12.4056ZM56.505 10.5105L55.1279 7.24639L52.9839 8.14974C52.0003 8.56328 51.5305 9.53088 51.9441 10.5105C52.3616 11.5022 53.3774 11.8274 54.3611 11.4139L56.505 10.5105Z" fill="#7C6C55"></path>
<path d="M65.4543 6.38719L67.7388 5.83715C69.6218 5.38347 70.7941 6.14228 71.1354 7.55554C71.4686 8.9447 70.7781 10.2295 68.9111 10.6912C67.8472 10.9481 66.7431 11.2131 65.6791 11.4701C65.0327 8.7841 64.3903 6.12221 63.7399 3.44025L69.0958 2.14744L69.3006 2.99459L64.8922 4.05854L65.4543 6.38719ZM65.655 7.21427L66.4219 10.3941C67.1727 10.2134 67.9676 10.0207 68.6943 9.84404C69.943 9.54292 70.4127 8.76001 70.1798 7.79643C69.967 6.91315 69.1761 6.3631 67.9275 6.66422L65.655 7.21427Z" fill="#7C6C55"></path>
<path d="M74.4276 9.55496L74.1104 9.59511L73.1027 1.36855L74.0904 1.2481L74.5601 5.09038L74.7408 7.45918L79.3539 0.589655L79.6952 0.549503L80.7029 8.77607L79.7233 8.89652L79.2415 4.94985L79.0488 2.68945L74.4236 9.55898L74.4276 9.55496Z" fill="#7C6C55"></path>
<path d="M84.7138 3.60887L87.0626 3.59281C88.9978 3.58077 89.9653 4.58851 89.9774 6.04191C89.9854 7.47122 89.0218 8.56328 87.0987 8.58737C86.0066 8.5954 84.8664 8.60343 83.7743 8.60745C83.7543 5.84518 83.7382 3.10701 83.7181 0.344745L89.2266 0.308609V1.17985L84.6978 1.21197L84.7138 3.60887ZM84.7178 4.46004L84.7379 7.72818C85.5088 7.72416 86.3278 7.71613 87.0786 7.71212C88.3594 7.70409 88.9977 7.04966 88.9897 6.05797C88.9857 5.1506 88.3393 4.43193 87.0545 4.43996L84.7138 4.45602L84.7178 4.46004Z" fill="#7C6C55"></path>
<path d="M94.2412 6.87701C93.9 8.50305 93.2576 9.03704 91.5272 8.57934L91.6155 7.85264C92.7075 8.14573 93.0448 7.67197 93.2656 6.7124L94.6106 0.625788C96.1564 0.790399 98.1036 0.999177 99.6292 1.16379L98.75 9.37831L97.7703 9.27392L98.5573 1.93867L95.3815 1.5974L94.2412 6.87701Z" fill="#7C6C55"></path>
<path d="M102.074 9.96047L101.761 9.8882L103.628 1.8142L104.6 2.03904L103.728 5.80905L103.09 8.09755L109.775 3.22344L110.112 3.29972L108.245 11.3737L107.286 11.1529L108.181 7.27851L108.771 5.09038L102.078 9.96449L102.074 9.96047Z" fill="#7C6C55"></path>
<path d="M114.577 13.6261C112.385 12.8151 111.2 10.639 112.112 8.17383C113.027 5.69261 115.364 4.82138 117.548 5.62837C119.732 6.43537 120.928 8.63956 120.017 11.0967C119.15 13.4414 116.926 14.4973 114.573 13.6261H114.577ZM114.894 12.7749C116.608 13.4093 118.391 12.6344 119.086 10.7514C119.78 8.86841 118.965 7.10586 117.239 6.46749C115.544 5.84117 113.754 6.61203 113.051 8.5151C112.357 10.3981 113.192 12.1406 114.894 12.7709V12.7749Z" fill="#7C6C55"></path>
<path d="M123.418 9.10931L123.815 8.31837L129.255 11.0606L128.858 11.8515L126.565 10.6992L123.245 17.2877L122.386 16.8541L125.706 10.2656L123.418 9.11332V9.10931Z" fill="#7C6C55"></path>
<path d="M135.474 15.8664L132.226 13.8268L130.789 16.1153L133.925 18.0867L133.467 18.8174L130.331 16.8461L128.774 19.3233L132.13 21.4351L131.648 22.206L127.445 19.5642L131.841 12.5702L135.932 15.1397L135.474 15.8704V15.8664Z" fill="#7C6C55"></path>
<path d="M137.369 20.7927C137.996 21.2825 138.574 21.7162 139.004 21.7683C139.606 21.8486 140.405 21.3227 141.055 20.8369C141.983 20.1664 142.866 19.9416 143.918 21.1219L143.512 21.6439C142.838 20.9814 142.3 21.0738 141.573 21.5997C140.854 22.1176 140.1 22.6195 139.329 22.6637L139.112 27.6582L139.024 27.7706L138.132 27.0761L138.397 22.4469C137.972 22.2782 137.225 21.7282 136.86 21.4431L134.611 24.3299L133.832 23.7236L138.911 17.2074L139.69 17.8136L137.369 20.7927Z" fill="#7C6C55"></path>
<path d="M142.802 28.4813L140.678 29.2602L139.939 28.5375L140.031 28.4452L148.507 25.3095L148.828 25.6267L145.861 34.1503L145.769 34.2427L145.038 33.528L145.769 31.3881L142.798 28.4853L142.802 28.4813ZM143.633 28.1039L146.13 30.545L147.579 26.5662L143.633 28.1079V28.1039Z" fill="#7C6C55"></path>
<path d="M149.908 39.1891L149.719 38.9281L156.428 34.07L157.014 34.877L153.879 37.1455L151.895 38.4503L160.138 39.165L160.339 39.442L153.63 44.3001L153.052 43.5011L156.272 41.1684L158.155 39.9077L149.904 39.181L149.908 39.1891Z" fill="#7C6C55"></path>
<path d="M166 49.2585L166.181 49.5917L158.914 53.5464L158.436 52.6712L163.671 49.8206L159.09 49.2063L159.018 49.0698L160.989 44.8903L155.754 47.7408L155.276 46.8656L162.543 42.9109L162.732 43.2562L160.315 48.4635L166.004 49.2625L166 49.2585Z" fill="#7C6C55"></path>
<path d="M168.81 58.0672L167.377 54.51L164.872 55.5218L166.257 58.9585L165.458 59.2797L164.073 55.8429L161.359 56.939L162.84 60.6167L161.997 60.958L160.142 56.3569L167.803 53.2694L169.609 57.75L168.81 58.0712V58.0672Z" fill="#7C6C55"></path>
<path d="M164.35 68.6425L168.076 67.5866L166.879 63.3589L163.153 64.4148L162.884 63.4673L170.834 61.2149L171.103 62.1624L167.754 63.1099L168.951 67.3377L172.299 66.3861L172.572 67.3457L164.623 69.5981L164.35 68.6385V68.6425Z" fill="#7C6C55"></path>
<path d="M165.325 72.9023L165.277 72.5851L173.46 71.2964L173.616 72.28L169.794 72.8822L167.433 73.1472L174.455 77.5235L174.507 77.8648L166.325 79.1535L166.172 78.1779L170.103 77.5596L172.355 77.2906L165.333 72.9023H165.325Z" fill="#7C6C55"></path>
<path d="M166.803 86.2359L175.094 86.3724L175.078 87.3681L171.207 87.3038L168.838 87.1593L175.001 92.6758V93.0211L166.71 92.8846L166.727 91.9009L170.701 91.9692L172.966 92.0896L166.803 86.5611V86.2359Z" fill="#7C6C55"></path>
<path d="M166.871 95.7472C167.236 95.7833 167.405 96.0764 167.373 96.4057C167.337 96.7469 167.112 96.9999 166.747 96.9637C166.429 96.9316 166.225 96.6345 166.257 96.2932C166.289 95.964 166.554 95.7151 166.871 95.7472Z" fill="#7C6C55"></path>
<path d="M165.936 100.039L165.996 99.726L174.134 101.276L173.949 102.255L170.147 101.533L167.839 100.983L172.97 107.471L172.906 107.808L164.767 106.258L164.952 105.291L168.858 106.033L171.071 106.539L165.94 100.039H165.936Z" fill="#7C6C55"></path>
<path d="M164.438 109.093C164.791 109.193 164.908 109.51 164.819 109.828C164.727 110.161 164.458 110.366 164.109 110.269C163.804 110.181 163.647 109.856 163.743 109.526C163.832 109.205 164.133 109.008 164.442 109.093H164.438Z" fill="#7C6C55"></path>
<path d="M165.297 118.821C164.711 119.616 163.848 119.881 162.928 119.54C161.523 119.018 161.126 117.717 161.664 116.259L162.916 112.887L170.661 115.762L169.533 118.801C169.011 120.202 167.995 121.017 166.522 120.471C165.803 120.206 165.309 119.628 165.293 118.825L165.297 118.821ZM165.414 117.054L166.124 115.139L163.39 114.128L162.555 116.376C162.19 117.368 162.338 118.247 163.278 118.608C164.358 119.058 165.024 118.102 165.414 117.058V117.054ZM169.497 116.392L166.919 115.436L166.209 117.351C165.843 118.343 165.904 119.19 166.835 119.536C167.758 119.893 168.401 119.355 168.738 118.444L169.497 116.396V116.392Z" fill="#7C6C55"></path>
<path d="M161.033 122.884L159.656 121.089L160.126 120.17L160.242 120.23L165.767 127.385L165.562 127.786L156.545 127.501L156.428 127.441L156.89 126.53L159.15 126.59L161.033 122.888V122.884ZM161.64 123.567L160.058 126.678L164.29 126.871L161.64 123.567Z" fill="#7C6C55"></path>
<path d="M160.218 136.92C159.323 138.249 157.721 139.092 156.015 138.542L156.553 137.743C157.769 137.944 158.797 137.406 159.468 136.41C160.564 134.844 160.094 132.982 158.496 131.91C156.95 130.87 155.035 131.115 153.967 132.701C153.256 133.756 153.184 135.005 153.927 136.037L153.389 136.836C152.116 135.407 152.277 133.584 153.204 132.207C154.497 130.284 156.902 129.625 159.054 131.074C161.198 132.516 161.551 134.997 160.214 136.92H160.218Z" fill="#7C6C55"></path>
<path d="M149.454 137.522L149.663 137.282L155.922 142.71L155.268 143.464L152.345 140.927L150.623 139.293L151.799 147.479L151.574 147.74L145.315 142.312L145.961 141.569L148.965 144.175L150.623 145.721L149.454 137.522Z" fill="#7C6C55"></path>
<path d="M143.308 147.07C142.324 145.733 142.352 144.894 143.846 143.91L144.327 144.46C143.38 145.079 143.508 145.645 144.078 146.452L147.72 151.51C146.564 152.554 145.11 153.867 143.974 154.891L138.437 148.76L139.168 148.102L144.111 153.578L146.479 151.438L143.304 147.07H143.308Z" fill="#7C6C55"></path>
<path d="M136.434 159.48L139.542 157.236L137.96 155.044L134.957 157.212L134.451 156.513L137.454 154.345L135.739 151.972L132.523 154.293L131.993 153.554L136.016 150.651L140.854 157.348L136.936 160.175L136.43 159.476L136.434 159.48ZM138.987 160.315C139.18 160.584 139.104 160.901 138.835 161.094C138.574 161.283 138.241 161.263 138.044 160.994C137.859 160.737 137.944 160.411 138.205 160.223C138.474 160.03 138.799 160.054 138.987 160.311V160.315ZM141.252 158.681C141.445 158.95 141.356 159.275 141.099 159.46C140.83 159.653 140.493 159.637 140.3 159.368C140.116 159.111 140.2 158.785 140.469 158.589C140.73 158.4 141.063 158.42 141.252 158.677V158.681Z" fill="#7C6C55"></path>
<path d="M127.802 161.122C126.842 161.359 126.011 161.006 125.525 160.155C124.779 158.854 125.309 157.601 126.658 156.826L129.781 155.04L133.885 162.21L131.07 163.82C129.773 164.563 128.468 164.535 127.69 163.174C127.308 162.507 127.3 161.752 127.802 161.122ZM129.022 159.837L130.793 158.822L129.344 156.292L127.264 157.485C126.349 158.011 125.899 158.781 126.389 159.661C126.927 160.697 128.055 160.395 129.022 159.841V159.837ZM132.584 161.945L131.219 159.56L129.448 160.576C128.533 161.102 128.035 161.793 128.529 162.652C129.01 163.519 129.846 163.515 130.689 163.033L132.584 161.949V161.945Z" fill="#7C6C55"></path>
<path d="M121.924 161.512L122.016 159.251L122.964 158.846L123.016 158.966L122.675 167.996L122.261 168.172L115.52 162.178L115.468 162.058L116.408 161.656L118.106 163.15L121.924 161.512ZM121.952 162.423L118.744 163.8L121.868 166.659L121.952 162.423Z" fill="#7C6C55"></path>
<path d="M69.0757 162.054H66.9237V178.539H69.0757V162.054Z" fill="#7C6C55"></path>
<path d="M72.8538 162.054H70.7018V178.539H72.8538V162.054Z" fill="#7C6C55"></path>
<path d="M86.9301 162.054H84.7781V178.539H86.9301V162.054Z" fill="#7C6C55"></path>
<path d="M90.8848 162.054H88.7328V167.245H90.8848V162.054Z" fill="#7C6C55"></path>
<path d="M90.8848 170.561H88.7328V178.539H90.8848V170.561Z" fill="#7C6C55"></path>
<path d="M104.23 162.054H102.078V178.539H104.23V162.054Z" fill="#7C6C55"></path>
<path d="M108.185 162.054H106.033V167.245H108.185V162.054Z" fill="#7C6C55"></path>
<path d="M108.185 170.561H106.033V178.539H108.185V170.561Z" fill="#7C6C55"></path>
<path d="M72.8538 162.029H66.9237V162.335H72.8538V162.029Z" fill="#7C6C55"></path>
<path d="M108.185 162.033H102.078V162.331H108.185V162.033Z" fill="#7C6C55"></path>
<path d="M108.185 178.39H102.078V178.687H108.185V178.39Z" fill="#7C6C55"></path>
<path d="M106.696 170.83C106.587 170.818 104.01 170.505 104.01 168.891C104.01 167.462 106.579 166.948 106.687 166.928L106.716 167.076C106.692 167.08 104.162 167.586 104.162 168.891C104.162 170.368 106.687 170.678 106.712 170.678L106.696 170.83Z" fill="#7C6C55"></path>
<path d="M89.3471 170.83C89.2387 170.818 86.6611 170.505 86.6611 168.891C86.6611 167.462 89.2306 166.948 89.339 166.928L89.3671 167.076C89.343 167.08 86.8136 167.586 86.8136 168.891C86.8136 170.368 89.335 170.678 89.3631 170.678L89.3471 170.83Z" fill="#7C6C55"></path>
<path d="M79.3338 162.094C78.5831 161.961 77.8122 162.25 77.3344 162.848C76.9811 163.29 76.6238 163.904 76.5274 164.647C76.3989 165.627 76.427 167.514 76.4672 168.839C76.4953 169.754 76.692 170.658 77.0453 171.505C77.6034 172.838 78.4225 174.913 78.5389 175.861C78.7155 177.31 78.2819 177.969 78.0692 178.109C77.9086 178.218 78.0772 176.616 77.9648 176.343C77.7279 175.789 76.7282 175.648 76.2383 176.098C75.7927 176.507 75.5157 178.483 77.9286 178.543C80.3416 178.603 81.4939 176.953 81.6585 176.214C81.8231 175.475 81.9275 170.882 81.9275 170.882L80.0083 170.906L79.8759 175.624C79.8598 176.282 79.8478 176.949 79.5185 177.519C79.4061 177.712 79.3419 177.812 79.1291 178.013C78.828 178.294 78.3984 178.282 78.2819 178.294C78.2458 178.294 78.2338 178.254 78.2619 178.234C78.5389 178.045 79.0086 177.202 79.0448 176.58C79.1291 175.214 78.2659 169.61 78.2057 168.927C78.1454 168.245 78.0691 163.792 78.0772 163.306C78.0892 162.628 79.3459 162.407 79.5426 163.214C79.9481 164.872 79.8598 167.249 79.8598 167.249H81.783C81.783 167.249 81.8311 163.977 80.5825 162.696C80.2452 162.351 79.7715 162.182 79.3298 162.102L79.3338 162.094Z" fill="#7C6C55"></path>
<path d="M99.2157 169.056C98.5332 166.703 97.5455 164.467 97.4492 163.503C97.3568 162.539 97.3769 161.949 97.3769 161.949C97.3769 161.949 94.2693 162.339 93.8719 167.004C93.4704 171.669 95.7308 175.953 95.9195 176.824C96.1082 177.696 95.9436 178.659 95.9436 178.659C95.9436 178.659 98.4047 176.925 98.9909 175.74C99.8621 173.986 99.8982 171.408 99.2157 169.056ZM98.4288 174.163C98.2682 175.512 97.674 176.604 97.3006 177.13C97.2444 177.21 97.1159 177.186 97.0958 177.085C96.9754 176.487 96.5859 174.729 95.5099 170.754C94.177 165.836 95.5822 163.684 95.5822 163.684C95.5822 163.684 96.06 162.909 95.9917 163.286C95.9195 163.664 96.0078 165.137 96.321 166.145C96.6341 167.157 98.7701 171.308 98.4288 174.159V174.163Z" fill="#7C6C55"></path>
<path d="M87.5564 159.199C68.4655 159.199 50.5188 151.763 37.0166 138.265C23.5185 124.767 16.0828 106.816 16.0828 87.7254C16.0828 68.6345 23.5185 50.6878 37.0166 37.1856C50.5148 23.6875 68.4655 16.2518 87.5564 16.2518C106.647 16.2518 124.594 23.6875 138.096 37.1856C151.594 50.6838 159.03 68.6345 159.03 87.7254C159.03 106.816 151.594 124.763 138.096 138.265C124.598 151.763 106.647 159.199 87.5564 159.199ZM87.5564 19.0141C49.6676 19.0141 18.8451 49.8366 18.8451 87.7254C18.8451 125.614 49.6676 156.437 87.5564 156.437C125.445 156.437 156.268 125.614 156.268 87.7254C156.268 49.8366 125.445 19.0141 87.5564 19.0141Z" fill="#7C6C55"></path>
<path d="M124.923 84.3127C123.859 80.6029 122.097 77.2023 120.049 73.9462C119.76 73.4885 119.439 72.9264 119.455 72.4246C119.507 70.7383 119.921 69.04 119.78 67.3818C119.664 66.0167 120.298 64.997 120.611 63.8206C120.864 62.8811 121.165 61.8613 121.037 60.9298C120.832 59.4323 120.495 57.8825 119.86 56.5215C117.732 51.9565 116.155 47.2189 114.906 42.3528C114.143 39.3697 112.421 37.1294 109.663 35.6881C107.298 34.4515 105.005 33.0743 102.62 31.8779C97.7743 29.4489 92.6232 28.4652 87.2111 28.8988C82.3892 29.2843 77.5753 29.7339 72.7453 30.015C69.2323 30.2197 66.2452 31.5246 63.7479 33.9175C59.737 37.7598 55.8305 41.7064 51.8196 45.5447C48.5675 48.6603 46.544 52.3219 45.9217 56.8427C45.3636 60.9138 44.7694 65.0211 43.7014 68.9798C41.7422 76.2427 42.9788 82.8754 46.9575 89.0704C48.6478 91.7002 50.7677 94.0489 52.478 96.6666C54.0479 99.0716 55.9389 101.071 58.2957 102.685C59.1709 103.283 59.99 103.986 60.7729 104.704C61.9051 105.74 62.1379 107.033 61.4755 108.398C61.0138 109.354 60.4517 110.277 59.8294 111.132C58.392 113.104 57.2237 115.199 56.5211 117.544C55.7422 120.146 54.4253 122.402 52.4901 124.354C50.9885 125.867 49.6917 127.581 49.0613 129.697C48.1781 132.652 49.6515 134.379 52.6587 133.825C53.8431 133.604 54.9874 133.19 56.1557 132.885C58.0066 132.399 59.8414 131.625 61.7164 131.512C66.2372 131.239 70.766 131.588 75.1623 132.705C79.3619 133.768 83.4853 135.118 87.6407 136.346C90.9088 137.314 94.1489 138.402 97.4612 139.201C98.9708 139.566 100.629 139.514 102.195 139.381C103.323 139.285 103.536 138.45 102.697 137.679C101.866 136.916 100.938 136.218 99.9544 135.668C96.2888 133.62 92.567 131.669 88.8974 129.633C88.0342 129.155 87.2111 128.553 86.4924 127.879C85.7256 127.16 85.9384 126.505 86.9622 126.321C87.6849 126.188 88.4477 126.148 89.1744 126.228C92.2016 126.562 94.5664 128.152 96.5418 130.356C98.1638 132.163 100.123 132.604 102.444 132.195C103.765 131.962 105.126 131.962 106.471 131.889C107.238 131.849 107.591 132.299 107.755 133.026C108.217 135.037 108.759 137.029 109.205 139.04C109.357 139.731 109.707 140.064 110.357 140.257C112.878 141.003 115.392 141.79 117.905 142.557C119.595 143.075 121.286 143.585 123.237 144.183C123.016 143.746 122.936 143.549 122.823 143.372C120.105 139.156 117.379 134.945 114.665 130.725C113.653 129.151 112.413 127.67 112.742 125.57C113.208 122.643 112.381 120.319 109.582 118.901C108.711 118.46 108.478 117.604 108.711 116.693C108.932 115.834 109.502 115.28 110.445 115.199C112.104 115.063 113.778 115.011 115.42 114.758C119.27 114.168 121.611 110.193 120.166 106.905C119.387 105.134 120.077 103.857 121.394 102.669C122.763 101.436 123.153 99.8585 122.47 98.1281C122.129 97.2568 122.137 96.4779 122.558 95.6709C123.249 94.342 123.394 92.9769 122.839 91.5516C122.659 91.0899 122.583 90.588 122.422 90.1223C122.057 89.0664 122.394 88.3839 123.381 87.8539C124.927 87.0188 125.393 86.003 124.907 84.3127H124.923ZM106.314 37.8441C108.322 38.354 110.156 39.3015 111.232 41.3049C108.33 40.0724 105.632 38.2335 102.191 38.7354C103.403 37.4586 104.921 37.4908 106.314 37.8441ZM66.1087 85.8103C66.4821 86.0713 66.8876 86.2961 67.2208 86.6052C67.4176 86.7859 67.4697 87.1151 67.6303 87.344C68.2005 88.147 68.8428 88.0586 69.3608 87.2195C69.5816 86.8582 70.0634 86.3925 70.3765 86.4286C70.7499 86.4728 71.1193 86.9626 71.3843 87.336C71.581 87.609 71.565 88.0225 71.7215 88.3397C72.1712 89.2551 72.7935 89.9376 73.9458 89.8092C74.1586 89.7851 74.3714 89.7931 74.5842 89.7931C76.9369 89.757 78.3261 91.1541 78.302 93.539C78.2859 95.2494 76.9128 96.3414 75.3791 95.6268C74.3794 95.157 73.4038 94.3179 72.7935 93.3985C71.9223 92.0816 70.9507 91.106 69.4009 90.7165C67.5621 90.2548 66.6306 88.8135 65.92 87.2356C65.7554 86.8662 66.0364 86.2961 66.1127 85.8223L66.1087 85.8103ZM80.3737 106.142C82.1924 108.607 84.7178 110.205 87.2231 111.839C87.6608 112.124 88.0904 112.413 88.524 112.702C88.4959 112.787 88.4678 112.871 88.4397 112.951C88.0221 112.951 87.5765 113.043 87.187 112.935C84.216 112.108 81.2048 111.397 78.31 110.349C74.9375 109.133 73.8976 106.965 74.7287 103.444C74.8692 102.842 75.4554 101.922 75.8649 101.906C76.5113 101.882 77.3224 102.364 77.8082 102.874C78.7557 103.873 79.5506 105.022 80.3737 106.138V106.142ZM69.6779 93.274C68.6903 93.7117 67.8471 93.1496 67.1767 92.728C66.0324 92.0093 65.3258 90.8651 65.0206 89.3354C66.6346 90.7005 68.1041 91.9451 69.6779 93.274ZM103.58 120.218C103.251 120.973 102.809 121.684 102.375 122.39C101.797 123.326 101.175 124.233 100.569 125.152C99.9906 126.028 99.3121 126.726 98.3485 126.522C88.6364 125.602 79.5547 123.37 71.5449 117.942C69.951 116.862 68.5016 115.46 67.2971 113.959C66.5262 112.999 66.193 111.614 65.916 110.366C65.6952 109.366 66.2372 109.037 67.265 109.294C67.4015 109.33 67.534 109.382 67.6665 109.438C74.8933 112.598 82.4735 114.633 90.1219 116.408C94.2653 117.368 98.4689 118.074 102.648 118.865C103.468 119.022 103.953 119.367 103.584 120.222L103.58 120.218ZM121.077 86.5932C119.463 86.1315 118.05 86.2479 116.781 87.352C115.777 88.2233 114.725 87.7897 113.501 87.4404C114.464 88.9901 115.251 89.3193 116.717 88.9299C116.753 88.9219 116.785 88.9138 116.821 88.9018C119.796 88.0667 121.599 89.4438 121.683 92.5634C121.707 93.4346 121.378 93.9806 120.631 94.35C118.628 95.3457 116.644 96.3776 114.625 97.3291C114.179 97.5379 113.589 97.6021 113.103 97.5178C111.983 97.3291 111.509 97.6061 111.401 98.7544C111.353 99.2603 111.393 99.7782 111.393 100.36C112.834 99.8826 114.035 99.3807 115.287 99.0957C116.917 98.7263 118.56 98.9431 120.081 99.6136C120.511 99.8023 120.756 100.405 121.085 100.814C120.704 101.111 120.358 101.589 119.933 101.669C119.001 101.846 118.03 101.886 117.078 101.866C116.275 101.85 115.821 102.199 115.508 102.882C114.697 104.664 115.291 106.411 117.066 107.282C117.897 107.692 118.893 107.945 118.833 109.133C118.764 110.438 118.122 111.486 116.95 112.04C114.561 113.164 112.003 113.505 109.466 112.774C107.29 112.148 105.25 111.044 103.078 110.406C99.9504 109.49 96.7626 108.784 93.5908 108.025C89.7726 107.113 86.4161 105.335 83.5214 102.693C82.6622 101.91 81.7869 101.115 81.0763 100.204C79.8999 98.6982 79.37 97.04 79.7915 95.0285C80.201 93.0652 79.6068 91.1662 78.6834 89.3755C78.3863 88.8054 78.3542 88.0988 78.2378 87.621C79.2053 87.5809 79.9923 87.7415 80.6025 87.4845C81.9516 86.9104 82.879 85.8143 83.4692 84.4613C83.5415 84.3007 83.5535 84.112 83.6338 83.9554C84.3525 82.5381 84.3204 81.3818 83.6097 79.7357C82.6341 77.4834 81.9235 74.8656 82.6502 72.272C82.9192 71.3044 83.417 70.3729 83.955 69.5137C84.9708 67.8957 86.3519 66.4825 86.7132 64.5112C86.8217 63.925 86.9341 63.3067 86.8698 62.7245C86.6611 60.7893 87.2914 59.1151 88.1626 57.4329C89.6803 54.4979 90.684 51.3944 90.5555 48.0339C90.5234 47.1707 90.2946 46.2995 90.0577 45.4564C89.8529 44.7337 89.8409 44.2278 90.7763 44.276C93.1612 44.3924 95.4136 43.754 97.6981 43.204C104.921 41.4655 112.156 44.3683 116.303 51.5831C117.753 54.1085 118.226 56.9069 118.853 59.6732C119.073 60.6568 118.704 61.5 117.893 62.1183C115.111 64.2381 114.513 69.8952 117.564 72.4687C118.929 73.617 119.917 75.0905 120.643 76.7687C121.462 78.6597 122.518 80.4464 123.45 82.2852C123.675 82.7268 123.871 83.1926 123.992 83.6703C124.554 85.9026 123.285 87.2235 121.073 86.5932H121.077ZM118.315 67.8074C117.672 68.0804 116.97 68.2169 116.187 68.4297C116.347 67.3577 117.7 66.4423 118.287 66.8398C118.455 66.9522 118.431 67.7552 118.315 67.8074Z" fill="#7C6C55"></path>
<path d="M109.984 61.5401C108.225 61.7087 106.435 61.8412 104.68 61.6927C102.484 61.508 100.729 62.3592 99.027 63.5155C98.8303 63.652 98.7419 63.9491 98.6014 64.1699L98.766 64.4549C99.4004 64.2381 100.051 64.0615 100.665 63.8045C102.239 63.1461 103.845 62.9694 105.431 63.6399C105.844 63.8126 106.242 64.3666 106.338 64.8123C106.394 65.0773 105.905 65.547 105.563 65.7999C103.066 67.6548 100.545 69.4816 98.0353 71.3164C98.0072 71.3365 97.9711 71.3646 97.963 71.3927C97.8747 71.7741 97.7944 72.1556 97.7101 72.537C98.0875 72.6133 98.4689 72.7658 98.8423 72.7498C99.5008 72.7176 100.163 72.4727 100.814 72.5129C101.552 72.5571 101.737 72.2599 102.291 71.6738C102.889 71.0434 103.825 70.927 104.395 71.4128C105.194 72.0953 105.407 72.9344 104.443 74.1068C104.335 74.2393 104.427 74.5364 104.427 74.709C105.395 74.5645 106.246 74.3517 107.097 74.3357C107.695 74.3236 108.342 74.6047 108.683 73.894C109.012 73.2075 109.466 72.5129 108.683 71.7621C108.45 71.5413 108.293 70.9912 108.402 70.7062C108.735 69.8349 109.092 68.9235 109.658 68.2009C110.694 66.884 111.851 65.6795 112.22 63.9611C112.565 62.3632 111.594 61.3835 109.972 61.5401H109.984ZM103.849 69.1885C103.777 69.0761 103.708 68.9597 103.636 68.8473C104.022 68.5582 104.371 68.1326 104.804 68.0162C105.338 67.8757 106.061 67.3417 106.583 68.4458C105.587 68.7148 104.72 68.9517 103.849 69.1845V69.1885Z" fill="#7C6C55"></path>
</svg></svg></g></g><defs><clipPath id="SvgjsClipPath1035"><rect width="1000" height="1000" x="0" y="0" rx="350" ry="350"></rect></clipPath></defs></svg></g></svg>