<svg width="192" height="194" viewBox="0 0 192 194" fill="none" xmlns="http://www.w3.org/2000/svg">
<path d="M121.653 193.408C121.653 191.927 121.731 190.642 121.614 189.356C121.575 188.771 121.222 188.226 121.027 187.68C120.401 187.914 119.657 188.031 119.188 188.421C117.857 189.59 116.761 190.992 115.392 192.044C114.491 192.746 113.239 193.33 112.143 193.369C107.878 193.564 103.612 193.564 99.3468 193.603C98.2119 193.603 97.3901 193.252 97.4684 191.81C97.5858 189.589 97.5466 187.408 97.4292 185.187C97.351 183.667 97.9771 183.316 99.3859 183.355C101.93 183.433 104.473 183.433 107.017 183.316C107.839 183.277 108.817 182.888 109.404 182.342C111.439 180.511 113.357 178.563 115.235 176.576C115.783 175.991 116.174 175.017 116.213 174.199C116.331 172.017 116.252 169.796 116.213 167.575C116.174 165.042 116.096 164.925 113.552 164.925C102.517 164.925 91.52 164.925 80.4844 164.925C66.8659 164.925 53.2083 164.964 39.5898 164.964C36.733 164.964 36.733 164.964 36.733 167.731C36.733 169.172 36.9287 170.614 36.6939 172.017C36.146 175.095 37.5548 177.16 39.7854 178.991C40.6855 179.732 41.4682 180.589 42.29 181.407C43.8553 182.927 45.4989 184.018 47.9252 183.745C50.4689 183.472 53.0909 183.667 55.8302 183.667C55.8302 187.057 55.8302 190.291 55.8302 193.798C53.0517 193.798 50.3515 193.798 47.6122 193.798C47.3382 193.798 47.1034 193.759 46.8295 193.798C41.8204 194.499 37.4766 193.486 34.4241 189.044C33.9937 188.46 32.8979 188.343 32.0761 188.031C31.9196 188.849 31.6065 189.667 31.6456 190.486C31.8413 193.213 31.6848 193.72 28.9846 193.837C24.4059 193.992 19.7882 193.837 15.1704 193.798C14.7791 193.798 14.3486 193.486 14.0355 193.174C9.65257 189.083 5.26961 185.031 0.964911 180.862C0.41704 180.316 0.0648383 179.264 0.0648383 178.446C-0.0134289 163.64 -0.0134283 148.833 0.0257053 134.027C0.0257053 133.326 0.377907 132.507 0.84751 132.001C5.77834 126.897 10.7092 121.87 15.7183 116.844C20.6491 111.896 25.5799 106.986 30.5499 102.077C33.3284 99.3492 36.2243 96.7386 38.9245 93.9332C39.668 93.1539 40.2159 91.8291 40.255 90.6992C40.4116 87.2704 40.255 83.8026 40.3724 80.3738C40.4116 78.8152 39.942 77.6853 38.768 76.6722C35.2851 73.672 31.8413 70.6328 28.4758 67.5547C27.2627 66.4637 26.3235 66.5026 25.1495 67.6715C20.1795 72.62 15.0921 77.4904 10.1222 82.4778C9.2221 83.374 8.71336 83.4129 7.81329 82.4778C5.85661 80.4517 3.7434 78.5814 1.43451 76.3605C4.01733 73.9058 6.63928 71.451 9.2221 68.9574C12.2745 65.9961 15.2487 63.0348 18.262 60.0736C19.436 58.9047 18.4968 58.0475 17.7141 57.3072C14.5834 54.229 11.257 51.3067 8.20463 48.1117C5.93488 45.7349 3.93906 43.0853 1.86498 40.5917C3.39119 39.15 5.70007 36.8901 8.24376 34.4743C10.5135 36.6173 13.0963 38.9941 15.6791 41.4099C18.7707 44.3712 21.8231 47.3714 24.9929 50.2547C25.5408 50.7612 26.5974 51.1509 27.1844 50.956C27.6932 50.7612 28.2019 49.6702 28.1628 48.9689C28.0845 40.0072 27.928 31.0845 27.7714 22.1228C27.7323 20.2136 27.5366 18.2654 27.3801 16.0444C29.4542 16.0444 31.2934 16.0444 33.6023 16.0444C33.211 14.6807 32.8979 13.7066 32.5066 12.3428C33.6415 11.3298 35.0894 10.005 36.9678 8.32957C37.8288 9.38159 38.5332 10.3947 39.4332 11.2519C40.4898 12.3428 41.5856 12.4597 42.7596 11.1739C44.5989 9.18677 46.7121 7.35547 48.5514 5.36832C49.608 4.1994 50.3906 4.31629 51.369 5.29038C53.0909 7.04376 54.891 8.75817 56.652 10.5115C58.4913 12.3428 59.1566 12.3428 60.9958 10.5115C61.622 9.88812 62.1307 9.10885 62.7569 8.29061C64.557 10.2388 66.0441 11.8363 67.6486 13.5897C64.0874 17.0964 60.3306 20.9149 56.4172 24.6165C55.0867 25.8633 54.9301 26.7984 56.2998 28.1232C57.9826 29.6818 58.7261 29.8376 60.2523 28.396C62.7569 26.0192 65.2614 23.6813 67.6486 21.2266C68.5486 20.2915 69.0574 20.4473 69.84 21.2266C70.7792 22.1228 71.8359 22.9021 72.8533 23.7203C68.9791 27.6556 65.4571 31.1624 61.9742 34.786C61.3089 35.4874 60.2914 36.7732 60.5262 37.2018C61.1524 38.3707 62.3264 39.3448 63.4221 40.1631C63.7352 40.3968 64.7918 39.9293 65.2223 39.5007C68.666 36.2277 72.0707 32.9158 75.4753 29.6038C75.9449 29.1363 76.3362 28.6297 76.8841 28.0063C78.4103 29.409 79.78 30.6559 81.3062 32.0586C77.4711 35.6822 73.7925 39.2279 70.0748 42.7347C68.1182 44.6049 68.1182 45.7739 70.3879 47.0986C70.8966 47.4103 72.1098 47.3714 72.5011 46.9817C77.2363 42.5398 81.8541 37.9811 86.4718 33.4223C87.098 32.7989 87.5284 31.9417 88.1546 31.0455C89.7199 32.5261 90.6982 33.5392 91.794 34.4354C92.2245 34.786 93.1245 35.2146 93.4767 35.0198C93.9463 34.7471 94.2985 33.9288 94.3768 33.3054C94.4551 32.3703 94.2594 31.3962 94.1811 30.4221C97.1161 29.448 97.5858 29.7987 97.664 32.5651C97.7032 34.786 97.7423 36.968 97.9771 39.15C98.0554 39.8513 98.525 40.5917 99.0337 41.0982C99.3859 41.4489 100.129 41.7606 100.56 41.6047C100.912 41.4878 101.186 40.7085 101.186 40.202C101.225 36.2277 101.147 32.2924 101.147 28.318C101.147 27.5388 101.147 26.7984 101.147 26.0971C104.512 25.4347 104.63 25.5126 104.669 28.5518C104.708 31.9806 104.63 35.4484 104.747 38.8772C104.786 39.5786 105.412 40.2799 105.765 40.9813C106.43 40.241 107.408 39.5786 107.682 38.7214C108.034 37.7473 107.8 36.5394 107.76 35.4484C107.682 32.2144 107.526 28.9804 107.526 25.7464C107.526 25.084 107.956 24.2658 108.426 23.7982C111.83 20.3304 115.274 16.8627 118.796 13.5118C120.048 12.3039 120.048 11.3687 118.835 10.2778C117.74 9.2647 116.566 8.32957 115.861 7.70615C118.366 4.97868 120.518 2.52395 122.788 0.18612C123.062 -0.086627 124.04 -0.0476667 124.353 0.22508C126.623 2.29017 128.814 4.39422 130.928 6.61516C131.241 6.92687 131.006 7.74511 130.967 8.36853C130.967 8.52439 130.732 8.64128 130.575 8.75817C126.232 12.4987 128.188 12.9273 130.81 15.6548C133.902 18.8888 136.915 22.2007 140.359 25.9412C137.815 28.357 134.841 31.2403 131.749 34.0457C130.81 34.9029 130.419 35.7601 130.419 37.0459C130.497 42.9684 130.419 48.852 130.536 54.7745C130.536 55.6707 131.045 56.8006 131.671 57.463C136.915 62.6842 142.276 67.8274 147.598 73.0096C148.068 73.4382 148.499 73.9447 149.086 74.5682C146.738 76.9839 144.546 79.4386 142.12 81.6596C140.594 83.1012 139.85 84.5819 139.928 86.7249C140.124 93.8553 140.124 100.986 140.241 108.155C140.241 108.856 140.633 109.558 140.828 110.298C141.533 109.986 142.433 109.83 142.942 109.324C148.812 103.596 154.603 97.7906 160.395 92.024C160.747 91.6733 161.178 91.3226 161.726 90.8161C164.896 93.8553 168.026 96.8165 171.118 99.8557C174.953 103.557 178.671 107.376 182.545 111.038C183.836 112.246 184.384 113.532 184.345 115.285C184.306 126.897 184.384 138.508 184.423 150.119C184.423 153.821 187.945 158.068 191.741 158.847C191.741 159.626 191.741 160.445 191.741 161.302C191.78 168.432 191.546 175.601 191.976 182.732C192.211 186.628 190.724 189.122 187.476 191.109C185.284 189.2 182.623 187.68 183.171 183.901C183.445 181.914 183.288 179.887 183.171 177.861C183.132 177.316 182.506 176.809 182.114 176.264C181.723 176.809 180.979 177.355 180.94 177.9C180.823 180.433 180.901 182.966 180.901 185.498C180.901 187.135 178.671 190.447 177.183 190.992C176.949 191.07 176.675 191.109 176.44 191.031C175.227 190.719 172.37 187.018 172.37 185.732C172.331 183.199 172.409 180.667 172.292 178.134C172.253 177.511 171.666 176.887 171.313 176.264C170.883 176.887 170.1 177.472 170.061 178.095C169.983 180.043 170.1 181.992 170.296 183.901C170.531 186.122 169.944 187.914 168.104 189.356C167.361 189.94 166.852 190.875 166.148 191.771C163.604 189.473 161.374 187.914 161.53 184.251C161.804 178.368 161.452 172.445 161.413 166.562C161.413 164.964 160.669 164.536 159.221 164.575C157.656 164.614 156.09 164.653 154.525 164.575C152.686 164.458 152.138 165.276 152.177 166.99C152.295 170.497 152.295 174.004 152.177 177.511C152.138 178.446 151.747 179.576 151.121 180.238C147.09 184.407 142.981 188.499 138.872 192.551C138.402 193.018 137.619 193.33 136.954 193.33C131.945 193.447 126.975 193.408 121.653 193.408ZM75.1622 87.8548C75.2796 87.8548 75.397 87.8548 75.4753 87.8548C75.4753 93.7773 75.4753 99.6609 75.4753 105.583C75.4753 108.077 75.5535 108.194 78.0972 108.233C87.8806 108.272 97.664 108.272 107.447 108.35C109.13 108.35 109.6 107.648 109.561 106.129C109.443 101.453 109.013 96.7386 109.443 92.1019C109.952 86.2573 108.504 81.5816 103.495 78.3087C99.6598 75.815 98.7206 72.2693 98.9554 67.8274C99.2685 61.749 98.9946 55.6317 98.838 49.5144C98.7989 48.5013 97.9771 47.4883 97.5466 46.4752C96.7639 46.9428 95.903 47.3324 95.2769 47.9558C89.1329 54.1121 83.1063 60.3853 76.8841 66.5026C75.5144 67.8664 75.1231 69.1522 75.1622 70.9445C75.2405 76.5943 75.1622 82.244 75.1622 87.8548ZM169.279 134.962C169.2 134.962 169.122 134.962 169.044 134.962C169.044 129.624 169.083 124.325 169.005 118.987C169.005 118.208 168.887 117.195 168.418 116.649C167.087 115.091 165.6 113.61 163.995 112.285C163.565 111.935 162.313 112.012 161.882 112.363C159.065 114.935 156.404 117.701 153.586 120.273C152.334 121.442 152.608 122.26 153.703 123.312C155.895 125.338 157.969 127.481 160.2 129.507C161.178 130.403 161.608 131.339 161.608 132.702C161.608 140.69 161.687 148.677 161.804 156.665C161.804 157.288 162.195 157.951 162.391 158.574C163.135 158.302 163.995 158.185 164.543 157.678C165.756 156.626 166.93 155.457 167.87 154.132C168.574 153.158 169.2 151.872 169.2 150.743C169.357 145.443 169.279 140.222 169.279 134.962ZM50.508 95.5307C50.6254 95.5307 50.7037 95.5307 50.8211 95.5307C50.8211 98.9595 50.8602 102.388 50.8211 105.856C50.782 107.337 51.4081 107.96 52.8952 107.96C55.7519 107.921 58.6087 107.882 61.5046 107.999C62.9917 108.038 63.6178 107.571 63.5787 106.012C63.4613 99.1933 63.383 92.3746 63.3047 85.5949C63.3047 84.1143 62.6786 83.4909 61.1915 83.4909C58.3348 83.5298 55.4389 83.5298 52.5821 83.4129C50.9385 83.374 50.4298 84.0753 50.4689 85.6339C50.5472 88.9069 50.508 92.2188 50.508 95.5307ZM135.35 74.685C135.076 74.2175 134.919 73.7499 134.645 73.4772C131.71 70.5549 128.736 67.6326 125.762 64.7493C124.901 63.8921 123.923 63.8141 123.023 64.7103C120.166 67.5546 117.348 70.399 114.531 73.2434C113.631 74.1395 113.631 74.9968 114.57 75.8929C117.505 78.7373 120.44 81.5816 123.336 84.465C124.157 85.2832 124.823 85.2443 125.645 84.465C128.54 81.6206 131.475 78.7763 134.41 75.9319C134.724 75.5812 134.997 75.1526 135.35 74.685ZM106.743 55.8265C106.782 55.8265 106.86 55.8265 106.9 55.8265C106.9 58.2033 106.821 60.6191 106.939 62.9959C106.978 63.8531 107.408 64.7493 107.682 65.6065C108.504 65.1779 109.482 64.8661 110.109 64.2817C112.574 61.9828 114.961 59.606 117.27 57.1513C117.74 56.6448 118.053 55.7876 118.053 55.1252C118.013 49.7482 117.896 44.3712 117.74 39.0331C117.74 38.5266 117.387 37.9421 116.996 37.6304C116.8 37.4745 116.057 37.9031 115.705 38.2149C113.983 39.7734 112.417 41.5658 110.578 42.9685C107.487 45.4232 105.96 48.3455 106.665 52.3587C106.939 53.4887 106.743 54.6576 106.743 55.8265ZM24.6016 173.147C24.6407 171.199 24.6016 169.25 24.6407 167.302C24.6407 165.977 24.2103 165.276 22.7232 165.315C20.4534 165.393 18.1837 165.237 15.9139 165.276C12.1571 165.315 12.1571 165.315 12.1571 169.133C12.1571 176.42 12.3528 176.225 17.5184 181.368C19.9056 183.745 22.3319 184.368 25.3451 184.018C25.8539 183.94 26.6365 183.784 26.7931 183.433C26.9496 183.044 26.6757 182.264 26.2843 181.953C24.7581 180.706 24.4451 179.108 24.6016 177.277C24.6799 175.874 24.6016 174.51 24.6016 173.147ZM134.215 164.731C133.628 164.692 133.041 164.692 132.454 164.692C131.867 164.692 131.28 164.731 130.693 164.731C128.032 164.77 127.875 164.925 127.914 167.458C127.953 170.77 128.032 174.043 128.149 177.355C128.188 178.758 128.11 180.004 126.779 180.94C126.349 181.251 126.232 181.992 125.997 182.576C126.623 182.849 127.21 183.199 127.836 183.316C130.967 183.823 133.119 182.381 135.545 180.355C139.693 176.887 141.063 172.952 140.281 167.809C139.85 164.847 140.085 164.808 136.954 164.731C136.054 164.692 135.115 164.731 134.215 164.731ZM123.61 16.7458C123.14 17.0575 122.749 17.2523 122.436 17.525C120.44 19.4732 118.522 21.4604 116.526 23.3307C115.313 24.4996 115.157 25.4737 116.487 26.6816C118.483 28.5129 120.401 30.461 122.357 32.3703C123.336 33.3444 124.118 33.3444 125.136 32.2924C127.014 30.4221 128.971 28.6297 130.928 26.8374C132.219 25.6685 132.18 24.5385 130.967 23.3696C129.01 21.4994 127.092 19.5512 125.097 17.6809C124.705 17.3302 124.157 17.0964 123.61 16.7458ZM118.366 101.531C118.405 101.531 118.444 101.531 118.483 101.531C118.483 103.168 118.366 104.804 118.561 106.402C118.601 106.947 119.383 107.765 119.853 107.804C122.983 107.921 126.114 107.921 129.245 107.804C129.754 107.765 130.615 106.947 130.654 106.48C130.771 103.362 130.654 100.245 130.654 97.1282C130.654 95.9593 130.027 95.3359 128.854 95.3359C125.918 95.3359 122.983 95.3359 120.048 95.2969C118.953 95.2969 118.327 95.6866 118.366 96.8944C118.405 98.414 118.366 99.9726 118.366 101.531ZM59.1174 59.3333C58.9609 58.9826 58.8435 58.6709 58.6478 58.4371C56.5737 56.372 54.5779 54.268 52.3865 52.3587C51.9951 52.0081 50.6254 52.1639 50.1558 52.5536C48.1992 54.229 46.399 56.0993 44.5597 57.9306C43.6205 58.8657 43.7379 59.7229 44.6771 60.5801C46.5555 62.3335 48.3557 64.2427 50.3515 65.8792C50.8602 66.3078 52.2299 66.3857 52.6995 65.9961C54.7736 64.2427 56.652 62.2945 58.6087 60.3463C58.8044 60.0736 58.9218 59.684 59.1174 59.3333ZM69.3704 127.715C69.1356 127.208 69.0574 126.702 68.7834 126.39C67.2181 124.871 65.6136 123.312 63.9309 121.948C63.5787 121.675 62.5221 121.792 62.0916 122.143C60.448 123.507 58.9609 125.026 57.3956 126.507C56.5346 127.325 56.652 128.066 57.4738 128.806C58.9609 130.248 60.448 131.689 61.9351 133.131C62.796 133.988 63.6961 133.871 64.5179 133.092C65.9267 131.767 67.3355 130.403 68.7052 129.04C69.0182 128.689 69.1356 128.182 69.3704 127.715ZM31.2934 127.715C31.176 127.442 31.0978 127.091 30.863 126.858C29.2585 125.26 27.7323 123.585 26.0104 122.104C25.5799 121.753 24.2885 121.87 23.8189 122.299C22.2536 123.546 20.8839 125.026 19.5142 126.468C18.849 127.169 18.4576 127.949 19.3968 128.806C20.923 130.209 22.3319 131.728 23.8972 133.053C24.2885 133.404 25.306 133.754 25.5799 133.52C27.4975 131.923 29.2976 130.17 31.0978 128.416C31.2152 128.338 31.2152 128.027 31.2934 127.715ZM81.9323 133.832C82.5976 133.404 83.302 133.014 83.8499 132.546C84.9847 131.494 86.0413 130.364 87.1762 129.273C88.3111 128.221 88.3111 127.169 87.2154 126.117C85.8457 124.832 84.4369 123.624 83.1063 122.299C82.2063 121.403 81.4627 121.442 80.6018 122.299C79.2321 123.663 77.8233 124.987 76.4536 126.312C75.5144 127.208 75.5535 128.105 76.4536 129.001C77.8624 130.325 79.2712 131.689 80.68 133.014C81.0322 133.287 81.4627 133.482 81.9323 133.832ZM31.5282 145.599C31.3717 145.21 31.3326 144.859 31.1369 144.664C29.4933 142.989 27.8888 141.313 26.1278 139.794C25.7756 139.482 24.5625 139.599 24.132 139.988C22.6058 141.274 21.197 142.755 19.7882 144.158C18.9272 144.976 18.8881 145.872 19.749 146.69C21.197 148.093 22.6841 149.457 24.132 150.859C24.9538 151.639 25.6973 151.678 26.5191 150.859C27.9671 149.457 29.4542 148.132 30.863 146.729C31.0978 146.418 31.2543 145.989 31.5282 145.599ZM119.031 133.988C119.774 133.637 120.048 133.559 120.244 133.404C121.927 131.884 123.649 130.403 125.136 128.728C125.527 128.299 125.371 126.897 124.94 126.39C123.531 124.793 121.927 123.39 120.322 121.987C120.048 121.753 119.305 121.559 119.109 121.714C117.192 123.507 115.313 125.338 113.474 127.169C113.396 127.247 113.357 127.481 113.435 127.52C115.313 129.702 117.192 131.884 119.031 133.988ZM69.4878 145.015C69.4096 144.859 69.3313 144.508 69.0965 144.313C67.492 142.716 65.8875 141.118 64.1265 139.677C63.7352 139.365 62.6003 139.443 62.2481 139.755C60.6436 141.157 59.1566 142.755 57.6695 144.275C56.9651 144.976 56.9651 145.716 57.7478 146.456C59.0783 147.703 60.3306 148.989 61.7003 150.236C62.1699 150.665 62.7177 151.093 63.3047 151.249C64.2048 151.444 69.527 146.106 69.4878 145.015ZM44.1684 133.715C44.5206 133.559 44.8728 133.52 45.0685 133.326C46.7121 131.767 48.3948 130.248 49.921 128.572C50.2341 128.221 50.195 127.091 49.8428 126.702C48.3166 125.065 46.6338 123.507 44.9119 122.026C44.5597 121.753 43.5423 121.753 43.2292 122.065C41.5465 123.546 39.9028 125.104 38.4158 126.78C38.1027 127.13 38.1027 128.26 38.4158 128.611C39.9028 130.248 41.5073 131.728 43.1118 133.248C43.3857 133.482 43.8162 133.559 44.1684 133.715ZM100.677 121.52C100.403 121.637 100.169 121.714 99.9729 121.87C98.251 123.546 96.5292 125.182 94.9247 126.936C94.6507 127.208 94.8073 128.26 95.1203 128.611C96.5292 130.131 97.9771 131.611 99.5816 132.897C100.051 133.287 101.264 133.326 101.734 132.975C103.26 131.806 104.63 130.403 106.039 129.079C106.978 128.221 106.978 127.247 106.117 126.351C104.63 124.832 103.064 123.39 101.499 121.909C101.343 121.753 100.99 121.675 100.677 121.52ZM50.508 145.404C50.3906 145.054 50.3515 144.664 50.1558 144.469C48.4731 142.833 46.8295 141.196 45.0685 139.716C44.7554 139.443 43.6205 139.638 43.2292 139.988C41.6638 141.352 40.2159 142.872 38.7288 144.275C37.9853 145.015 37.9462 145.677 38.7288 146.418C40.2942 147.898 41.7812 149.418 43.4249 150.781C43.8553 151.132 44.9902 151.171 45.3815 150.82C47.0252 149.457 48.5122 147.898 49.9993 146.379C50.2341 146.145 50.3515 145.716 50.508 145.404ZM88.3502 145.327C88.1937 145.015 88.1546 144.664 87.9198 144.43C86.237 142.755 84.5151 141.079 82.715 139.521C82.4411 139.287 81.5018 139.404 81.1497 139.677C79.506 141.118 77.9016 142.638 76.4145 144.275C76.1014 144.625 76.1405 145.833 76.4928 146.223C77.9798 147.859 79.5843 149.34 81.2279 150.82C81.541 151.093 82.4802 151.249 82.7541 151.015C84.5543 149.418 86.237 147.703 87.9198 146.028C88.1546 145.872 88.2328 145.599 88.3502 145.327ZM138.324 138.975C138.05 139.092 137.737 139.131 137.58 139.287C135.819 141.002 134.058 142.716 132.415 144.547C132.18 144.781 132.415 145.716 132.689 146.067C134.097 147.586 135.624 149.028 137.111 150.47C137.932 151.249 138.715 151.171 139.498 150.392C140.907 149.028 142.276 147.625 143.685 146.301C144.585 145.443 144.468 144.547 143.646 143.768C142.237 142.365 140.75 140.963 139.263 139.599C139.067 139.326 138.676 139.17 138.324 138.975ZM100.873 139.248C100.56 139.365 100.169 139.443 99.9729 139.638C98.4076 141.157 96.7639 142.677 95.3551 144.313C95.0421 144.703 95.1595 145.911 95.5508 146.34C96.8031 147.82 98.2119 149.223 99.7381 150.392C100.286 150.82 101.695 150.82 102.243 150.392C103.808 149.145 105.217 147.664 106.547 146.184C106.9 145.794 106.939 144.703 106.665 144.352C105.178 142.716 103.573 141.196 101.969 139.677C101.695 139.443 101.225 139.404 100.873 139.248ZM92.8115 41.3709C91.8331 40.7085 90.9722 39.8513 89.9156 39.4617C89.446 39.2669 88.4676 39.7345 87.998 40.202C84.4369 43.5919 81.0322 47.1376 77.4711 50.5274C76.3754 51.5795 75.7101 52.3587 77.0015 53.7225C78.1755 54.9693 79.193 55.32 80.5626 53.9173C84.1238 50.3326 87.7632 46.7869 91.3635 43.2412C91.7157 42.8516 91.9896 42.423 92.8115 41.3709ZM125.723 145.327C125.566 144.859 125.527 144.391 125.253 144.158C123.688 142.599 122.162 141.002 120.479 139.599C120.088 139.287 118.835 139.56 118.327 139.988C116.839 141.235 115.548 142.716 114.139 144.041C113.278 144.859 113.435 145.56 114.218 146.34C115.587 147.625 116.918 148.989 118.248 150.275C119.148 151.132 120.009 151.21 120.949 150.275C122.24 148.989 123.61 147.82 124.901 146.534C125.253 146.223 125.449 145.755 125.723 145.327ZM144.272 127.637C144.116 127.364 144.037 127.014 143.842 126.78C142.237 125.143 140.672 123.507 138.989 121.987C138.637 121.675 137.541 121.792 137.15 122.104C135.663 123.429 134.293 124.948 132.884 126.351C132.062 127.208 131.945 127.988 132.845 128.845C134.293 130.209 135.702 131.689 137.228 133.014C137.58 133.326 138.52 133.52 138.754 133.287C140.554 131.689 142.276 130.014 143.959 128.338C144.116 128.221 144.155 127.91 144.272 127.637ZM38.6506 27.6557C38.6506 28.357 38.6114 28.7466 38.6506 29.0973C38.768 29.6818 38.9245 30.2662 39.081 30.8507C39.7072 30.6169 40.4116 30.5 40.8812 30.1104C42.0552 29.1752 43.0727 28.0842 44.1684 27.1102C45.0685 26.3309 44.9511 25.5906 44.1684 24.8113C42.9161 23.6034 41.6638 22.3566 40.3724 21.2266C40.0202 20.9149 39.2767 20.5642 39.081 20.7201C38.6897 20.9928 38.3766 21.6552 38.3766 22.1228C38.4158 24.071 38.5723 26.0192 38.6506 27.6557ZM110.265 32.4872C110.969 33.4223 111.478 34.0847 111.987 34.7471C112.613 34.0068 113.787 33.2275 113.709 32.6041C113.591 31.7858 112.496 31.0845 111.83 30.3442C111.361 31.0065 110.891 31.63 110.265 32.4872Z" fill="#39676D"/>
</svg>
