<svg width="192" height="200" viewBox="0 0 192 200" fill="none" xmlns="http://www.w3.org/2000/svg">
<path d="M71.0845 193.709C71.0845 196.075 71.0845 197.789 71.0845 199.869C69.3328 199.869 67.6627 199.869 65.9925 199.869C62.5706 199.91 59.1081 200.033 55.6862 199.992C54.9123 199.992 53.9346 199.584 53.3643 199.013C49.1277 194.81 44.8912 190.567 40.7768 186.243C40.2473 185.712 39.9621 184.693 39.9214 183.917C39.8399 179.634 39.8806 175.35 39.8806 170.821C37.1921 170.821 34.6257 170.699 32.1 170.944C31.6112 170.984 30.878 172.412 30.878 173.188C30.7558 178.287 30.7965 183.387 30.7965 188.487C30.7965 189.017 30.715 189.588 30.7965 190.119C31.489 193.913 29.6966 196.442 26.3563 198.605C25.2564 197.462 24.0343 196.238 22.9344 194.892C22.5271 194.402 22.3641 193.546 22.3641 192.852C22.3234 190.078 22.4049 187.263 22.2826 184.489C22.2419 183.877 21.5494 183.305 21.142 182.734C20.8161 183.305 20.2458 183.877 20.2051 184.448C20.0829 186.61 19.9607 188.813 20.2051 190.975C20.4903 193.505 19.4719 195.259 17.6795 196.81C17.0684 197.34 16.6611 198.074 16.05 198.849C13.4429 196.442 10.6321 194.729 11.3246 190.731C11.6505 188.691 11.4468 186.528 11.3246 184.407C11.2839 183.836 10.6321 183.305 10.2655 182.775C9.89887 183.305 9.20636 183.836 9.16562 184.407C9.04342 186.855 9.00268 189.303 9.16562 191.751C9.28783 193.586 8.83973 194.974 7.37323 196.157C6.47704 196.85 5.82526 197.87 4.92907 198.89C3.25889 197.299 1.83312 195.994 0.488833 194.606C0.203681 194.321 0 193.79 0 193.383C0 183.877 0.040737 174.33 0.040737 164.824C0.040737 164.783 0.122208 164.702 0.407361 164.987C1.42576 164.253 2.4849 163.6 3.42183 162.784C6.51778 160.091 7.3325 156.624 7.29176 152.625C7.16955 141.283 7.29176 129.901 7.25102 118.559C7.25102 117.09 7.73986 116.111 8.799 115.091C15.3575 108.604 21.8753 102.036 28.3116 95.4265C29.4929 94.2434 30.1854 94.2026 31.3668 95.4265C37.1513 101.342 43.0173 107.176 48.924 113.01C49.4536 113.541 50.2276 113.745 50.8794 114.112C51.1238 113.378 51.6126 112.684 51.6126 111.95C51.6941 104.116 51.6941 96.3241 51.6126 88.4909C51.6126 87.5933 51.1645 86.4918 50.5128 85.839C47.7834 83.0239 44.8912 80.3313 41.7138 77.3122C47.6205 71.5597 53.1606 66.052 58.7414 60.6666C60.2487 59.1979 61.1041 57.6476 61.0634 55.3629C60.9005 49.8552 61.0634 44.3474 60.9412 38.8397C60.9005 37.6974 60.3302 36.3102 59.5969 35.4535C57.1935 32.8016 54.6271 30.2721 52.02 27.7834C50.8386 26.6411 50.7164 25.9067 51.9793 24.6828C55.4011 21.4189 58.66 17.9103 62.1225 14.6465C63.6705 13.2185 63.589 12.1986 62.1225 10.8523C61.1856 9.99551 60.3709 9.01636 59.3118 7.87401C62.2448 5.22214 65.0963 2.57027 67.9478 0C70.229 2.16229 72.8769 4.65097 75.4025 7.22124C75.6877 7.50683 75.5247 8.73077 75.1174 9.17955C74.099 10.4851 72.8361 11.5866 71.6141 12.8514C75.6877 17.0128 79.5169 21.011 83.3868 24.9276C84.283 25.8659 84.4052 26.7635 84.3237 27.9874C84.12 32.1488 84.0386 36.351 84.0793 40.5124C84.0793 41.7771 84.894 42.6339 86.6864 42.0627C86.6864 37.2894 86.6864 32.4344 86.6864 27.4978C87.1345 27.3755 87.5826 27.2531 88.0307 27.0899C90.1897 26.4779 90.5971 26.7227 90.5971 28.885C90.5971 32.8424 90.5156 36.7998 90.5971 40.798C90.5971 41.5732 91.2081 42.3075 91.4933 43.0827C92.1858 42.2667 93.3671 41.5324 93.4486 40.6348C93.7338 38.1461 93.5301 35.6167 93.5301 33.0872C93.5301 32.5976 93.5708 32.1488 93.6115 31.4145C94.7929 31.3737 95.9742 31.2921 97.4815 31.2513C97.4815 32.4752 97.4408 33.536 97.5222 34.5559C97.563 35.0455 97.8481 35.535 98.011 36.0246C98.4591 35.8614 99.0294 35.7798 99.3961 35.4535C100.537 34.5151 101.637 33.536 103.103 32.2304C106.118 35.3311 109.091 38.4725 112.106 41.5324C114.102 43.5723 116.179 45.5306 118.135 47.6113C119.316 48.8352 120.416 49.284 121.76 47.9784C123.104 46.6729 122.493 45.6122 121.394 44.5106C118.012 41.1652 114.713 37.7381 111.291 34.4335C110.15 33.332 110.313 32.6384 111.25 31.5776C112.146 30.5985 112.88 29.3746 113.857 27.9874C118.298 32.516 122.168 36.351 125.875 40.3084C127.341 41.8995 128.359 41.2876 129.582 40.186C130.844 39.0029 131.048 37.8605 129.704 36.555C126.241 33.128 122.86 29.5786 119.357 26.1515C118.338 25.1724 118.216 24.4788 119.316 23.5404C120.375 22.6429 121.394 21.6229 122.575 20.4806C125.508 23.4588 128.441 26.2739 131.17 29.293C132.555 30.8433 133.451 30.3129 134.633 29.1706C135.855 27.9874 135.855 26.8451 134.674 25.7027C130.763 21.8677 126.811 18.0735 122.779 14.1569C124.449 12.3618 125.834 10.8115 127.3 9.38354C127.545 9.17955 128.563 9.38354 128.93 9.70992C132.922 13.4225 132.27 12.4434 135.529 9.38354C136.833 8.1596 138.177 7.01726 139.277 5.63012C140.702 3.83501 141.639 4.40618 142.902 5.79331C144.695 7.83321 146.772 9.62832 148.605 11.5866C149.583 12.6474 150.438 12.6474 151.253 11.5458C152.068 10.4443 152.76 9.26114 153.534 8.1188C154.756 9.22034 155.164 9.58753 155.53 9.95471C157.119 11.7498 160.541 12.729 157.526 16.5232C157.771 16.5232 158.015 16.5232 158.26 16.5232C159.4 16.5232 160.5 16.6048 161.641 16.5232C163.311 16.36 163.841 16.8904 163.841 18.6855C163.637 29.2114 163.596 39.7373 163.474 50.2631C163.474 50.4671 163.433 50.6711 163.474 50.8751C163.678 51.4055 163.8 52.2214 164.126 52.303C164.574 52.4254 165.307 52.099 165.674 51.7319C168.199 49.284 170.725 46.7953 173.21 44.2658C176.306 41.1244 179.402 38.0237 182.783 34.5967C185.105 37.0038 187.305 39.2477 189.504 41.5324C190.563 42.6339 189.627 43.3683 188.934 44.1026C184.372 48.672 179.809 53.2414 175.287 57.8108C172.395 60.7482 171.703 60.2586 175.165 63.7265C179.605 68.1735 184.046 72.6204 188.567 76.9858C189.749 78.169 189.83 78.9441 188.567 80.0865C186.531 81.9224 184.657 83.9623 182.457 86.1654C181.153 84.9414 179.891 83.7991 178.669 82.5751C174.432 78.3729 170.195 74.13 166.04 69.887C164.981 68.8262 164.248 68.7854 163.148 69.8054C159.604 73.2324 155.938 76.537 152.394 79.9641C151.823 80.5352 151.416 81.596 151.416 82.4528C151.416 86.3286 151.538 90.2044 151.742 94.0802C151.783 94.7738 152.312 95.5897 152.842 96.1201C160.297 103.79 167.792 111.46 175.287 119.089C180.461 124.352 185.634 129.574 190.726 134.878C191.297 135.449 191.582 136.551 191.582 137.408C191.623 148.546 191.582 159.724 191.663 170.862C191.663 174.493 192.071 178.165 191.989 181.796C191.948 183.142 191.337 184.733 190.401 185.712C186.531 189.874 182.498 193.872 178.424 197.829C177.732 198.482 176.55 198.931 175.573 198.972C171.051 199.094 166.488 199.053 161.926 199.094C160.785 199.094 160.337 198.686 160.419 197.544C160.5 196.116 160.419 194.688 160.419 192.811C159.604 193.178 158.993 193.301 158.586 193.627C157.038 195.014 155.612 196.565 154.064 197.911C153.412 198.482 152.475 198.972 151.66 198.972C148.198 199.094 144.735 199.013 141.273 199.013C140.784 199.013 140.295 198.972 139.847 199.053C135.977 199.584 135.977 199.584 135.936 195.708C135.936 193.423 135.936 191.098 135.936 188.568C138.543 188.568 140.988 188.446 143.391 188.609C145.55 188.732 147.139 187.997 148.565 186.447C150.031 184.897 151.823 183.591 153.086 181.918C154.023 180.694 154.675 179.022 154.96 177.471C155.286 175.676 154.919 173.799 155.082 171.964C155.245 170.005 154.39 169.434 152.638 169.475C148.646 169.556 144.654 169.597 140.662 169.597C131.618 169.597 122.616 169.556 113.572 169.597C101.84 169.679 90.149 169.883 78.417 169.964C76.8283 169.964 76.1358 170.454 76.2987 172.086C76.3802 172.78 76.4209 173.473 76.2987 174.126C75.4025 178.981 77.1949 182.653 80.9019 185.794C82.9387 187.548 84.7311 188.936 87.6233 188.568C89.5379 188.283 91.5747 188.568 93.5301 188.528C94.6707 188.487 95.1188 188.976 95.0781 190.078C95.0373 192.607 95.0373 195.096 95.0781 197.626C95.0781 198.931 94.5485 199.421 93.2449 199.38C88.6825 199.339 84.1608 199.421 79.5983 199.339C78.8651 199.339 78.0096 198.931 77.4801 198.441C76.0543 197.218 74.7915 195.749 73.4064 194.484C72.9176 194.443 72.1436 194.239 71.0845 193.709ZM98.8665 111.827C98.8665 111.787 98.8665 111.746 98.8665 111.705C103.673 111.705 108.521 111.746 113.328 111.705C115.65 111.705 116.016 111.256 116.057 108.931C116.098 105.585 116.057 102.281 116.057 98.9351C116.057 90.3676 115.976 81.8 116.098 73.2324C116.139 71.6005 116.098 70.2133 114.917 68.9486C108.725 62.5025 102.573 56.0157 96.3409 49.6104C95.8113 49.0392 94.8744 48.8352 94.1411 48.468C93.7745 49.284 93.1635 50.0999 93.1227 50.9159C92.919 59.0755 92.8376 67.2351 92.6339 75.3947C92.5932 76.2923 92.1451 77.353 91.534 78.0466C89.375 80.372 87.1752 82.6975 84.8126 84.7782C83.1016 86.2878 82.5313 88.0013 82.5313 90.1228C82.5313 96.6505 82.5721 103.178 82.4906 109.706C82.4906 111.297 83.0202 111.868 84.6089 111.827C89.375 111.787 94.1411 111.827 98.8665 111.827ZM23.0159 139.978C22.9752 139.978 22.9752 139.978 22.9344 139.978C22.9344 144.058 23.2196 148.138 22.853 152.217C22.4456 156.583 23.5047 160.051 26.9673 162.702C27.6598 163.233 28.5153 163.518 29.33 163.926C29.5744 163.11 29.9818 162.335 29.9818 161.519C30.0225 153.441 29.9818 145.363 30.0632 137.285C30.0632 136.265 30.5928 135.082 31.2853 134.307C33.1999 132.186 35.2775 130.268 37.3143 128.269C39.4325 126.229 39.4325 126.107 37.2735 123.944C35.9292 122.598 34.5849 121.292 33.2407 119.946C28.8819 115.622 28.9226 115.662 24.6046 120.028C23.3825 121.252 22.8937 122.435 22.9344 124.108C23.0974 129.37 23.0159 134.674 23.0159 139.978ZM128.645 86.451C128.645 94.4882 128.604 101.995 128.726 109.502C128.726 109.991 129.663 110.807 130.193 110.848C132.066 111.011 133.981 110.93 135.896 110.93C141.232 110.93 140.54 110.685 140.377 106.401C140.377 106.116 140.417 105.871 140.417 105.585C140.54 99.8735 140.621 94.2026 140.743 88.4909C140.784 87.3485 140.58 86.451 139.155 86.451C135.896 86.451 132.555 86.451 128.645 86.451ZM77.8467 77.2714C77.4393 76.6594 77.1134 76.0475 76.6653 75.5987C74.099 72.9876 71.4919 70.4581 68.9662 67.8063C67.8256 66.6231 67.0109 66.7455 65.9517 67.8879C63.3039 70.6621 60.5746 73.3956 57.8453 76.0883C56.8269 77.0674 56.7046 77.9242 57.8045 78.9849C60.4524 81.596 63.1002 84.2071 65.6666 86.8997C66.8072 88.0829 67.6219 87.9197 68.6811 86.8181C71.3696 84.0847 74.1804 81.392 76.9098 78.6993C77.1949 78.2506 77.4393 77.8018 77.8467 77.2714ZM83.9571 67.8471C84.12 67.2759 84.2422 67.0311 84.2422 66.7863C84.3237 61.2378 84.4459 55.6485 84.4459 50.0999C84.4459 49.4472 84.0793 48.5904 83.6312 48.1008C81.1463 45.449 78.5799 42.8379 76.0135 40.2676C75.6469 39.9004 75.1988 39.6965 74.5063 39.2069C74.3026 40.1452 74.0582 40.798 74.0582 41.41C73.9768 46.6321 73.8953 51.8543 73.936 57.0764C73.936 57.9332 74.3841 58.9123 74.9544 59.5651C77.3171 62.0946 79.7613 64.5016 82.2462 66.9087C82.6535 67.2759 83.2646 67.4799 83.9571 67.8471ZM58.4156 170.536C58.4156 170.495 58.4156 170.495 58.4156 170.536C57.6823 170.495 56.9083 170.495 56.1751 170.495C52.3459 170.495 52.6718 170.536 52.1422 174.289C51.4904 179.348 52.9569 183.02 56.9083 186.324C59.1895 188.201 61.1856 189.711 64.2001 189.18C64.8519 189.058 65.4222 188.813 66.0739 188.609C65.8295 188.038 65.7073 187.304 65.2592 186.896C64.0779 185.835 63.752 184.611 63.8335 183.101C63.9964 179.634 64.0779 176.207 64.2001 172.739C64.2408 171.229 63.6705 170.413 62.0818 170.495C60.8597 170.576 59.6376 170.536 58.4156 170.536ZM173.617 169.924C172.314 169.924 171.051 170.005 169.747 169.883C167.914 169.72 167.344 170.536 167.425 172.249C167.588 175.513 167.548 178.736 167.67 182C167.751 183.836 167.67 185.508 165.918 186.651C165.592 186.855 165.552 187.467 165.348 187.875C165.796 188.079 166.244 188.364 166.733 188.446C169.666 188.854 172.191 188.242 174.025 185.631C174.595 184.815 175.328 184.04 176.143 183.469C178.872 181.551 179.565 178.981 179.443 175.717C179.28 169.883 179.443 169.883 173.617 169.924ZM61.3486 105.34C61.3486 106.85 61.3893 108.319 61.3486 109.828C61.3078 111.134 61.8374 111.664 63.1409 111.664C65.9925 111.583 68.844 111.664 71.6548 111.46C72.2251 111.419 73.1213 110.644 73.162 110.155C73.4064 107.136 73.4472 104.076 73.6101 101.016C73.6916 99.4247 72.9583 98.8127 71.4511 98.8535C68.7625 98.8943 66.0332 98.9351 63.3446 98.9351C61.9596 98.9351 61.3486 99.5879 61.3893 100.893C61.3486 102.362 61.3486 103.872 61.3486 105.34ZM67.4997 34.3927C67.9071 34.1887 68.2737 34.1071 68.5181 33.8623C70.7586 31.7 73.0398 29.5785 75.1581 27.3347C75.484 26.9675 75.4025 25.7027 75.0359 25.2948C73.1213 23.0917 71.0845 21.0518 69.0884 18.9303C68.3144 18.1143 67.6219 18.1551 66.8479 18.9711C64.7297 21.1334 62.5706 23.2957 60.4116 25.4172C59.5154 26.3147 59.7191 27.0899 60.4931 27.865C62.4077 29.7825 64.2816 31.7 66.1962 33.6175C66.522 33.9439 67.0516 34.1071 67.4997 34.3927ZM139.684 68.5814C140.01 68.4182 140.377 68.3774 140.621 68.1327C142.699 66.1743 144.776 64.2568 146.691 62.1761C147.057 61.7682 147.057 60.5034 146.731 60.0954C145.061 58.1371 143.187 56.3828 141.436 54.5469C140.54 53.6086 139.806 53.8942 139.032 54.6693C137.24 56.5052 135.407 58.3411 133.574 60.0954C132.637 60.993 132.637 61.7682 133.574 62.7065C135.285 64.42 136.995 66.1743 138.706 67.8879C138.951 68.1734 139.317 68.3366 139.684 68.5814ZM101.555 40.3492C100.985 41.2468 100.17 42.1035 99.8849 43.1235C99.722 43.6947 100.089 44.7146 100.577 45.2042C104.04 48.8352 107.625 52.3438 111.128 55.8933C112.187 56.9948 113.043 57.0764 114.183 55.9341C115.283 54.8325 115.568 53.935 114.346 52.6702C110.761 49.08 107.217 45.4082 103.673 41.8179C103.266 41.4508 102.777 41.206 101.555 40.3492ZM153.534 149.321C153.371 148.994 153.29 148.627 153.086 148.382C151.66 146.873 150.235 145.322 148.687 143.935C148.32 143.609 147.18 143.731 146.772 144.099C145.183 145.486 143.717 146.954 142.373 148.546C142.006 148.953 142.006 150.177 142.332 150.585C143.635 152.095 145.143 153.523 146.691 154.828C147.017 155.114 148.035 155.155 148.361 154.91C149.99 153.482 151.498 151.932 153.005 150.381C153.208 150.137 153.331 149.729 153.534 149.321ZM91.4118 143.813C91.0044 144.017 90.6378 144.058 90.3934 144.262C88.8454 145.771 87.2567 147.24 85.8717 148.913C85.5051 149.361 85.5865 150.708 85.9939 151.197C87.1345 152.625 88.4788 153.89 89.9046 154.992C90.3934 155.359 91.6562 155.44 92.1043 155.073C93.5708 153.89 94.8744 152.503 96.2187 151.116C97.1149 150.218 97.1556 149.157 96.2594 148.219C95.0373 146.954 93.8152 145.69 92.5524 144.466C92.2265 144.262 91.7784 144.058 91.4118 143.813ZM128.93 143.65C128.604 143.772 128.319 143.813 128.156 143.976C126.486 145.649 124.775 147.281 123.227 149.035C122.982 149.321 123.186 150.381 123.553 150.789C124.815 152.217 126.119 153.564 127.585 154.788C127.993 155.155 129.174 155.196 129.582 154.869C131.048 153.686 132.474 152.381 133.614 150.912C134.062 150.3 134.225 148.872 133.818 148.301C132.718 146.791 131.292 145.526 129.948 144.221C129.704 143.976 129.296 143.854 128.93 143.65ZM166.937 125.413C166.407 125.699 165.877 125.862 165.511 126.188C164.207 127.453 162.944 128.799 161.641 130.023C160.622 130.962 160.663 131.859 161.641 132.797C162.904 134.021 164.126 135.286 165.429 136.428C165.796 136.755 166.774 137.04 167.018 136.796C168.892 135.082 170.684 133.287 172.517 131.492C171.499 130.146 170.521 128.758 169.503 127.412C169.177 127.004 168.81 126.555 168.403 126.229C167.955 125.943 167.466 125.739 166.937 125.413ZM153.697 131.247C153.371 130.717 153.127 130.227 152.76 129.86C151.66 128.677 150.479 127.535 149.339 126.351C148.402 125.331 147.546 125.372 146.568 126.351C145.306 127.657 143.961 128.881 142.617 130.146C141.599 131.084 141.68 131.982 142.699 132.879C143.88 133.981 145.021 135.164 146.161 136.306C147.098 137.244 148.035 137.244 149.013 136.306C150.275 135.082 151.538 133.858 152.76 132.593C153.086 132.267 153.331 131.778 153.697 131.247ZM78.417 131.9C78.2948 131.614 78.254 131.329 78.0504 131.166C76.5431 129.534 75.0359 127.861 73.4064 126.392C73.1213 126.147 72.0214 126.392 71.5733 126.759C70.1476 127.983 68.8847 129.411 67.5405 130.717C66.5628 131.655 66.4813 132.512 67.459 133.491C68.7218 134.715 69.8624 136.021 71.2067 137.163C71.6548 137.53 72.7547 137.734 73.0806 137.448C74.7915 135.939 76.3802 134.266 78.0096 132.675C78.254 132.471 78.3355 132.186 78.417 131.9ZM59.7191 150.055C59.5969 149.769 59.5562 149.484 59.3932 149.321C57.886 147.77 56.4195 146.138 54.79 144.751C54.4234 144.425 53.1606 144.67 52.6718 145.078C51.2053 146.302 49.861 147.648 48.6796 149.117C48.313 149.606 48.2723 150.871 48.6389 151.361C49.8202 152.829 51.2053 154.176 52.631 155.4C53.0384 155.726 54.0975 155.889 54.4234 155.604C56.1343 154.094 57.7638 152.462 59.3525 150.83C59.5154 150.585 59.5969 150.3 59.7191 150.055ZM109.987 137.612C110.191 137.489 110.476 137.448 110.639 137.244C112.146 135.817 113.776 134.429 115.079 132.838C115.487 132.308 115.324 130.839 114.876 130.186C113.939 128.799 112.595 127.698 111.454 126.474C110.639 125.576 109.865 125.535 109.051 126.392C107.625 127.861 106.199 129.289 104.855 130.798C104.529 131.166 104.244 132.145 104.447 132.349C106.036 134.103 107.706 135.776 109.376 137.448C109.458 137.53 109.702 137.53 109.987 137.612ZM59.7191 131.941C59.6376 131.778 59.6376 131.533 59.5154 131.41C57.9675 129.819 56.501 128.147 54.79 126.719C54.4234 126.392 53.0791 126.8 52.5496 127.249C51.246 128.31 50.1461 129.615 49.0055 130.88C48.6796 131.206 48.3537 131.614 48.2315 132.022C47.9464 133.124 53.2013 138.428 54.0161 137.775C56.0529 136.143 57.8045 134.185 59.6784 132.349C59.7191 132.267 59.6784 132.104 59.7191 131.941ZM91.4933 125.862C91.0859 126.025 90.7193 126.107 90.5156 126.311C88.9269 127.861 87.2975 129.411 85.8717 131.084C85.5458 131.492 85.7088 132.716 86.1161 133.205C87.2975 134.593 88.6825 135.817 89.9453 137.081C90.8008 137.938 91.534 137.816 92.3487 136.959C93.4893 135.735 94.7522 134.593 95.9742 133.45C97.0741 132.43 97.1556 131.37 96.1372 130.268C94.9966 129.044 93.8152 127.82 92.5931 126.637C92.308 126.311 91.9006 126.107 91.4933 125.862ZM129.052 125.658C128.726 125.78 128.441 125.821 128.278 125.984C126.649 127.616 124.978 129.166 123.512 130.921C123.227 131.247 123.43 132.389 123.797 132.838C125.019 134.266 126.363 135.613 127.789 136.836C128.156 137.163 129.256 137.204 129.582 136.877C131.17 135.531 132.718 134.062 134.062 132.512C134.429 132.104 134.511 130.88 134.185 130.431C132.963 128.922 131.496 127.575 130.111 126.188C129.826 125.943 129.419 125.821 129.052 125.658ZM166.896 143.487C166.57 143.609 166.244 143.65 166.081 143.813C164.411 145.445 162.659 147.077 161.111 148.831C160.867 149.117 161.152 150.218 161.519 150.667C162.659 151.973 163.881 153.278 165.226 154.38C165.714 154.747 166.896 154.951 167.303 154.624C168.851 153.36 170.358 151.932 171.58 150.341C171.988 149.851 171.866 148.464 171.458 147.893C170.481 146.546 169.177 145.404 167.996 144.221C167.711 143.895 167.262 143.731 166.896 143.487ZM78.2133 150.055C78.0911 149.688 78.0911 149.361 77.9282 149.198C76.4617 147.648 74.9952 146.016 73.4064 144.629C73.0806 144.343 71.8992 144.547 71.4511 144.955C69.9846 146.22 68.5589 147.607 67.3368 149.117C66.9701 149.565 67.0516 150.83 67.459 151.32C68.5181 152.666 69.9031 153.808 71.1252 155.073C71.9399 155.93 72.6732 156.052 73.5694 155.196C74.9137 153.89 76.2987 152.585 77.6023 151.238C77.8874 150.871 78.0096 150.381 78.2133 150.055ZM110.191 143.691C109.784 143.935 109.417 144.017 109.213 144.262C107.666 145.771 106.077 147.281 104.733 148.953C104.407 149.361 104.61 150.667 105.018 151.197C106.077 152.503 107.421 153.564 108.562 154.828C109.458 155.848 110.232 155.726 111.128 154.828C112.309 153.604 113.532 152.462 114.754 151.279C115.935 150.177 115.894 149.117 114.754 147.974C113.654 146.873 112.554 145.771 111.454 144.67C111.047 144.303 110.598 144.017 110.191 143.691ZM152.597 27.1307C152.679 25.5395 152.72 24.3972 152.801 23.2549C152.842 22.0309 152.19 21.7861 151.294 22.3981C150.52 22.9285 149.827 23.5812 149.216 24.2748C146.406 27.2939 145.55 26.8859 149.216 30.0681C149.664 30.4761 150.072 30.9657 150.52 31.3329C151.742 32.2712 152.475 31.9856 152.597 30.3945C152.679 29.1298 152.597 27.9058 152.597 27.1307ZM81.0241 34.0663C80.4538 33.2504 80.0464 32.72 79.6391 32.1488C78.9466 32.8016 77.8059 33.4544 77.7245 34.1479C77.6837 34.8007 78.8243 35.5351 79.4354 36.2694C79.9242 35.5759 80.4131 34.9231 81.0241 34.0663Z" fill="#946046"/>
</svg>
