<svg width="159" height="162" viewBox="0 0 159 162" fill="none" xmlns="http://www.w3.org/2000/svg">
<path d="M53.6929 146.181L53.9477 146.29L50.9629 153.17L50.1257 152.806L51.5089 149.566L52.4553 147.637L45.685 150.913L45.3938 150.804L48.3786 143.888L49.2157 144.252L47.7962 147.564L46.9226 149.421L53.6929 146.181Z" fill="white"/>
<path d="M39.2058 147.528C37.9683 146.8 37.0947 145.38 37.4951 143.815L38.2594 144.252C38.1503 145.38 38.6962 146.254 39.6426 146.8C41.135 147.71 42.773 147.164 43.6466 145.671C44.4838 144.215 44.1562 142.505 42.6638 141.631C41.681 141.049 40.5162 141.049 39.6426 141.777L38.8782 141.34C40.1158 140.102 41.7538 140.139 43.0642 140.903C44.8842 141.959 45.6122 144.106 44.411 146.145C43.2462 148.147 41.0258 148.62 39.2058 147.528Z" fill="white"/>
<path d="M35.0199 143.815L34.5467 144.47L30.0695 141.231L30.5427 140.575L32.4355 141.922L36.3667 136.499L37.0583 137.008L33.1271 142.432L35.0199 143.815Z" fill="white"/>
<path d="M30.5791 131.548C32.1443 133.004 32.3627 135.225 30.7611 136.972C29.1231 138.719 26.8664 138.646 25.3376 137.227C23.7724 135.807 23.554 133.514 25.1556 131.803C26.6844 130.092 28.9047 129.983 30.5791 131.548ZM30.0331 132.131C28.832 131.002 27.0484 131.039 25.8108 132.385C24.5732 133.732 24.646 135.479 25.8836 136.608C27.0848 137.736 28.8683 137.7 30.1059 136.353C31.3435 135.006 31.2343 133.259 30.0331 132.131Z" fill="white"/>
<path d="M26.1384 127.326L20.4236 132.167C19.7684 131.403 19.1132 130.638 18.4581 129.874C17.4025 128.636 17.6209 127.144 18.7128 126.198C19.8048 125.288 21.3336 125.36 22.3528 126.562L23.736 128.163L25.556 126.634L26.1384 127.326ZM21.7704 127.071C21.1152 126.307 20.0596 126.198 19.2952 126.853C18.5309 127.508 18.4217 128.564 19.1132 129.328C19.55 129.874 20.0232 130.42 20.4964 130.966L23.19 128.673L21.7704 127.071Z" fill="white"/>
<path d="M21.0788 121.065L21.2244 121.32L14.9637 125.506L14.4541 124.742L17.3661 122.776L19.2224 121.648L11.7969 120.701L11.6149 120.446L17.8757 116.26L18.3853 116.988L15.4005 118.99L13.6533 120.082L21.0788 121.065Z" fill="white"/>
<path d="M12.4885 114.95C12.1609 114.295 11.8697 113.712 11.5057 113.53C11.0325 113.239 10.1953 113.348 9.46734 113.494C8.44815 113.676 7.64736 113.53 7.21057 112.147L7.75656 111.892C8.04776 112.693 8.52095 112.839 9.32174 112.657C10.1225 112.511 10.9233 112.366 11.5785 112.657L13.6533 108.653L13.7625 108.58L14.2357 109.49L12.2337 113.203C12.5249 113.494 12.9253 114.258 13.1073 114.622L16.0557 113.13L16.4561 113.931L9.79494 117.352L9.39455 116.552L12.4885 114.95Z" fill="white"/>
<path d="M11.9789 103.557C12.7069 105.559 11.9061 107.634 9.64934 108.471C7.39256 109.308 5.42698 108.18 4.69899 106.214C3.971 104.249 4.80819 102.101 7.02857 101.3C9.13975 100.536 11.1781 101.446 11.9789 103.557ZM11.1781 103.848C10.5957 102.283 9.03054 101.519 7.31976 102.137C5.60898 102.756 4.88099 104.358 5.46338 105.923C6.00938 107.452 7.61096 108.253 9.35814 107.597C11.0325 107.015 11.7605 105.413 11.1781 103.848Z" fill="white"/>
<path d="M6.22778 98.9706L5.39058 95.5854L6.11858 95.4034L6.95577 98.7886L6.22778 98.9706Z" fill="white"/>
<path d="M4.48059 91.8727C4.37139 91.1447 4.2622 90.5259 4.0074 90.1983C3.6434 89.7615 2.80621 89.6159 2.07822 89.5431C1.05903 89.3975 0.331036 88.9971 0.367436 87.5775L0.949829 87.5047C0.986229 88.3419 1.38663 88.6331 2.18742 88.7423C2.98821 88.8515 3.789 88.9971 4.33499 89.4339L7.57456 86.2671L7.68376 86.2307L7.82936 87.2499L4.77179 90.1255C4.95379 90.4895 5.09939 91.3267 5.17219 91.7271L8.44815 91.2175L8.59375 92.0911L1.20463 93.2195L1.05903 92.3459L4.48059 91.8727Z" fill="white"/>
<path d="M7.61096 84.2652L0.112636 84.5928C0.0762361 83.61 0.00343846 82.5544 0.00343846 81.5716C-0.0693608 79.97 1.02263 78.878 2.44221 78.8416C3.8618 78.7688 5.02659 79.788 5.09939 81.3532L5.17218 83.4644L7.53816 83.3552L7.61096 84.2652ZM4.29859 81.3896C4.26219 80.4068 3.4978 79.6424 2.47861 79.7152C1.45942 79.7516 0.76783 80.516 0.804229 81.5352C0.804229 82.2268 0.877027 82.9548 0.877027 83.6828L4.40779 83.5372L4.29859 81.3896Z" fill="white"/>
<path d="M5.64538 75.4564L7.42896 76.4756L7.35616 77.422H7.24696L0.112635 73.3817L0.149034 72.9813L7.79296 70.0329H7.90216L7.82936 70.9429L5.93658 71.7073L5.64538 75.4564ZM4.88099 75.0924L5.09939 71.9257L1.49582 73.2725L4.88099 75.0924Z" fill="white"/>
<path d="M2.36941 62.6438L1.75062 66.0653L4.15299 66.5021L4.73539 63.1898L5.49978 63.3354L4.91739 66.6477L7.53816 67.1209L8.15695 63.5902L8.95775 63.7358L8.15695 68.1765L0.76783 66.8661L1.53222 62.571L2.36941 62.6438Z" fill="white"/>
<path d="M6.95577 56.1282C7.42896 55.3638 8.19335 55.0727 9.06695 55.3275C10.3773 55.6914 10.8141 56.8562 10.4137 58.203L9.50374 61.3334L2.29661 59.2586L3.13381 56.4194C3.4978 55.1091 4.37139 54.3083 5.75458 54.7087C6.40977 54.9271 6.91937 55.4002 6.95577 56.1282ZM3.3158 58.6034L5.71818 59.295L6.22778 57.5114C6.48257 56.6014 6.37337 55.837 5.53618 55.5822C4.66259 55.3274 4.1166 55.837 3.8982 56.7106L3.3158 58.6034ZM6.99217 57.7298L6.48257 59.5134L9.03055 60.2414L9.64934 58.1666C9.90414 57.2566 9.72214 56.4558 8.84855 56.201C7.79296 55.8734 7.24696 56.747 6.99217 57.7298Z" fill="white"/>
<path d="M7.39257 47.1375L6.08218 50.3407L8.33895 51.2507L9.61294 48.1567L10.3409 48.4479L9.06695 51.5419L11.5057 52.5611L12.8525 49.2487L13.6169 49.5763L11.9061 53.7259L4.99019 50.8867L6.66457 46.8463L7.39257 47.1375Z" fill="white"/>
<path d="M13.7261 47.4651C14.0901 46.7735 13.7625 46.4459 13.1437 46.0091L8.63015 42.8424C9.28534 41.6412 10.0861 40.1852 10.7413 38.9476L16.6381 42.1508L17.0385 41.4228L18.7856 42.3692L18.4217 43.0608L17.3661 42.4784C16.4561 44.1164 15.6189 45.7179 14.7089 47.3559L15.7645 47.9383L15.4005 48.6299L13.6533 47.6835L13.7261 47.4651ZM13.6169 45.2083C13.9445 45.4267 14.3813 45.7907 14.4177 46.2275L16.2377 42.8788L10.9961 40.0396L9.68574 42.4784L13.6169 45.2083Z" fill="white"/>
<path d="M21.1516 36.7272L18.8584 35.1256C17.5845 37.6736 15.9101 38.5108 13.3621 36.7272L12.4521 36.1084L12.9617 35.3804L13.8717 35.9992C15.9101 37.4188 17.1113 36.7636 18.1669 34.6525L15.0365 32.4321L15.5461 31.7041L21.6612 35.9992L21.1516 36.7272Z" fill="white"/>
<path d="M21.188 26.0621L18.9312 28.6829L20.7876 30.2845L22.9716 27.7365L23.554 28.2461L21.37 30.7941L23.372 32.5413L25.7016 29.8113L26.3204 30.3573L23.372 33.7789L17.7301 28.9013L20.6056 25.5889L21.188 26.0621Z" fill="white"/>
<path d="M25.3012 20.7842C26.3568 19.8014 27.9584 19.401 29.3415 20.2382L28.6864 20.8206C27.6672 20.3838 26.648 20.6386 25.8472 21.403C24.5732 22.5678 24.5732 24.315 25.7744 25.5889C26.9392 26.8265 28.65 27.0085 29.9239 25.8437C30.7611 25.043 31.0887 23.9874 30.6519 22.8954L31.3071 22.313C32.1443 23.8418 31.5983 25.4069 30.5063 26.4261C28.9776 27.8457 26.7208 27.9549 25.1192 26.2077C23.5176 24.4606 23.6996 22.2038 25.3012 20.7842Z" fill="white"/>
<path d="M33.0179 18.855C33.6003 18.4182 34.1099 18.0178 34.2919 17.6902C34.5103 17.1806 34.2555 16.3434 34.0007 15.6882C33.6367 14.7055 33.6731 13.9047 34.9835 13.2495L35.3475 13.7227C34.6195 14.1595 34.5467 14.6327 34.8379 15.397C35.0927 16.1614 35.3475 16.9258 35.2019 17.6174L39.497 19.0734L39.5698 19.1826L38.7326 19.8014L34.7651 18.4182C34.5103 18.7458 33.8551 19.2554 33.4911 19.5102L35.4567 22.2038L34.7287 22.7134L30.3243 16.671L31.0523 16.1614L33.0179 18.855Z" fill="white"/>
<path d="M41.0986 16.0522L41.2442 18.0906L40.4434 18.5638L40.3706 18.4546L39.7882 10.2647L40.1522 10.0463L46.8134 14.7783L46.8862 14.8875L46.0854 15.3242L44.411 14.1595L41.0986 16.0522ZM40.953 15.215L43.7194 13.6499L40.6254 11.3931L40.953 15.215Z" fill="white"/>
<path d="M48.8153 10.9563C47.7234 11.1383 46.7042 10.6287 46.2674 9.5731C45.7214 8.29912 46.2674 6.95233 47.687 6.36994L50.4533 5.20515L53.3653 12.1211L52.5281 12.4851L51.4725 9.9735L49.6525 10.7379L48.8153 14.0503L47.9054 14.4143L47.869 14.3051L48.8153 10.9563ZM51.2177 9.24551L49.9801 6.29714L48.051 7.09793C47.141 7.46193 46.7406 8.33552 47.1046 9.24551C47.4686 10.1555 48.4149 10.4467 49.2885 10.0827L51.2177 9.24551Z" fill="white"/>
<path d="M59.3348 5.49635L61.4096 4.98675C63.1204 4.58636 64.176 5.27795 64.5036 6.55194C64.7948 7.82592 64.176 8.99071 62.5016 9.39111C61.5552 9.60951 60.536 9.8643 59.5896 10.0827C59.0072 7.64392 58.4249 5.24155 57.8425 2.80277L62.6836 1.63798L62.8656 2.40238L58.8616 3.38517L59.3348 5.49635ZM59.5168 6.22434L60.2084 9.09991C60.9 8.91791 61.628 8.77232 62.2832 8.59032C63.4116 8.33552 63.8484 7.60752 63.63 6.73393C63.448 5.93314 62.72 5.42355 61.5916 5.71475L59.5168 6.22434Z" fill="white"/>
<path d="M67.452 8.37192L67.1608 8.40832L66.2508 0.946393L67.1608 0.837193L67.5976 4.33156L67.7796 6.47914L71.9655 0.254799L72.2931 0.2184L73.2031 7.68033L72.3295 7.78952L71.8927 4.22236L71.7107 2.18398L67.452 8.37192Z" fill="white"/>
<path d="M76.7703 2.98477H78.9178C80.665 2.98477 81.5386 3.89476 81.575 5.20515C81.575 6.51554 80.7014 7.49833 78.9543 7.49833C77.9715 7.49833 76.9159 7.49833 75.9331 7.53473C75.9331 5.02315 75.8967 2.54798 75.8967 0.0364019L80.8834 0V0.800794L76.7703 0.837193V2.98477ZM76.8067 3.74916L76.8431 6.69753C77.5347 6.69753 78.2991 6.69753 78.9543 6.69753C80.119 6.69753 80.7014 6.11514 80.7014 5.20515C80.7014 4.36796 80.119 3.74916 78.9543 3.74916H76.8067Z" fill="white"/>
<path d="M85.4334 5.93314C85.1058 7.38913 84.5234 7.89872 82.9582 7.46193L83.031 6.80673C84.0138 7.06153 84.3414 6.66113 84.5234 5.78754L85.7246 0.254799C87.1442 0.400398 88.8913 0.582394 90.2745 0.727993L89.4737 8.18992L88.6002 8.08072L89.3281 1.41959L86.4526 1.12839L85.4334 5.93314Z" fill="white"/>
<path d="M92.5313 8.73591L92.2401 8.66311L93.9145 1.34679L94.7881 1.56519L93.9873 4.98675L93.4049 7.06153L99.4472 2.65717L99.7384 2.72997L98.0641 10.0463L97.1905 9.8279L97.9913 6.29714L98.5372 4.29516L92.5313 8.73591Z" fill="white"/>
<path d="M103.852 12.0483C101.85 11.3203 100.794 9.35471 101.631 7.09793C102.468 4.84115 104.58 4.07676 106.545 4.80475C108.511 5.53275 109.603 7.53473 108.802 9.7551C108.001 11.9027 105.999 12.8491 103.852 12.0483ZM104.143 11.2839C105.708 11.8663 107.31 11.1383 107.928 9.46391C108.547 7.75312 107.819 6.15154 106.254 5.56915C104.725 4.98675 103.087 5.71474 102.468 7.42553C101.85 9.13631 102.614 10.7015 104.143 11.2839Z" fill="white"/>
<path d="M111.86 7.97152L112.224 7.24353L117.137 9.7187L116.773 10.4467L114.699 9.39111L111.678 15.3606L110.913 14.9603L113.934 8.99071L111.86 7.97152Z" fill="white"/>
<path d="M122.816 14.0867L119.867 12.2303L118.557 14.3051L121.396 16.0886L120.996 16.7438L118.157 14.9603L116.737 17.217L119.795 19.1462L119.358 19.8378L115.536 17.4354L119.503 11.1019L123.216 13.4315L122.816 14.0867Z" fill="white"/>
<path d="M124.527 18.5638C125.109 19.0006 125.619 19.401 126.019 19.4374C126.565 19.5102 127.293 19.037 127.875 18.6002C128.713 17.9814 129.513 17.7994 130.46 18.855L130.096 19.3282C129.477 18.7458 129.004 18.8186 128.349 19.2918C127.693 19.765 127.002 20.2018 126.31 20.2382L126.128 24.7518L126.055 24.861L125.255 24.2422L125.509 20.0562C125.109 19.9106 124.454 19.401 124.126 19.1462L122.088 21.767L121.396 21.221L125.983 15.3243L126.674 15.8702L124.527 18.5638Z" fill="white"/>
<path d="M129.441 25.5161L127.511 26.2077L126.856 25.5525L126.929 25.4797L134.609 22.6406L134.9 22.9318L132.207 30.6485L132.134 30.7213L131.479 30.0661L132.134 28.1369L129.441 25.5161ZM130.205 25.1885L132.462 27.4089L133.772 23.8054L130.205 25.1885Z" fill="white"/>
<path d="M135.883 35.2348L135.701 35.0164L141.78 30.6121L142.326 31.3401L139.487 33.4149L137.703 34.5797L145.165 35.2348L145.347 35.4896L139.268 39.894L138.759 39.166L141.671 37.0548L143.382 35.9264L135.883 35.2348Z" fill="white"/>
<path d="M150.48 44.3712L150.662 44.6623L144.073 48.2659L143.636 47.4651L148.368 44.8808L144.219 44.3348L144.146 44.2256L145.93 40.44L141.198 43.0244L140.761 42.2236L147.349 38.62L147.531 38.9476L145.347 43.6796L150.48 44.3712Z" fill="white"/>
<path d="M153.028 52.3427L151.717 49.1031L149.46 50.0131L150.734 53.1435L150.006 53.4347L148.732 50.3043L146.257 51.2871L147.604 54.6358L146.84 54.9271L145.165 50.7411L152.118 47.9383L153.756 52.0151L153.028 52.3427Z" fill="white"/>
<path d="M148.987 61.9158L152.372 60.9694L151.28 57.1474L147.895 58.0938L147.64 57.2202L154.847 55.1818L155.102 56.0554L152.081 56.929L153.173 60.751L156.194 59.8774L156.449 60.751L149.242 62.7894L148.987 61.9158Z" fill="white"/>
<path d="M149.861 65.8105L149.824 65.5193L157.25 64.3546L157.395 65.2645L153.938 65.8105L151.79 66.0653L158.16 70.0329L158.196 70.3241L150.771 71.4889L150.625 70.6153L154.192 70.0693L156.231 69.8145L149.861 65.8105Z" fill="white"/>
<path d="M151.208 78.1864V77.8952L158.706 78.0044V78.9144L155.211 78.8416L153.064 78.696L158.669 83.6828V84.0104L151.171 83.9012V82.9912L154.775 83.064L156.813 83.1732L151.208 78.1864Z" fill="white"/>
<path d="M151.28 86.5219C151.608 86.5583 151.754 86.8131 151.717 87.1043C151.681 87.4319 151.462 87.6503 151.135 87.6139C150.844 87.5775 150.662 87.3227 150.698 86.9951C150.734 86.7039 150.989 86.4855 151.28 86.5219Z" fill="white"/>
<path d="M150.407 90.3803L150.443 90.0891L157.832 91.5087L157.65 92.3823L154.192 91.7271L152.081 91.2175L156.74 97.1142L156.667 97.4054L149.278 95.9858L149.46 95.1122L152.991 95.8038L154.993 96.277L150.407 90.3803Z" fill="white"/>
<path d="M149.06 98.6066C149.388 98.6794 149.497 98.9706 149.388 99.2618C149.315 99.553 149.06 99.735 148.732 99.6622C148.441 99.5894 148.332 99.2982 148.405 98.9706C148.514 98.7158 148.805 98.5338 149.06 98.6066Z" fill="white"/>
<path d="M149.861 107.415C149.315 108.143 148.55 108.362 147.713 108.071C146.439 107.597 146.075 106.433 146.585 105.086L147.713 102.028L154.738 104.649L153.719 107.415C153.246 108.689 152.336 109.417 150.989 108.944C150.298 108.689 149.861 108.143 149.861 107.415ZM149.934 105.814L150.589 104.067L148.114 103.157L147.349 105.195C147.022 106.105 147.167 106.906 148.004 107.233C148.987 107.634 149.606 106.76 149.934 105.814ZM153.646 105.231L151.317 104.358L150.662 106.105C150.334 107.015 150.37 107.779 151.244 108.071C152.081 108.398 152.664 107.925 152.955 107.088L153.646 105.231Z" fill="white"/>
<path d="M145.966 111.092L144.728 109.454L145.165 108.617L145.274 108.653L150.298 115.132L150.116 115.496L141.926 115.241L141.816 115.205L142.253 114.368L144.292 114.404L145.966 111.092ZM146.512 111.71L145.092 114.513L148.914 114.695L146.512 111.71Z" fill="white"/>
<path d="M145.238 123.832C144.437 125.033 142.981 125.797 141.416 125.288L141.889 124.56C142.981 124.742 143.928 124.268 144.546 123.358C145.529 121.939 145.129 120.264 143.673 119.282C142.253 118.335 140.542 118.554 139.56 120.01C138.904 120.956 138.868 122.084 139.523 123.031L139.05 123.759C137.885 122.448 138.031 120.81 138.868 119.573C140.033 117.826 142.217 117.243 144.182 118.554C146.148 119.828 146.439 122.084 145.238 123.832Z" fill="white"/>
<path d="M135.483 124.378L135.665 124.159L141.343 129.073L140.761 129.765L138.104 127.472L136.538 125.979L137.594 133.405L137.376 133.623L131.697 128.709L132.28 128.018L135.01 130.383L136.502 131.803L135.483 124.378Z" fill="white"/>
<path d="M129.914 133.041C129.004 131.839 129.04 131.075 130.387 130.165L130.824 130.675C129.95 131.221 130.096 131.73 130.605 132.495L133.918 137.081C132.862 138.027 131.552 139.229 130.533 140.139L125.509 134.569L126.165 133.987L130.642 138.937L132.789 137.008L129.914 133.041Z" fill="white"/>
<path d="M123.689 144.288L126.492 142.25L125.073 140.248L122.343 142.213L121.869 141.595L124.599 139.629L123.034 137.481L120.122 139.593L119.649 138.937L123.289 136.317L127.657 142.395L124.09 144.943L123.689 144.288ZM125.983 145.053C126.165 145.307 126.092 145.599 125.837 145.744C125.619 145.926 125.291 145.89 125.109 145.671C124.927 145.453 125.036 145.125 125.255 144.98C125.509 144.798 125.837 144.798 125.983 145.053ZM128.057 143.56C128.239 143.815 128.167 144.106 127.912 144.252C127.657 144.434 127.366 144.397 127.184 144.179C127.002 143.961 127.111 143.633 127.329 143.487C127.584 143.305 127.875 143.342 128.057 143.56Z" fill="white"/>
<path d="M115.863 145.781C114.99 145.999 114.225 145.671 113.789 144.907C113.097 143.742 113.607 142.577 114.808 141.886L117.647 140.248L121.36 146.763L118.812 148.219C117.647 148.911 116.446 148.875 115.754 147.637C115.39 147.018 115.39 146.327 115.863 145.781ZM116.955 144.616L118.557 143.706L117.247 141.413L115.354 142.505C114.517 142.978 114.116 143.669 114.553 144.47C115.063 145.38 116.082 145.125 116.955 144.616ZM120.195 146.509L118.957 144.361L117.356 145.271C116.519 145.744 116.082 146.363 116.519 147.164C116.955 147.965 117.72 147.965 118.484 147.491L120.195 146.509Z" fill="white"/>
<path d="M110.513 146.145L110.586 144.106L111.459 143.742L111.496 143.851L111.204 152.041L110.84 152.187L104.725 146.727L104.689 146.618L105.526 146.254L107.055 147.601L110.513 146.145ZM110.549 146.945L107.637 148.183L110.476 150.767L110.549 146.945Z" fill="white"/>
<path d="M62.6108 146.618H60.6452V161.578H62.6108V146.618Z" fill="white"/>
<path d="M66.0324 146.618H64.0668V161.578H66.0324V146.618Z" fill="white"/>
<path d="M78.8086 146.618H76.8431V161.578H78.8086V146.618Z" fill="white"/>
<path d="M82.4122 146.618H80.4466V151.313H82.4122V146.618Z" fill="white"/>
<path d="M82.4122 154.334H80.4466V161.578H82.4122V154.334Z" fill="white"/>
<path d="M94.4969 146.618H92.5313V161.578H94.4969V146.618Z" fill="white"/>
<path d="M98.0641 146.618H96.0985V151.313H98.0641V146.618Z" fill="white"/>
<path d="M98.0641 154.334H96.0985V161.578H98.0641V154.334Z" fill="white"/>
<path d="M66.0324 146.581H60.6452V146.873H66.0324V146.581Z" fill="white"/>
<path d="M98.0641 146.618H92.5313V146.873H98.0641L98.0641 146.618Z" fill="white"/>
<path d="M98.0641 161.432H92.5313V161.687H98.0641V161.432Z" fill="white"/>
<path d="M96.7173 154.589C96.6081 154.589 94.2785 154.298 94.2785 152.842C94.2785 151.532 96.6081 151.095 96.7173 151.058L96.7537 151.204C96.7173 151.204 94.4241 151.677 94.4241 152.842C94.4241 154.189 96.7173 154.444 96.7173 154.48V154.589Z" fill="white"/>
<path d="M80.9926 154.589C80.8834 154.589 78.5539 154.298 78.5539 152.842C78.5539 151.532 80.8834 151.095 80.9926 151.058L81.029 151.204C80.9926 151.204 78.6994 151.677 78.6994 152.842C78.6994 154.189 80.9926 154.444 80.9926 154.48V154.589Z" fill="white"/>
<path d="M71.9291 146.654C71.2375 146.545 70.5459 146.8 70.1091 147.346C69.7815 147.746 69.4539 148.292 69.3811 148.984C69.2719 149.857 69.2719 151.568 69.3447 152.769C69.3811 153.606 69.5631 154.407 69.8543 155.172C70.3639 156.373 71.0919 158.266 71.2011 159.103C71.3467 160.413 70.9827 160.996 70.7643 161.141C70.6187 161.25 70.7643 159.794 70.6551 159.54C70.4367 159.03 69.5267 158.921 69.09 159.321C68.6896 159.685 68.4348 161.469 70.6187 161.542C72.8027 161.578 73.8583 160.086 74.0039 159.43C74.1495 158.775 74.2587 154.589 74.2587 154.589L72.5115 154.626L72.4023 158.921C72.4023 159.503 72.3659 160.122 72.0747 160.632C71.9655 160.814 71.9291 160.886 71.7107 161.068C71.4559 161.323 71.0555 161.323 70.9463 161.323C70.9099 161.323 70.9099 161.287 70.9099 161.25C71.1647 161.068 71.6015 160.304 71.6379 159.758C71.7107 158.52 70.9463 153.424 70.8735 152.806C70.8371 152.187 70.7643 148.147 70.7643 147.71C70.7643 147.091 71.9291 146.909 72.0747 147.637C72.4387 149.129 72.3659 151.277 72.3659 151.277H74.1131C74.1131 151.277 74.1495 148.329 73.0211 147.164C72.7299 146.873 72.2931 146.727 71.9291 146.654Z" fill="white"/>
<path d="M89.9469 152.951C89.3281 150.804 88.4182 148.802 88.3454 147.928C88.2726 147.055 88.2725 146.509 88.2725 146.509C88.2725 146.509 85.4698 146.873 85.1058 151.095C84.7418 155.317 86.7802 159.212 86.9622 160.013C87.1442 160.814 86.9986 161.687 86.9986 161.687C86.9986 161.687 89.2189 160.122 89.7649 159.03C90.5293 157.428 90.5657 155.099 89.9469 152.951ZM89.2189 157.61C89.0733 158.848 88.5273 159.831 88.1998 160.304C88.1634 160.377 88.0178 160.34 88.0178 160.268C87.9086 159.722 87.5446 158.12 86.5618 154.516C85.3606 150.076 86.6346 148.11 86.6346 148.11C86.6346 148.11 87.0714 147.419 86.9986 147.746C86.9258 148.074 86.9986 149.42 87.2898 150.33C87.581 151.24 89.5465 155.026 89.2189 157.61Z" fill="white"/>
<path d="M125.182 33.4149C112.952 21.1846 96.6809 14.4507 79.3546 14.4507C62.0284 14.4507 45.7942 21.1846 33.5275 33.4149C21.2972 45.6451 14.5633 61.9158 14.5633 79.242C14.5633 96.5318 21.2972 112.802 33.5275 125.069C45.7578 137.299 62.0284 144.033 79.3546 144.033C96.6809 144.033 112.952 137.299 125.182 125.069C137.412 112.839 144.146 96.5682 144.146 79.242C144.146 61.9158 137.412 45.6451 125.182 33.4149ZM79.3546 141.522C44.9934 141.522 17.0749 113.567 17.0749 79.242C17.0749 44.9171 45.0298 16.9622 79.3546 16.9622C113.716 16.9622 141.634 44.9171 141.634 79.242C141.634 113.567 113.716 141.522 79.3546 141.522Z" fill="white"/>
<path d="M79.3546 16.9258C44.9934 16.9258 17.0749 44.8807 17.0749 79.2056C17.0749 113.53 44.9934 141.522 79.3546 141.522C113.716 141.522 141.634 113.567 141.634 79.242C141.634 44.9171 113.716 16.9258 79.3546 16.9258ZM111.86 79.3512C110.95 79.8244 110.658 80.4432 110.986 81.426C111.132 81.8628 111.204 82.2996 111.35 82.7364C111.86 84.0104 111.714 85.2843 111.095 86.4855C110.695 87.2135 110.695 87.9415 111.022 88.7059C111.641 90.2711 111.277 91.6907 110.04 92.8191C108.838 93.9111 108.22 95.0395 108.911 96.641C110.222 99.6258 108.11 103.229 104.616 103.775C103.124 103.994 101.595 104.067 100.102 104.176C99.2652 104.249 98.7193 104.758 98.5373 105.523C98.3189 106.36 98.5373 107.124 99.3381 107.525C101.886 108.799 102.614 110.91 102.214 113.567C101.922 115.46 103.051 116.806 103.961 118.226C106.436 122.048 108.911 125.87 111.35 129.692C111.459 129.838 111.532 130.02 111.714 130.42C109.93 129.874 108.402 129.401 106.873 128.964C104.58 128.272 102.323 127.544 100.03 126.889C99.4472 126.707 99.1197 126.416 98.9741 125.797C98.5737 123.977 98.0641 122.157 97.6637 120.337C97.5181 119.682 97.1905 119.282 96.4989 119.318C95.2613 119.391 94.0601 119.391 92.8589 119.609C90.7477 119.973 88.9641 119.573 87.5082 117.935C85.7246 115.933 83.577 114.477 80.8106 114.186C80.1554 114.113 79.4638 114.149 78.8086 114.258C77.8623 114.44 77.6803 115.023 78.3719 115.678C79.0271 116.297 79.755 116.843 80.5558 117.28C83.8682 119.136 87.2534 120.883 90.6021 122.74C91.4757 123.249 92.3493 123.868 93.0773 124.56C93.8417 125.251 93.6597 126.016 92.6405 126.088C91.2209 126.198 89.7285 126.27 88.3454 125.906C85.3606 125.178 82.4122 124.196 79.4638 123.322C75.7147 122.194 71.9655 120.992 68.1436 120.01C64.1396 118.99 60.0628 118.699 55.9497 118.918C54.2389 119.027 52.6009 119.718 50.9265 120.155C49.8709 120.446 48.8153 120.81 47.7598 120.992C45.0298 121.502 43.683 119.937 44.4838 117.243C45.0662 115.314 46.231 113.785 47.5778 112.402C49.3249 110.618 50.5261 108.58 51.2177 106.214C51.8729 104.103 52.9285 102.174 54.2025 100.39C54.7849 99.6258 55.2581 98.7886 55.6949 97.915C56.2773 96.6774 56.0953 95.5126 55.0397 94.5663C54.3117 93.9111 53.5837 93.2923 52.7829 92.7463C50.6353 91.2903 48.9245 89.4703 47.505 87.2863C45.9398 84.9204 44.0106 82.7728 42.4818 80.4068C38.8782 74.8013 37.7499 68.7589 39.5334 62.207C40.5162 58.6034 41.0258 54.8907 41.5354 51.2143C42.0814 47.1011 43.9378 43.7888 46.8862 40.986C50.5261 37.4916 54.0569 33.9245 57.6969 30.4301C59.9536 28.2461 62.6836 27.0813 65.8504 26.8993C70.2183 26.6445 74.5863 26.2441 78.9543 25.8801C83.8682 25.4797 88.5274 26.3897 92.9317 28.5737C95.0793 29.6657 97.1905 30.9033 99.3017 32.0317C101.813 33.3421 103.342 35.3804 104.07 38.074C105.198 42.4784 106.618 46.7735 108.547 50.9231C109.13 52.1607 109.421 53.5439 109.603 54.9271C109.712 55.7642 109.457 56.7106 109.202 57.5478C108.911 58.6034 108.329 59.5498 108.438 60.7874C108.547 62.2798 108.183 63.845 108.147 65.3737C108.147 65.8105 108.438 66.3201 108.693 66.7569C110.549 69.7053 112.151 72.7993 113.097 76.148C113.679 77.6768 113.243 78.5868 111.86 79.3512Z" fill="white"/>
<path d="M107.237 61.1878C106.654 61.4426 105.999 61.5518 105.308 61.7338C105.453 60.751 106.691 59.9138 107.2 60.2778C107.382 60.387 107.346 61.115 107.237 61.1878Z" fill="white"/>
<path d="M63.1568 84.2652C62.2468 84.6656 61.4824 84.156 60.9 83.7556C59.8808 83.1004 59.2256 82.0812 58.9345 80.698C60.3904 81.9356 61.7372 83.064 63.1568 84.2652Z" fill="white"/>
<path d="M100.83 37.164C98.2096 36.0356 95.7709 34.3613 92.6405 34.8344C93.7325 33.6697 95.1157 33.7061 96.3897 34.0337C98.1733 34.4705 99.8476 35.344 100.83 37.164Z" fill="white"/>
<path d="M80.2282 101.883C80.1918 101.955 80.1918 102.028 80.1554 102.101C79.7914 102.101 79.3546 102.174 79.027 102.101C76.3335 101.337 73.6035 100.718 70.9827 99.7714C67.9252 98.6794 66.9788 96.7138 67.7432 93.5107C67.8888 92.9647 68.3984 92.1275 68.7624 92.1275C69.3447 92.0911 70.0727 92.5279 70.5095 93.0011C71.3831 93.9111 72.0747 94.9667 72.8391 95.9494C74.4771 98.1698 76.7703 99.6258 79.0634 101.118C79.4638 101.337 79.8642 101.628 80.2282 101.883Z" fill="white"/>
<path d="M93.8781 108.689C93.5869 109.381 93.1865 110.036 92.7861 110.655C92.2765 111.492 91.6941 112.329 91.1481 113.166C90.6385 113.967 90.0197 114.586 89.1462 114.404C80.3374 113.567 72.1111 111.528 64.8312 106.615C63.3752 105.632 62.0648 104.358 60.9728 103.011C60.2812 102.137 59.9536 100.9 59.7352 99.735C59.5168 98.825 60.0264 98.5338 60.9728 98.7522C61.082 98.7886 61.2276 98.825 61.3368 98.8978C67.8888 101.773 74.7683 103.593 81.6842 105.195C85.4334 106.069 89.2553 106.724 93.0409 107.415C93.8053 107.597 94.2421 107.925 93.8781 108.689Z" fill="white"/>
<path d="M70.9827 84.4836C70.9463 86.0487 69.7087 87.0315 68.3255 86.3763C67.4156 85.9395 66.542 85.1752 65.996 84.3744C65.1952 83.1732 64.3216 82.2996 62.9384 81.9356C61.264 81.4988 60.4268 80.2248 59.7716 78.7688C59.626 78.4412 59.8808 77.9316 59.9536 77.4948C60.2812 77.7496 60.6452 77.9316 60.9728 78.2228C61.1548 78.4048 61.1912 78.696 61.3368 78.878C61.8464 79.606 62.4288 79.5332 62.902 78.7688C63.084 78.4412 63.5572 78.0044 63.812 78.0408C64.1396 78.0772 64.4672 78.514 64.722 78.878C64.904 79.1328 64.8676 79.4968 65.0132 79.788C65.4136 80.6252 65.996 81.244 67.0152 81.1348C67.1972 81.0984 67.4156 81.1348 67.5976 81.1348C69.7451 81.062 70.9827 82.336 70.9827 84.4836Z" fill="white"/>
<path d="M112.406 75.5656C112.296 75.1288 112.114 74.6921 111.932 74.2917C111.095 72.6173 110.112 71.0157 109.384 69.2685C108.729 67.7397 107.819 66.3929 106.582 65.3737C103.815 63.0442 104.361 57.9118 106.873 55.9826C107.601 55.4366 107.928 54.6723 107.746 53.7623C107.164 51.2507 106.764 48.7027 105.453 46.4095C101.704 39.8576 95.1157 37.2368 88.6002 38.802C86.5254 39.3116 84.487 39.894 82.3394 39.7848C81.5022 39.7484 81.5022 40.1852 81.6842 40.8404C81.9026 41.6048 82.121 42.4056 82.121 43.17C82.2302 46.2275 81.3202 49.0303 79.937 51.6875C79.1362 53.2163 78.5903 54.7451 78.7723 56.4922C78.8451 57.0382 78.7358 57.5842 78.6266 58.1302C78.2991 59.9138 77.0251 61.1878 76.1151 62.6802C75.6419 63.4446 75.1687 64.3182 74.9503 65.1917C74.2951 67.5577 74.9503 69.9237 75.8239 71.9621C76.4791 73.4545 76.4791 74.5101 75.8603 75.784C75.7875 75.9296 75.7875 76.1116 75.7147 76.2572C75.1687 77.4948 74.3315 78.4776 73.1303 78.9872C72.5843 79.2056 71.8563 79.06 70.9827 79.0964C71.0919 79.5332 71.1283 80.1884 71.3831 80.698C72.2203 82.336 72.7663 84.0468 72.4023 85.8303C72.0383 87.6503 72.5115 89.1427 73.5671 90.5259C74.2223 91.3631 74.9867 92.0547 75.7875 92.7827C78.4082 95.1851 81.4658 96.7866 84.9238 97.6238C87.7994 98.3154 90.7113 98.9706 93.5141 99.7714C95.4797 100.354 97.3361 101.337 99.3016 101.919C101.595 102.574 103.924 102.283 106.072 101.264C107.128 100.754 107.71 99.8078 107.783 98.643C107.819 97.551 106.946 97.3326 106.181 96.9686C104.58 96.1678 104.034 94.6027 104.762 92.9647C105.053 92.3459 105.453 92.0183 106.181 92.0547C107.055 92.0547 107.928 92.0547 108.766 91.8727C109.166 91.7999 109.457 91.3631 109.821 91.1083C109.53 90.7443 109.312 90.1983 108.911 90.0163C107.528 89.3975 106.036 89.2155 104.58 89.5431C103.451 89.7979 102.359 90.2711 101.049 90.6715C101.049 90.1255 101.012 89.6887 101.049 89.2155C101.158 88.1599 101.558 87.9051 102.578 88.0871C103.014 88.1599 103.56 88.0871 103.961 87.9051C105.781 87.0315 107.601 86.1215 109.421 85.2115C110.112 84.884 110.404 84.3744 110.367 83.5736C110.294 80.7344 108.656 79.4968 105.963 80.2612C105.926 80.2612 105.89 80.2612 105.854 80.2976C104.507 80.6616 103.815 80.3704 102.942 78.9508C104.034 79.2784 105.016 79.6788 105.926 78.878C107.091 77.8588 108.365 77.786 109.821 78.1864C111.75 78.7688 112.915 77.5676 112.406 75.5656ZM101.74 57.6934C101.413 59.2586 100.357 60.3506 99.4108 61.5518C98.9012 62.207 98.5736 63.0442 98.2824 63.8086C98.1732 64.0634 98.3189 64.573 98.5373 64.755C99.2652 65.4466 98.8285 66.0653 98.5373 66.6841C98.2097 67.3393 97.6273 67.0845 97.1177 67.0845C96.3533 67.0845 95.5889 67.3029 94.6789 67.4121C94.6789 67.2665 94.6061 66.9753 94.6789 66.8661C95.5525 65.8105 95.3705 65.0462 94.6425 64.4274C94.1329 63.9906 93.2593 64.0998 92.7497 64.6822C92.2401 65.2282 92.0945 65.4829 91.4029 65.4465C90.8205 65.4101 90.2017 65.6285 89.6193 65.6649C89.2917 65.6649 88.9277 65.5558 88.6002 65.483C88.673 65.119 88.7457 64.7913 88.8185 64.4638C88.8185 64.4274 88.8549 64.4274 88.8913 64.391C91.1845 62.7166 93.4413 61.0786 95.7345 59.3678C96.0257 59.1494 96.4989 58.7126 96.4261 58.4578C96.3533 58.0574 95.9893 57.5478 95.5889 57.4022C94.1693 56.7834 92.7133 56.9654 91.2573 57.5478C90.7113 57.7662 90.1289 57.9482 89.5465 58.1302C89.5101 58.0574 89.4373 57.9482 89.4009 57.8754C89.5465 57.657 89.6193 57.4022 89.8013 57.293C91.3301 56.2374 92.9317 55.473 94.9337 55.655C96.5353 55.8006 98.1369 55.6551 99.7384 55.5095C101.158 55.3639 102.068 56.2374 101.74 57.6934Z" fill="white"/>
<path d="M96.6081 61.7702C95.6981 62.025 94.9337 62.207 94.1329 62.4254C94.0601 62.3162 93.9873 62.207 93.9509 62.0978C94.3149 61.843 94.6061 61.4426 95.0065 61.3334C95.4797 61.2242 96.1349 60.751 96.6081 61.7702Z" fill="white"/>
</svg>
