<svg width="171" height="175" viewBox="0 0 171 175" fill="none" xmlns="http://www.w3.org/2000/svg">
<path d="M85.2148 155.09C123.31 155.09 154.192 124.078 154.192 85.8239C154.192 47.5694 123.31 16.558 85.2148 16.558C47.1197 16.558 16.2375 47.5694 16.2375 85.8239C16.2375 124.078 47.1197 155.09 85.2148 155.09Z" fill="white"/>
<path d="M57.6239 157.502L57.9151 157.612L54.7119 165.032L53.8383 164.63L55.3307 161.158L56.3499 159.074L49.1063 162.583L48.8151 162.437L52.0183 155.017L52.8919 155.382L51.3631 158.964L50.4167 160.975L57.6239 157.502Z" fill="white"/>
<path d="M42.1176 158.928C40.7708 158.124 39.8608 156.625 40.2976 154.944L41.0984 155.419C40.9892 156.625 41.5716 157.575 42.5544 158.197C44.156 159.184 45.9032 158.599 46.8496 156.991C47.7596 155.419 47.432 153.555 45.794 152.641C44.7384 152.019 43.5008 152.019 42.5544 152.787L41.7536 152.312C43.064 150.996 44.8476 151.033 46.2308 151.837C48.16 152.97 48.9607 155.273 47.6868 157.466C46.4492 159.622 44.0832 160.134 42.1176 158.928Z" fill="white"/>
<path d="M37.6405 154.944L37.1309 155.638L32.3261 152.166L32.8357 151.471L34.8741 152.933L39.0964 147.085L39.8608 147.633L35.6385 153.482L37.6405 154.944Z" fill="white"/>
<path d="M32.8721 141.712C34.5465 143.247 34.8013 145.659 33.0541 147.56C31.3069 149.461 28.8681 149.351 27.2302 147.816C25.5558 146.281 25.301 143.832 27.0482 141.968C28.6862 140.177 31.0521 140.067 32.8721 141.712ZM32.2533 142.37C30.9429 141.164 29.0501 141.2 27.7398 142.626C26.4294 144.051 26.5022 145.952 27.8126 147.195C29.0865 148.401 31.0157 148.364 32.3261 146.902C33.6365 145.477 33.5637 143.576 32.2533 142.37Z" fill="white"/>
<path d="M28.1038 137.179L21.9886 142.406C21.297 141.602 20.569 140.762 19.9138 139.921C18.7854 138.605 19.0038 136.96 20.1686 135.973C21.3334 134.986 22.9714 135.059 24.0998 136.375L25.5558 138.13L27.485 136.485L28.1038 137.179ZM23.4082 136.924C22.7166 136.119 21.5882 135.973 20.751 136.704C19.9138 137.399 19.841 138.532 20.5326 139.373C21.0058 139.957 21.5154 140.542 22.025 141.127L24.9006 138.678L23.4082 136.924Z" fill="white"/>
<path d="M22.6438 130.417L22.8258 130.673L16.1283 135.169L15.5823 134.365L18.7126 132.281L20.6782 131.075L12.7067 130.052L12.5247 129.759L19.2222 125.263L19.7682 126.068L16.5651 128.224L14.6723 129.394L22.6438 130.417Z" fill="white"/>
<path d="M13.4347 123.838C13.0707 123.143 12.7431 122.522 12.3791 122.303C11.8695 121.974 10.9595 122.12 10.1951 122.266C9.10314 122.486 8.22955 122.303 7.79276 120.841L8.37515 120.548C8.70275 121.426 9.21234 121.535 10.0495 121.389C10.8867 121.243 11.7603 121.097 12.4519 121.389L14.7087 117.076L14.8179 117.003L15.3275 117.99L13.1799 121.974C13.4711 122.303 13.9079 123.107 14.1263 123.509L17.2931 121.901L17.7299 122.741L10.5591 126.397L10.1223 125.556L13.4347 123.838Z" fill="white"/>
<path d="M12.8887 111.593C13.6895 113.75 12.8159 115.979 10.4135 116.893C8.01115 117.77 5.86358 116.601 5.09918 114.481C4.33479 112.361 5.20838 110.058 7.57436 109.181C9.86753 108.303 12.0515 109.29 12.8887 111.593ZM12.0515 111.885C11.4327 110.204 9.75834 109.363 7.90195 110.058C6.08197 110.716 5.28118 112.47 5.89997 114.152C6.51877 115.797 8.19315 116.637 10.0495 115.979C11.9059 115.285 12.6703 113.567 12.0515 111.885Z" fill="white"/>
<path d="M6.70077 106.622L5.79078 102.967L6.55517 102.784L7.46516 106.439L6.70077 106.622Z" fill="white"/>
<path d="M4.84439 98.9826C4.73519 98.2151 4.62599 97.5206 4.33479 97.1916C3.97079 96.7164 3.0608 96.5702 2.26001 96.4606C1.16802 96.3143 0.36723 95.8757 0.44003 94.3406L1.05882 94.2309C1.09522 95.1447 1.53202 95.4371 2.40561 95.5468C3.2428 95.6564 4.11639 95.8026 4.69879 96.3144L8.19315 92.915L8.33875 92.8785L8.52075 93.975L5.24478 97.0819C5.42678 97.484 5.60878 98.3613 5.64518 98.8364L9.17594 98.2882L9.32154 99.2385L1.35002 100.481L1.20442 99.5309L4.84439 98.9826Z" fill="white"/>
<path d="M8.19315 90.7584L0.148831 91.0874C0.112431 90.0274 0.039634 88.8943 0.00323431 87.8343C-0.069565 86.0798 1.09522 84.9467 2.62401 84.8736C4.15279 84.8005 5.39038 85.897 5.46318 87.615L5.57238 89.8812L8.12035 89.7716L8.19315 90.7584ZM4.66239 87.6881C4.62599 86.6281 3.78879 85.8239 2.69681 85.8605C1.60482 85.897 0.840424 86.7377 0.876823 87.8343C0.913223 88.5653 0.949624 89.3695 0.986023 90.1371L4.77159 89.9909L4.66239 87.6881Z" fill="white"/>
<path d="M6.08197 81.2915L8.01116 82.3881L7.93835 83.4115H7.82916L0.185233 79.0618L0.221633 78.6232L8.41155 75.4432H8.52075L8.44795 76.4301L6.40957 77.2342L6.08197 81.2915ZM5.28118 80.8894L5.53598 77.4901L1.67762 78.9156L5.28118 80.8894Z" fill="white"/>
<path d="M2.58761 67.4749L1.93241 71.1666L4.51679 71.6418L5.17198 68.0963L6.00918 68.2425L5.35398 71.788L8.15675 72.2997L8.84835 68.4983L9.72194 68.6445L8.88474 73.4328L0.986024 72.0073L1.82322 67.3652L2.58761 67.4749Z" fill="white"/>
<path d="M7.50156 60.4935C8.01115 59.6893 8.84835 59.3603 9.75834 59.6162C11.1415 60.0183 11.6511 61.261 11.2143 62.7231L10.2315 66.0859L2.51481 63.8197L3.3884 60.7859C3.7888 59.3969 4.73519 58.5196 6.19117 58.9583C6.91917 59.1776 7.46516 59.6893 7.50156 60.4935ZM3.6068 63.1252L6.19117 63.8928L6.73717 61.9921C7.02836 61.0052 6.91916 60.1645 5.97277 59.9086C5.06278 59.6162 4.48039 60.201 4.18919 61.1148L3.6068 63.1252ZM7.53796 62.2114L6.99196 64.1121L9.72194 64.9162L10.3771 62.65C10.6683 61.6631 10.4499 60.8224 9.50354 60.53C8.41155 60.201 7.82916 61.1514 7.53796 62.2114Z" fill="white"/>
<path d="M7.97475 50.7706L6.55517 54.2431L8.99394 55.23L10.3407 51.8672L11.1051 52.1962L9.75834 55.5589L12.3791 56.6555L13.8351 53.0734L14.6359 53.4024L12.8159 57.8983L5.39038 54.8279L7.17396 50.4417L7.97475 50.7706Z" fill="white"/>
<path d="M14.7815 51.1362C15.1819 50.4051 14.8179 50.0396 14.1627 49.5644L9.28514 46.1285C9.97673 44.8492 10.8503 43.2409 11.5419 41.9251L17.8755 45.3975L18.3123 44.6299L20.205 45.6534L19.8046 46.3844L18.6398 45.763C17.6571 47.5541 16.7471 49.2355 15.8007 51.0265L16.9655 51.6479L16.5651 52.3789L14.6723 51.3555L14.7815 51.1362ZM14.6359 48.7237C14.9999 48.9796 15.4731 49.3451 15.5095 49.8203L17.4387 46.2382L11.8331 43.1678L10.4135 45.7996L14.6359 48.7237Z" fill="white"/>
<path d="M22.753 39.5492L20.2778 37.8313C18.8946 40.5726 17.1111 41.4864 14.3811 39.5857L13.3983 38.8913L13.9443 38.0871L14.9271 38.7816C17.1111 40.3168 18.385 39.6223 19.5134 37.3195L16.1283 34.9437L16.6743 34.1395L23.2626 38.7451L22.753 39.5492Z" fill="white"/>
<path d="M22.7894 28.1084L20.3506 30.9595L22.3526 32.6774L24.7186 29.936L25.3374 30.4843L22.9714 33.2257L25.119 35.0899L27.6306 32.1657L28.2858 32.7505L25.119 36.4057L19.0402 31.1422L22.0978 27.5602L22.7894 28.1084Z" fill="white"/>
<path d="M27.1574 22.4063C28.2858 21.3463 29.9965 20.9077 31.4889 21.785L30.7973 22.4063C29.7053 21.9312 28.6133 22.2236 27.7398 23.0277C26.3566 24.2705 26.393 26.1346 27.667 27.5236C28.9045 28.876 30.7609 29.0588 32.1441 27.7795C33.0541 26.9388 33.3817 25.7691 32.9085 24.5995L33.6001 23.9781C34.4737 25.6229 33.9277 27.3043 32.7629 28.4374C31.1249 29.9726 28.6861 30.0822 26.9754 28.2181C25.2646 26.3539 25.483 23.905 27.1574 22.4063Z" fill="white"/>
<path d="M35.4565 20.2863C36.0753 19.8111 36.6577 19.4091 36.8033 19.007C37.0217 18.4587 36.7669 17.5815 36.4757 16.8139C36.1117 15.7539 36.1117 14.8766 37.4949 14.2187L37.8589 14.7304C37.0581 15.1691 36.9853 15.7173 37.3129 16.5215C37.6041 17.3256 37.8589 18.1663 37.7133 18.8974L42.336 20.4325L42.4088 20.5422L41.5352 21.2001L37.2765 19.7015C37.0217 20.067 36.2937 20.6153 35.9297 20.8712L38.0409 23.7588L37.2765 24.307L32.5445 17.7642L33.3089 17.216L35.4565 20.2863Z" fill="white"/>
<path d="M44.1196 17.2891L44.2652 19.4822L43.3916 19.9939L43.3188 19.8843L42.7 11.0752L43.064 10.8559L50.1983 15.9732L50.2711 16.0829L49.3975 16.558L47.614 15.2787L44.1196 17.2891ZM44.0104 16.4118L46.9588 14.7304L43.6464 12.2814L44.0104 16.4118Z" fill="white"/>
<path d="M52.4187 11.8063C51.2539 11.989 50.1619 11.4773 49.6887 10.3442C49.1063 8.99178 49.6887 7.5297 51.2175 6.87177L54.2023 5.629L57.3327 13.049L56.4227 13.4146L55.2943 10.7097L53.3651 11.5504L52.4551 15.096L51.4723 15.498L51.4359 15.3884L52.4187 11.8063ZM54.9667 9.94213L53.6199 6.76211L51.5451 7.63936C50.5987 8.04143 50.1255 8.99178 50.5259 9.94213C50.9263 10.8925 51.9091 11.2214 52.8919 10.8194L54.9667 9.94213Z" fill="white"/>
<path d="M63.7026 5.92141L65.923 5.37313C67.743 4.93451 68.9077 5.66555 69.2353 7.05452C69.5629 8.40695 68.8713 9.64971 67.0878 10.1249C66.0686 10.3807 64.9766 10.6366 63.9574 10.8925C63.3386 8.26074 62.7198 5.66555 62.0646 3.03381L67.2698 1.75449L67.4518 2.59519L63.1566 3.61864L63.7026 5.92141ZM63.8846 6.72556L64.6126 9.83247C65.3406 9.64971 66.105 9.46695 66.833 9.28419C68.0342 8.99178 68.5073 8.22419 68.2889 7.27384C68.0705 6.39659 67.3062 5.88486 66.105 6.17728L63.8846 6.72556Z" fill="white"/>
<path d="M72.4021 9.02833L72.0745 9.06488L71.0917 1.02346L72.0381 0.913798L72.5113 4.67865L72.6933 6.98142L77.1705 0.255862L77.4981 0.219311L78.4809 8.26074L77.5345 8.37039L77.0613 4.49589L76.8793 2.30277L72.4021 9.02833Z" fill="white"/>
<path d="M82.412 3.21657H84.7052C86.598 3.21657 87.5444 4.20347 87.5444 5.59245C87.5444 6.98142 86.598 8.04142 84.7416 8.07798C83.686 8.07798 82.5576 8.07798 81.502 8.11453C81.502 5.40969 81.4656 2.74139 81.4656 0.0365514L86.8164 0V0.840696L82.412 0.877247V3.21657ZM82.412 4.02071L82.4484 7.20073C83.2128 7.20073 84.0136 7.20073 84.7052 7.20073C85.9428 7.20073 86.5616 6.5428 86.5616 5.59245C86.5616 4.7152 85.9428 4.02071 84.6688 4.02071H82.412Z" fill="white"/>
<path d="M91.6939 6.39659C91.3663 7.96832 90.7475 8.5166 89.0367 8.07798L89.1096 7.38349C90.1651 7.67591 90.4927 7.20073 90.7111 6.28693L92.0215 0.328968C93.5139 0.475176 95.4067 0.694488 96.8991 0.840696L96.0255 8.88212L95.0791 8.77246L95.8435 1.60829L92.7495 1.27932L91.6939 6.39659Z" fill="white"/>
<path d="M99.3015 9.4304L99.0102 9.3573L100.83 1.46208L101.777 1.68139L100.939 5.37313L100.321 7.6028L106.836 2.85105L107.164 2.92415L105.344 10.8194L104.397 10.6001L105.271 6.79866L105.853 4.64209L99.3015 9.4304Z" fill="white"/>
<path d="M111.459 12.9759C109.311 12.1718 108.183 10.0518 109.057 7.63936C109.967 5.22693 112.223 4.34968 114.334 5.15382C116.446 5.95797 117.61 8.07798 116.737 10.4904C115.936 12.8297 113.752 13.8532 111.459 12.9759ZM111.787 12.1718C113.461 12.7932 115.172 12.0256 115.863 10.198C116.555 8.37039 115.754 6.65245 114.08 6.03107C112.442 5.40969 110.695 6.17728 110.003 8.04143C109.311 9.83247 110.112 11.5504 111.787 12.1718Z" fill="white"/>
<path d="M120.086 8.5897L120.486 7.82211L125.764 10.4904L125.364 11.258L123.143 10.1249L119.904 16.558L119.066 16.1194L122.306 9.68626L120.086 8.5897Z" fill="white"/>
<path d="M131.806 15.1691L128.64 13.1587L127.256 15.3884L130.314 17.3256L129.877 18.0201L126.82 16.0829L125.291 18.4953L128.567 20.5422L128.094 21.3098L124.017 18.7146L128.276 11.8794L132.243 14.4015L131.806 15.1691Z" fill="white"/>
<path d="M133.626 19.9939C134.245 20.4691 134.791 20.9077 135.228 20.9443C135.81 21.0174 136.575 20.5056 137.23 20.0305C138.14 19.3725 138.977 19.1532 139.996 20.3229L139.596 20.8346C138.941 20.1767 138.431 20.2863 137.703 20.798C137.011 21.3098 136.283 21.785 135.519 21.8215L135.301 26.6829L135.228 26.7926L134.354 26.0981L134.609 21.5656C134.209 21.4194 133.481 20.8712 133.117 20.5787L130.933 23.3932L130.168 22.8084L135.119 16.4484L135.883 17.0332L133.626 19.9939Z" fill="white"/>
<path d="M138.941 27.4871L136.866 28.2546L136.138 27.5602L136.211 27.4871L144.473 24.4167L144.801 24.7091L141.925 33.0429L141.853 33.1161L141.125 32.4216L141.853 30.3381L138.941 27.4871ZM139.741 27.1215L142.18 29.4974L143.6 25.6229L139.741 27.1215Z" fill="white"/>
<path d="M145.82 37.9775L145.638 37.7216L152.154 32.9698L152.736 33.774L149.679 36.0037L147.749 37.283L155.757 37.9775L155.939 38.2333L149.424 42.9851L148.878 42.2175L152.008 39.9513L153.828 38.7085L145.82 37.9775Z" fill="white"/>
<path d="M161.472 47.8099L161.654 48.1389L154.592 51.9768L154.119 51.1362L159.215 48.3582L154.774 47.7734L154.702 47.6272L156.631 43.5334L151.535 46.3113L151.062 45.4706L158.123 41.5961L158.305 41.9251L155.939 47.0058L161.472 47.8099Z" fill="white"/>
<path d="M164.238 56.3996L162.855 52.9272L160.416 53.9141L161.763 57.2769L160.999 57.6059L159.652 54.2431L156.995 55.3031L158.451 58.8852L157.614 59.2141L155.794 54.7182L163.256 51.6844L165.003 56.0707L164.238 56.3996Z" fill="white"/>
<path d="M159.87 66.7438L163.51 65.7204L162.346 61.59L158.706 62.6135L158.451 61.6997L166.168 59.5065L166.422 60.4203L163.146 61.3341L164.311 65.4645L167.587 64.5507L167.842 65.5011L160.125 67.6942L159.87 66.7438Z" fill="white"/>
<path d="M160.817 70.8742L160.78 70.5818L168.752 69.339L168.898 70.2894L165.185 70.8742L162.892 71.1301L169.735 75.4066L169.771 75.7356L161.8 76.9784L161.654 76.028L165.476 75.4066L167.66 75.1508L160.817 70.8742Z" fill="white"/>
<path d="M162.273 84.2157V83.8867L170.317 84.0329V85.0198L166.568 84.9467L164.275 84.8005L170.281 90.1736V90.5026L162.236 90.3564V89.406L166.095 89.4791L168.315 89.5888L162.273 84.2157Z" fill="white"/>
<path d="M162.346 93.2074C162.71 93.244 162.855 93.5364 162.819 93.8654C162.782 94.1943 162.564 94.4502 162.2 94.4137C161.909 94.3771 161.69 94.0847 161.727 93.7557C161.763 93.4268 162.018 93.1709 162.346 93.2074Z" fill="white"/>
<path d="M161.436 97.4109L161.508 97.1185L169.407 98.6171L169.225 99.5675L165.512 98.873L163.256 98.3247L168.242 104.648L168.17 104.977L160.271 103.479L160.453 102.528L164.238 103.259L166.386 103.734L161.436 97.4109Z" fill="white"/>
<path d="M159.98 106.22C160.307 106.33 160.453 106.622 160.344 106.951C160.271 107.28 159.98 107.463 159.652 107.39C159.361 107.316 159.215 106.988 159.288 106.659C159.361 106.33 159.688 106.147 159.98 106.22Z" fill="white"/>
<path d="M160.817 115.723C160.234 116.491 159.397 116.747 158.524 116.418C157.14 115.906 156.776 114.627 157.286 113.201L158.487 109.912L166.022 112.726L164.93 115.687C164.42 117.039 163.438 117.843 162.018 117.332C161.29 117.076 160.817 116.528 160.817 115.723ZM160.926 114.005L161.618 112.141L158.96 111.154L158.16 113.348C157.796 114.298 157.941 115.175 158.851 115.541C159.87 115.979 160.526 115.029 160.926 114.005ZM164.894 113.348L162.382 112.397L161.69 114.261C161.326 115.212 161.399 116.052 162.309 116.381C163.219 116.747 163.838 116.199 164.166 115.321L164.894 113.348Z" fill="white"/>
<path d="M156.667 119.708L155.32 117.953L155.794 117.039L155.903 117.112L161.29 124.094L161.108 124.496L152.336 124.203L152.227 124.13L152.663 123.253L154.847 123.326L156.667 119.708ZM157.25 120.366L155.721 123.399L159.834 123.582L157.25 120.366Z" fill="white"/>
<path d="M155.866 133.415C154.993 134.73 153.428 135.535 151.79 134.986L152.299 134.219C153.464 134.401 154.483 133.89 155.138 132.903C156.194 131.368 155.757 129.54 154.192 128.517C152.7 127.493 150.843 127.749 149.788 129.284C149.096 130.308 149.023 131.55 149.751 132.537L149.242 133.305C148.004 131.916 148.15 130.125 149.06 128.772C150.334 126.908 152.663 126.25 154.738 127.676C156.813 129.101 157.177 131.55 155.866 133.415Z" fill="white"/>
<path d="M145.383 133.999L145.602 133.78L151.681 139.08L151.062 139.811L148.223 137.326L146.548 135.717L147.677 143.722L147.458 143.978L141.379 138.678L141.998 137.947L144.91 140.506L146.512 142.004L145.383 133.999Z" fill="white"/>
<path d="M139.414 143.32C138.467 142.004 138.467 141.2 139.923 140.25L140.397 140.798C139.487 141.383 139.596 141.968 140.142 142.735L143.673 147.67C142.544 148.693 141.125 149.973 140.033 150.96L134.645 144.965L135.373 144.307L140.178 149.644L142.471 147.56L139.414 143.32Z" fill="white"/>
<path d="M132.716 155.455L135.737 153.262L134.209 151.106L131.297 153.226L130.824 152.531L133.736 150.411L132.061 148.108L128.931 150.375L128.421 149.644L132.352 146.793L137.048 153.335L133.226 156.113L132.716 155.455ZM135.228 156.26C135.41 156.515 135.337 156.844 135.082 157.027C134.827 157.21 134.5 157.173 134.318 156.917C134.136 156.662 134.209 156.333 134.464 156.15C134.718 156.004 135.046 156.004 135.228 156.26ZM137.412 154.688C137.594 154.944 137.521 155.273 137.266 155.455C137.011 155.638 136.684 155.638 136.502 155.382C136.32 155.126 136.393 154.797 136.684 154.615C136.902 154.395 137.23 154.432 137.412 154.688Z" fill="white"/>
<path d="M124.344 157.064C123.398 157.283 122.597 156.954 122.124 156.113C121.396 154.834 121.906 153.628 123.216 152.86L126.237 151.106L130.241 158.124L127.511 159.695C126.237 160.426 124.963 160.39 124.235 159.074C123.871 158.416 123.835 157.685 124.344 157.064ZM125.509 155.821L127.22 154.834L125.8 152.348L123.762 153.518C122.852 154.03 122.452 154.797 122.925 155.638C123.471 156.625 124.563 156.333 125.509 155.821ZM129.004 157.868L127.657 155.528L125.946 156.515C125.036 157.027 124.563 157.685 125.036 158.526C125.509 159.366 126.31 159.366 127.147 158.891L129.004 157.868Z" fill="white"/>
<path d="M118.63 157.429L118.702 155.236L119.612 154.834L119.649 154.944L119.321 163.753L118.921 163.935L112.369 158.087L112.333 157.977L113.243 157.575L114.88 159.037L118.63 157.429ZM118.63 158.343L115.499 159.695L118.557 162.473L118.63 158.343Z" fill="white"/>
<path d="M67.2334 157.977H65.1222V174.097H67.2334V157.977Z" fill="white"/>
<path d="M70.9097 157.977H68.7985V174.097H70.9097V157.977Z" fill="white"/>
<path d="M84.596 157.977H82.4848V174.097H84.596V157.977Z" fill="white"/>
<path d="M88.4543 157.977H86.3432V163.058H88.4543V157.977Z" fill="white"/>
<path d="M88.4543 166.275H86.3432V174.06H88.4543V166.275Z" fill="white"/>
<path d="M101.413 157.977H99.3014V174.097H101.413V157.977Z" fill="white"/>
<path d="M105.271 157.977H103.16V163.058H105.271V157.977Z" fill="white"/>
<path d="M105.271 166.275H103.16V174.06H105.271V166.275Z" fill="white"/>
<path d="M70.8733 157.941H65.1222V158.233H70.8733V157.941Z" fill="white"/>
<path d="M105.235 157.941H99.3014V158.233H105.235V157.941Z" fill="white"/>
<path d="M105.235 173.914H99.3014V174.207H105.235V173.914Z" fill="white"/>
<path d="M103.815 166.531C103.706 166.531 101.194 166.202 101.194 164.63C101.194 163.241 103.706 162.729 103.815 162.693L103.851 162.839C103.815 162.839 101.376 163.351 101.376 164.63C101.376 166.055 103.815 166.384 103.851 166.384L103.815 166.531Z" fill="white"/>
<path d="M86.9256 166.531C86.8164 166.531 84.3048 166.202 84.3048 164.63C84.3048 163.241 86.8164 162.729 86.9256 162.693L86.962 162.839C86.9256 162.839 84.4868 163.351 84.4868 164.63C84.4868 166.092 86.9256 166.384 86.962 166.384L86.9256 166.531Z" fill="white"/>
<path d="M77.2069 158.014C76.4789 157.868 75.7145 158.16 75.2777 158.745C74.9501 159.184 74.5861 159.769 74.4769 160.5C74.3677 161.45 74.3677 163.314 74.4041 164.593C74.4405 165.471 74.6225 166.384 74.9501 167.189C75.4961 168.504 76.2969 170.515 76.4061 171.429C76.5881 172.854 76.1513 173.475 75.9329 173.622C75.7873 173.731 75.9329 172.16 75.8237 171.904C75.6053 171.355 74.6225 171.209 74.1493 171.648C73.7125 172.05 73.4577 173.987 75.7873 174.024C78.1169 174.097 79.2452 172.489 79.4272 171.758C79.5728 171.027 79.682 166.567 79.682 166.567L77.8257 166.604L77.6801 171.209C77.6801 171.867 77.6437 172.489 77.3161 173.073C77.2069 173.256 77.1341 173.366 76.9521 173.549C76.6609 173.841 76.2241 173.804 76.1149 173.804C76.0785 173.804 76.0785 173.768 76.0785 173.731C76.3333 173.549 76.8065 172.708 76.8429 172.123C76.9157 170.807 76.0785 165.324 76.0421 164.666C75.9693 164.009 75.8965 159.659 75.9329 159.184C75.9329 158.526 77.1705 158.306 77.3525 159.111C77.7529 160.719 77.6437 163.058 77.6437 163.058H79.5C79.5 163.058 79.5364 159.878 78.3353 158.599C78.0805 158.233 77.6073 158.087 77.2069 158.014Z" fill="white"/>
<path d="M96.5351 164.813C95.8799 162.51 94.8971 160.317 94.8243 159.403C94.7151 158.453 94.7515 157.868 94.7515 157.868C94.7515 157.868 91.7303 158.233 91.3299 162.802C90.9295 167.371 93.1499 171.538 93.3319 172.379C93.5139 173.22 93.3683 174.17 93.3683 174.17C93.3683 174.17 95.7707 172.489 96.3167 171.319C97.1539 169.638 97.1903 167.115 96.5351 164.813ZM95.7707 169.784C95.6251 171.1 95.0427 172.16 94.6787 172.671C94.6059 172.744 94.4967 172.708 94.4967 172.635C94.3875 172.05 93.9871 170.332 92.9679 166.458C91.6575 161.669 93.0407 159.549 93.0407 159.549C93.0407 159.549 93.5139 158.782 93.4411 159.147C93.3683 159.513 93.4411 160.938 93.7687 161.925C94.0235 162.949 96.0983 167.006 95.7707 169.784Z" fill="white"/>
<path d="M85.1784 155.163C66.6146 155.163 49.1427 147.889 36.0389 134.73C22.8986 121.535 15.6915 104.027 15.6915 85.3853C15.6915 66.7438 22.935 49.1989 36.0389 36.0402C49.1791 22.845 66.6146 15.6077 85.1784 15.6077C103.742 15.6077 121.214 22.8815 134.318 36.0402C147.458 49.2355 154.665 66.7438 154.665 85.3853C154.665 104.027 147.422 121.572 134.318 134.73C121.214 147.926 103.742 155.163 85.1784 155.163ZM85.1784 18.276C48.3419 18.276 18.3486 48.3948 18.3486 85.3853C18.3486 122.376 48.3419 152.495 85.1784 152.495C122.015 152.495 152.008 122.376 152.008 85.3853C152.008 48.3948 122.051 18.276 85.1784 18.276Z" fill="#7C6C55"/>
<path d="M121.542 82.0225C120.522 78.4039 118.812 75.0777 116.81 71.8977C116.518 71.459 116.227 70.9108 116.227 70.399C116.264 68.7542 116.664 67.1094 116.555 65.4645C116.446 64.1121 117.064 63.1252 117.356 61.9921C117.61 61.0783 117.902 60.0914 117.756 59.1776C117.574 57.7155 117.246 56.2169 116.628 54.8645C114.553 50.4051 113.024 45.763 111.823 41.0113C111.095 38.0871 109.421 35.894 106.727 34.505C104.434 33.2988 102.213 31.9464 99.8839 30.7767C95.1519 28.4009 90.1651 27.4505 84.8872 27.8526C80.1916 28.2181 75.4961 28.6567 70.8005 28.9491C67.379 29.1319 64.467 30.4112 62.0646 32.7505C58.1699 36.5154 54.3479 40.3533 50.4531 44.1182C47.2864 47.152 45.3208 50.7341 44.702 55.1569C44.156 59.141 43.5736 63.1617 42.5544 66.9997C40.6616 74.0908 41.8628 80.5605 45.7212 86.6281C47.3592 89.1867 49.4339 91.4895 51.1083 94.0481C52.6371 96.3875 54.4571 98.3613 56.7503 99.933C57.5875 100.518 58.3883 101.212 59.1526 101.907C60.2446 102.93 60.4994 104.173 59.8442 105.525C59.4075 106.476 58.8615 107.353 58.2427 108.194C56.8595 110.131 55.6947 112.178 55.0395 114.444C54.2751 117.003 53.0011 119.196 51.1083 121.097C49.6523 122.559 48.3784 124.24 47.7596 126.323C46.886 129.211 48.342 130.892 51.2539 130.344C52.4187 130.125 53.5107 129.723 54.6391 129.43C56.4227 128.955 58.2063 128.188 60.0626 128.078C64.467 127.822 68.8714 128.151 73.1301 129.248C77.2069 130.271 81.2108 131.624 85.2512 132.793C88.418 133.744 91.5847 134.804 94.7879 135.571C96.2439 135.937 97.8819 135.864 99.3742 135.754C100.466 135.644 100.685 134.84 99.8474 134.073C99.0467 133.341 98.1367 132.647 97.1903 132.099C93.6231 130.088 90.0195 128.188 86.4524 126.214C85.6152 125.739 84.8144 125.154 84.1228 124.496C83.3584 123.801 83.5768 123.143 84.596 122.961C85.2876 122.851 86.052 122.778 86.7436 122.888C89.6919 123.217 91.9851 124.752 93.9143 126.908C95.4795 128.663 97.4087 129.101 99.6655 128.699C100.939 128.48 102.286 128.48 103.597 128.407C104.325 128.37 104.689 128.809 104.834 129.504C105.271 131.477 105.817 133.415 106.254 135.388C106.399 136.046 106.727 136.375 107.382 136.595C109.821 137.326 112.26 138.093 114.735 138.861C116.373 139.373 118.011 139.884 119.904 140.433C119.685 139.994 119.612 139.811 119.503 139.628C116.846 135.498 114.225 131.404 111.568 127.274C110.585 125.739 109.384 124.277 109.712 122.23C110.149 119.379 109.348 117.112 106.654 115.723C105.817 115.285 105.562 114.444 105.817 113.567C106.035 112.726 106.581 112.178 107.491 112.105C109.093 111.959 110.731 111.922 112.333 111.666C116.082 111.081 118.338 107.207 116.955 103.99C116.191 102.272 116.882 101.03 118.156 99.8599C119.503 98.6537 119.867 97.1185 119.212 95.4371C118.884 94.5964 118.884 93.8288 119.285 93.0247C119.94 91.7088 120.086 90.3929 119.576 89.004C119.394 88.5653 119.321 88.0536 119.176 87.615C118.812 86.5915 119.139 85.9336 120.122 85.3853C121.542 84.6908 122.015 83.7039 121.542 82.0225ZM103.451 36.6616C105.417 37.1733 107.2 38.0871 108.219 40.0609C105.38 38.8547 102.759 37.0637 99.4106 37.5388C100.612 36.2595 102.068 36.2961 103.451 36.6616ZM64.3214 83.4846C64.6854 83.7405 65.0858 83.9598 65.4134 84.2522C65.5954 84.435 65.6682 84.7639 65.8138 84.9833C66.3598 85.7508 66.9786 85.6777 67.4882 84.8736C67.7066 84.5081 68.1798 84.0695 68.4709 84.106C68.8349 84.1426 69.1989 84.6177 69.4537 84.9833C69.6357 85.2391 69.6357 85.6412 69.7813 85.9702C70.2181 86.8474 70.8369 87.5419 71.9289 87.3957C72.1473 87.3591 72.3293 87.3957 72.5477 87.3957C74.8409 87.3591 76.1877 88.7116 76.1513 91.0509C76.1513 92.7323 74.8045 93.7923 73.3121 93.0978C72.3293 92.6226 71.3829 91.8185 70.8005 90.9047C69.9633 89.6254 69.017 88.675 67.4882 88.2729C65.7046 87.8343 64.7946 86.4088 64.103 84.8736C63.9938 84.5081 64.2486 83.9598 64.3214 83.4846ZM78.1897 103.369C79.9732 105.781 82.412 107.353 84.8508 108.925C85.2876 109.217 85.688 109.473 86.1248 109.765C86.0884 109.839 86.052 109.912 86.052 110.021C85.6516 110.021 85.2148 110.094 84.8508 110.021C81.9752 109.217 79.0269 108.523 76.2241 107.499C72.9481 106.293 71.9289 104.21 72.7297 100.737C72.8753 100.152 73.4213 99.2385 73.8217 99.2385C74.4405 99.202 75.2413 99.6771 75.7145 100.189C76.6245 101.139 77.3889 102.272 78.1897 103.369ZM67.8158 90.795C66.8694 91.2336 66.0322 90.6854 65.377 90.2467C64.2486 89.5522 63.5934 88.4191 63.2658 86.9205C64.831 88.2729 66.287 89.4791 67.8158 90.795ZM100.794 117.112C100.466 117.843 100.029 118.538 99.629 119.232C99.083 120.146 98.4643 121.023 97.8819 121.937C97.3359 122.778 96.6443 123.472 95.7343 123.29C86.2704 122.376 77.4617 120.219 69.6721 114.919C68.107 113.859 66.7238 112.507 65.5226 111.045C64.7582 110.094 64.4306 108.742 64.1758 107.536C63.9574 106.549 64.5034 106.22 65.4862 106.476C65.6318 106.512 65.741 106.549 65.8866 106.622C72.9117 109.692 80.3008 111.703 87.7264 113.421C91.7667 114.371 95.8435 115.065 99.9202 115.833C100.648 115.943 101.121 116.272 100.794 117.112ZM117.792 84.2522C116.227 83.8136 114.844 83.9232 113.607 84.9833C112.624 85.8239 111.605 85.4219 110.403 85.0564C111.35 86.555 112.114 86.884 113.534 86.5184C113.57 86.5184 113.607 86.5184 113.643 86.4819C116.555 85.6777 118.302 86.9936 118.375 90.064C118.411 90.9047 118.084 91.4529 117.356 91.8185C115.426 92.8054 113.497 93.7923 111.532 94.7426C111.095 94.9619 110.513 94.9985 110.039 94.9254C108.947 94.7426 108.474 94.9985 108.401 96.1316C108.365 96.6433 108.401 97.1185 108.401 97.7033C109.785 97.2281 110.986 96.753 112.187 96.4606C113.789 96.095 115.354 96.3143 116.846 96.9723C117.246 97.155 117.501 97.7399 117.829 98.1419C117.465 98.4344 117.137 98.9095 116.7 98.9826C115.79 99.1654 114.844 99.202 113.934 99.1654C113.133 99.1654 112.697 99.4944 112.405 100.152C111.605 101.907 112.187 103.588 113.934 104.465C114.735 104.868 115.718 105.123 115.645 106.293C115.572 107.572 114.953 108.596 113.825 109.144C111.495 110.241 109.02 110.57 106.545 109.875C104.434 109.254 102.432 108.194 100.321 107.572C97.2631 106.659 94.1691 106.001 91.0751 105.233C87.3624 104.356 84.0864 102.601 81.2836 100.006C80.4464 99.2385 79.6092 98.4709 78.9176 97.5571C77.7893 96.095 77.2433 94.4502 77.6801 92.513C78.0805 90.6123 77.4981 88.7481 76.5881 86.9936C76.2969 86.4453 76.2605 85.7508 76.1513 85.2757C77.0977 85.2391 77.8621 85.3853 78.4445 85.1295C79.7548 84.5812 80.6648 83.4846 81.2472 82.1687C81.32 82.0225 81.32 81.8398 81.3928 81.657C82.0844 80.2681 82.048 79.1349 81.3564 77.5267C80.41 75.3335 79.7184 72.7749 80.41 70.2528C80.6648 69.3025 81.138 68.3887 81.684 67.548C82.6668 65.9762 84.0136 64.5873 84.3776 62.65C84.4868 62.0652 84.596 61.4804 84.5232 60.8955C84.3048 58.9948 84.9236 57.3865 85.7972 55.7417C87.2896 52.8907 88.236 49.8568 88.1268 46.5672C88.0904 45.7265 87.872 44.8858 87.6536 44.0451C87.4716 43.3506 87.4352 42.8389 88.3452 42.8754C90.6747 42.9851 92.8587 42.3637 95.0791 41.8154C102.104 40.134 109.129 42.9485 113.17 50.0031C114.589 52.452 115.026 55.1934 115.645 57.8983C115.863 58.8486 115.499 59.6893 114.698 60.2741C112.005 62.3576 111.423 67.8769 114.371 70.399C115.681 71.5321 116.664 72.9577 117.356 74.6025C118.156 76.4301 119.176 78.1846 120.086 79.9756C120.304 80.4143 120.486 80.8529 120.632 81.3281C121.178 83.5943 119.94 84.8736 117.792 84.2522ZM115.099 65.9031C114.48 66.159 113.789 66.3052 113.024 66.5245C113.17 65.4645 114.48 64.5873 115.062 64.9893C115.244 65.0624 115.208 65.8666 115.099 65.9031Z" fill="#7C6C55"/>
<path d="M107.018 59.799C105.307 59.9817 103.56 60.0914 101.849 59.9452C99.7018 59.7624 97.9911 60.6031 96.3531 61.7362C96.1711 61.8824 96.0619 62.1748 95.9527 62.3942C95.9891 62.5038 96.0619 62.5769 96.0983 62.6866C96.7171 62.4673 97.3359 62.2845 97.9547 62.0652C99.4834 61.4073 101.049 61.261 102.577 61.919C102.978 62.1017 103.378 62.6135 103.451 63.0521C103.524 63.308 103.014 63.7831 102.687 64.0024C100.248 65.83 97.8091 67.5845 95.3703 69.3756C95.3339 69.4121 95.2975 69.4121 95.2975 69.4487C95.2247 69.8142 95.1155 70.1797 95.0427 70.5818C95.4067 70.6549 95.7707 70.8011 96.1347 70.8011C96.7899 70.7646 97.4087 70.5452 98.0639 70.5818C98.7919 70.6183 98.9738 70.3259 99.4834 69.7776C100.066 69.1563 100.976 69.0466 101.522 69.5218C102.286 70.1797 102.505 71.0204 101.558 72.1535C101.449 72.2997 101.558 72.5556 101.558 72.7384C102.505 72.5921 103.342 72.3728 104.143 72.3728C104.725 72.3728 105.344 72.6287 105.671 71.9342C105.999 71.2763 106.436 70.5818 105.671 69.8508C105.453 69.6314 105.307 69.0832 105.38 68.8273C105.708 67.9866 106.035 67.0728 106.618 66.3783C107.637 65.099 108.765 63.9293 109.129 62.2479C109.53 60.6031 108.583 59.6528 107.018 59.799ZM101.049 67.2556C100.976 67.1459 100.903 67.0363 100.83 66.9266C101.194 66.6342 101.558 66.2321 101.959 66.1225C102.468 65.9762 103.196 65.4645 103.669 66.5611C102.723 66.8169 101.886 67.0363 101.049 67.2556Z" fill="#7C6C55"/>
</svg>
